<?xml version="1.0" standalone="no"?>
<!DOCTYPE svg PUBLIC "-//W3C//DTD SVG 1.1//EN" "http://www.w3.org/Graphics/SVG/1.1/DTD/svg11.dtd" >
<svg xmlns="http://www.w3.org/2000/svg" xmlns:xlink="http://www.w3.org/1999/xlink" version="1.1">
<metadata></metadata>
<defs>
<font id="texgyreadventorbold" horiz-adv-x="1283" >
<font-face units-per-em="2048" ascent="1669" descent="-379" />
<missing-glyph horiz-adv-x="561" />
<glyph unicode="IJ" horiz-adv-x="1430" d="M109 0v1483h274v-1483h-274zM510 351h275q26 -112 130 -112q133 0 133 194v1050h275v-1058q0 -209 -107.5 -330t-294.5 -121q-109 0 -196 41t-145 127.5t-70 208.5z" />
<glyph unicode="ij" horiz-adv-x="1000" d="M109 0v1112h266v-1112h-266zM111 1272v268h266v-268h-266zM515 -113q28 5 44 9.5t29.5 14t20 20.5t11 33.5t5.5 48t1 67.5v1032h267v-1038q0 -218 -101.5 -331.5t-276.5 -113.5v258zM628 1272v268h267v-268h-267z" />
<glyph horiz-adv-x="0" />
<glyph horiz-adv-x="682" />
<glyph unicode=" "  horiz-adv-x="561" />
<glyph unicode="&#x09;" horiz-adv-x="561" />
<glyph unicode="&#xa0;" horiz-adv-x="561" />
<glyph unicode="!" horiz-adv-x="561" d="M144 0v257h268v-257h-268zM144 377v1106h268v-1106h-268z" />
<glyph unicode="&#x22;" horiz-adv-x="722" d="M149 1030v453h152v-453h-152zM416 1030v453h152v-453h-152z" />
<glyph unicode="#" horiz-adv-x="1123" d="M69 467v201h220l24 179h-192v199h220l59 437h180l-59 -437h176l58 437h180l-58 -437h178v-199h-206l-24 -179h179v-201h-205l-64 -467h-181l64 467h-174l-63 -467h-182l64 467h-194zM469 668h175l24 179h-172z" />
<glyph unicode="$" horiz-adv-x="1123" d="M119 473v27h268q5 -78 51 -125.5t118 -47.5t120 48t48 119q0 32 -8 57t-25 45t-45 38q-29 18 -57 30t-154 60q-85 31 -142.5 82t-87 121.5t-29.5 158.5q0 136 68 235.5t198 129.5v267h255v-267q102 -19 173 -118.5t76 -227.5h-253q-8 40 -26 68t-44.5 42.5t-60.5 14.5 q-52 0 -85 -36.5t-33 -91.5q0 -49 16 -78t63.5 -56.5t148.5 -65.5q95 -33 155.5 -68.5t97.5 -83t52 -105.5t15 -141q0 -77 -20 -144.5t-57.5 -120t-93 -90.5t-124.5 -57v-264h-255v264q-150 41 -236.5 146t-86.5 235z" />
<glyph unicode="%" horiz-adv-x="1725" d="M42 1146q0 74 28.5 141.5t77.5 116t116.5 77t143.5 28.5q96 0 179.5 -49t132 -132.5t48.5 -179.5q0 -99 -48 -182.5t-131.5 -132t-182.5 -48.5t-183 48.5t-132.5 131.5t-48.5 181zM259 1147.5q0 -61.5 43 -104.5t104 -43q60 0 104 43.5t44 104.5q0 39 -20 73.5t-54.5 55 t-73.5 20.5q-61 0 -104 -44t-43 -105.5zM448 0l611 1483h207l-613 -1483h-205zM950 335q0 100 48 183.5t131.5 132t184.5 48.5q97 0 180.5 -49t132.5 -132.5t49 -180.5q0 -99 -48.5 -182.5t-132.5 -132t-183 -48.5t-182.5 48.5t-131.5 131.5t-48 181zM1166 337 q0 -61 43 -104.5t103.5 -43.5t104.5 44t44 104t-44.5 104.5t-104.5 44.5q-39 0 -73 -20t-53.5 -54t-19.5 -75z" />
<glyph unicode="&#x26;" horiz-adv-x="1364" d="M71 448q0 135 65.5 235t210.5 186q-73 83 -99 138.5t-26 134.5q0 102 49.5 186t135.5 132.5t191 48.5q80 0 150.5 -28t121 -76t80 -116t29.5 -145q0 -122 -49.5 -199.5t-182.5 -163.5l134 -151l145 239h299l-257 -440l265 -282l-191 -173l-211 223q-95 -127 -176.5 -175 t-200.5 -48q-100 0 -189.5 37t-154 100.5t-102 151t-37.5 185.5zM337 431q0 -83 57 -137.5t144 -54.5q67 0 112.5 34.5t96.5 124.5l-232 248q-93 -42 -135.5 -93t-42.5 -122zM477 1138q0 -41 22.5 -78.5t80.5 -94.5q58 31 88 55t43 51t13 65q0 54 -34 88t-88 34 q-53 0 -89 -34.5t-36 -85.5z" />
<glyph unicode="'" horiz-adv-x="441" d="M149 1030v453h152v-453h-152z" />
<glyph unicode="(" horiz-adv-x="762" d="M149 602q0 146 39 283.5t109.5 251.5t174 204t229.5 142v-288q-137 -105 -209.5 -258t-72.5 -335q0 -177 79 -341.5t203 -244.5v-291q-122 42 -226 133t-175 209t-111 256.5t-40 278.5z" />
<glyph unicode=")" horiz-adv-x="762" d="M74 14q137 105 209 257t72 335q0 177 -78.5 342t-202.5 245v290q122 -43 226 -134t175 -209t111 -257t40 -277q0 -196 -66.5 -371t-192 -308t-293.5 -202v289z" />
<glyph unicode="*" horiz-adv-x="882" d="M140 1112v142l199 -9l-106 172l127 64l88 -173l92 175l119 -72l-109 -166l195 11v-144l-195 10l107 -161l-115 -76l-94 176l-86 -176l-129 63l104 178z" />
<glyph unicode="+" horiz-adv-x="1203" d="M109 364v276h355v356h277v-356h355v-276h-355v-356h-277v356h-355z" />
<glyph unicode="," horiz-adv-x="561" d="M144 0v257h268v-271q0 -120 -69.5 -193.5t-198.5 -73.5v134q63 12 91 38t28 75q0 22 -2 34h-117z" />
<glyph unicode="-" horiz-adv-x="842" d="M149 460v237h556v-237h-556z" />
<glyph unicode="." horiz-adv-x="561" d="M144 0v257h268v-257h-268z" />
<glyph unicode="/" horiz-adv-x="923" d="M52 -257l649 1740h188l-648 -1740h-189z" />
<glyph unicode="0" horiz-adv-x="1123" d="M60 496v504q0 234 134.5 371.5t363.5 137.5q225 0 360.5 -135t135.5 -361v-517q0 -247 -131 -384.5t-353 -137.5q-152 0 -267 60t-179 179t-64 283zM327 504q0 -139 60 -212t175 -73q108 0 166.5 69t58.5 210v502q0 127 -59.5 195.5t-167.5 68.5q-109 0 -171 -70.5 t-62 -193.5v-496z" />
<glyph unicode="1" horiz-adv-x="1123" d="M307 1232v251h453v-1483h-266v1232h-187z" />
<glyph unicode="2" horiz-adv-x="1123" d="M69 971q0 126 36.5 228t101.5 169.5t155.5 104t197.5 36.5q101 0 191 -37t154 -100.5t101.5 -153t37.5 -190.5q0 -138 -60.5 -244.5t-226.5 -257.5l-303 -275h584v-251h-960v235l528 500q91 86 131 155.5t40 141.5q0 65 -28 118.5t-77.5 83.5t-109.5 30 q-104 0 -167.5 -80.5t-63.5 -212.5h-262z" />
<glyph unicode="3" horiz-adv-x="1123" d="M30 450h269q13 -105 79 -168t162 -63q101 0 166.5 70t65.5 177q0 74 -35.5 130.5t-101 87t-153.5 30.5h-45v257q125 3 177 39t52 114q0 62 -36.5 101t-93.5 39q-55 0 -85.5 -32.5t-38.5 -101.5h-272q10 122 65 209t139.5 128.5t189.5 41.5q84 0 158.5 -30.5t127 -83 t83 -126.5t30.5 -159q0 -34 -4.5 -64.5t-14.5 -57t-24.5 -50t-35 -44.5t-46.5 -39q232 -104 232 -384q0 -141 -64.5 -255t-178 -178t-255.5 -64q-141 0 -255 60.5t-181.5 169t-75.5 246.5z" />
<glyph unicode="4" horiz-adv-x="1123" d="M0 222v218l682 1043h225v-1021h156v-240h-156v-222h-267v222h-640zM270 462h370v572z" />
<glyph unicode="5" horiz-adv-x="1123" d="M24 444h267q20 -108 82.5 -166.5t158.5 -58.5q108 0 176.5 76t68.5 197q0 113 -69.5 189t-171.5 76q-63 0 -110 -25.5t-97 -87.5l-237 65l139 774h671v-251h-471l-48 -273q39 17 69 26t58.5 13t63.5 4q134 0 241.5 -65.5t168 -181.5t60.5 -259q0 -110 -39 -207 t-105.5 -166t-160 -109t-199.5 -40q-78 0 -153 22t-138 64.5t-112.5 99.5t-78.5 130.5t-34 153.5z" />
<glyph unicode="6" horiz-adv-x="1123" d="M42 486q0 106 33.5 200.5t113.5 215.5l387 581h319l-355 -527q60 19 121 19q116 0 210 -60.5t146.5 -168t52.5 -240.5q0 -153 -65 -274.5t-181.5 -189.5t-261.5 -68q-111 0 -207.5 39t-165 107t-108 163t-39.5 203zM309 479q0 -114 71 -187t182 -73q106 0 173.5 72 t67.5 188q0 115 -70 189.5t-175 74.5q-74 0 -130.5 -33t-87.5 -93t-31 -138z" />
<glyph unicode="7" horiz-adv-x="1123" d="M130 1232v251h874v-251l-542 -1232h-301l561 1232h-592z" />
<glyph unicode="8" horiz-adv-x="1123" d="M62 464q0 121 50 209.5t163 151.5q-46 50 -72.5 92t-38 85.5t-11.5 99.5q0 111 54 205t147.5 148t205.5 54q115 0 207.5 -52.5t145 -144.5t52.5 -207q0 -92 -30.5 -160t-93.5 -120q110 -66 159.5 -150.5t49.5 -208.5q0 -70 -17 -134.5t-48 -118.5t-76 -99t-99 -75.5 t-118.5 -47.5t-133.5 -17q-103 0 -195 37.5t-158 102.5t-104.5 156t-38.5 194zM329 454q0 -100 66.5 -167.5t164.5 -67.5q94 0 158.5 67t64.5 166q0 96 -65.5 164t-157.5 68q-97 0 -164 -66.5t-67 -163.5zM408 1102q0 -67 44 -113.5t108 -46.5q62 0 106 47t44 114.5 t-43.5 114t-104.5 46.5q-66 0 -110 -46.5t-44 -115.5z" />
<glyph unicode="9" horiz-adv-x="1123" d="M44 977q0 153 64.5 274.5t179.5 189.5t260 68q110 0 207 -39t165.5 -106.5t108 -163t39.5 -204.5q0 -107 -33.5 -201t-113.5 -213l-387 -582h-319l357 528q-66 -24 -120 -24q-114 0 -207.5 62t-147 170.5t-53.5 240.5zM311 1004q0 -115 68.5 -189t174.5 -74 q110 0 178.5 73t68.5 190q0 114 -71.5 187t-181.5 73q-105 0 -171 -73t-66 -187z" />
<glyph unicode=":" horiz-adv-x="561" d="M144 0v257h268v-257h-268zM144 741v266h268v-266h-268z" />
<glyph unicode=";" horiz-adv-x="561" d="M144 0v257h268v-271q0 -122 -72.5 -194.5t-195.5 -72.5v134q63 12 91 38t28 75v34h-119zM144 741v266h268v-266h-268z" />
<glyph unicode="&#x3c;" horiz-adv-x="1203" d="M130 393v218l858 678v-354l-548 -433l548 -433v-354z" />
<glyph unicode="=" horiz-adv-x="1203" d="M109 178v278h987v-278h-987zM109 548v277h987v-277h-987z" />
<glyph unicode="&#x3e;" horiz-adv-x="1203" d="M130 69l548 433l-548 433v354l858 -678v-218l-858 -678v354z" />
<glyph unicode="?" horiz-adv-x="1123" d="M65 1044q9 113 47.5 203t100 146.5t140 86t168.5 29.5q127 0 230.5 -59.5t162.5 -165t59 -234.5q0 -102 -44.5 -180.5t-160.5 -178.5q-57 -50 -83 -88t-36 -87t-11 -141h-267q0 98 10 163t38 125t73.5 110t123.5 114q91 75 91 170q0 82 -54 135t-138 53 q-81 0 -125.5 -49.5t-58.5 -151.5h-266zM371 0v257h267v-257h-267z" />
<glyph unicode="@" horiz-adv-x="1484" d="M6 757q0 163 59.5 308t161.5 249t246 164t306 60q158 0 290.5 -52.5t226.5 -147.5t146.5 -234.5t52.5 -306.5q0 -108 -31.5 -199t-87 -154.5t-134 -99t-170.5 -35.5q-159 0 -199 108q-37 -56 -92 -82t-135 -26q-151 0 -240.5 104t-89.5 280q0 130 52.5 237t145 167.5 t206.5 60.5q82 0 134.5 -26t102.5 -90l14 109h193l-66 -593q-2 -10 -2 -30q0 -53 55 -53q52 0 98 49t72.5 130.5t26.5 174.5q0 166 -70.5 294t-199 199t-295.5 71q-135 0 -253 -49t-201.5 -133.5t-131.5 -204t-48 -255.5q0 -73 15 -142t44 -131.5t70.5 -117t97 -98.5 t120.5 -75.5t144 -48.5t165 -17q89 0 161 22t137 72l94 -121q-82 -63 -175.5 -91.5t-220.5 -28.5q-169 0 -316.5 59t-252.5 162t-165.5 249t-60.5 313zM556 712q0 -87 42 -139t114 -52q88 0 144.5 64.5t56.5 165.5q0 42 -10.5 76t-30 57.5t-48.5 36t-64 12.5 q-41 0 -79 -17.5t-65.5 -47t-43.5 -70t-16 -86.5z" />
<glyph unicode="A" horiz-adv-x="1484" d="M14 0l618 1483h217l622 -1483h-303l-159 383h-527l-164 -383h-304zM582 646h318l-159 450z" />
<glyph unicode="B" horiz-adv-x="1163" d="M136 0v1483h306q166 0 250.5 -15t150.5 -57q40 -25 71.5 -59.5t53 -75.5t32.5 -89t11 -99q0 -104 -38 -168.5t-126 -111.5q138 -57 195.5 -143.5t57.5 -222.5q0 -208 -144 -325t-424 -117h-396zM412 263h136q144 0 209.5 44t65.5 141q0 66 -30.5 109t-92.5 64t-158 21 h-130v-379zM412 911h88q125 0 181 36t56 116q0 151 -213 151h-112v-303z" />
<glyph unicode="C" horiz-adv-x="1565" d="M60 747q0 154 60.5 295.5t163 243.5t244 162.5t295.5 60.5q152 0 287.5 -52.5t242.5 -155t172 -244.5h-307q-75 98 -167.5 143t-221.5 45q-104 0 -196 -39t-156.5 -106t-102 -159.5t-37.5 -195.5q0 -102 39.5 -195.5t106.5 -161.5t159 -108.5t193 -40.5q107 0 192.5 40 t174.5 135h323q-88 -203 -272.5 -321.5t-411.5 -118.5q-160 0 -304.5 61t-249 164.5t-166 246.5t-61.5 301z" />
<glyph unicode="D" horiz-adv-x="1404" d="M136 0v1483h339q352 0 527 -106q77 -46 137.5 -112.5t101.5 -147.5t62.5 -177t21.5 -201q0 -224 -96 -398t-268 -259q-90 -44 -200 -63t-279 -19h-346zM412 263h59q243 0 362 66q99 55 157 165.5t58 244.5q0 95 -27.5 177.5t-78.5 145t-121 98.5q-64 33 -144 46.5 t-211 13.5h-54v-957z" />
<glyph unicode="E" horiz-adv-x="1042" d="M136 0v1483h797v-263h-521v-349h499v-262h-499v-346h521v-263h-797z" />
<glyph unicode="F" horiz-adv-x="963" d="M136 0v1483h755v-263h-479v-349h457v-262h-457v-609h-276z" />
<glyph unicode="G" horiz-adv-x="1685" d="M60 745q0 156 61.5 298t166 244t249 162t304 60t308.5 -59.5t259 -165t157 -236.5h-322q-69 96 -173.5 146.5t-234.5 50.5q-108 0 -201 -40t-158 -107.5t-102 -160t-37 -196.5q0 -105 39.5 -198t108 -159.5t163.5 -105.5t203 -39q146 0 260.5 68.5t175.5 192.5h-615v257 h970v-37q0 -149 -60.5 -286.5t-163 -238.5t-246.5 -161t-305 -60q-168 0 -318 60t-257 162.5t-169.5 245.5t-62.5 303z" />
<glyph unicode="H" horiz-adv-x="1364" d="M136 0v1483h276v-598h530v598h274v-1483h-274v622h-530v-622h-276z" />
<glyph unicode="I" horiz-adv-x="561" d="M136 0v1483h276v-1483h-276z" />
<glyph unicode="J" horiz-adv-x="963" d="M18 351h275q26 -112 130 -112q133 0 133 194v1050h275v-1058q0 -209 -107.5 -330t-294.5 -121q-109 0 -196 41t-144.5 127.5t-70.5 208.5z" />
<glyph unicode="K" horiz-adv-x="1243" d="M136 0v1483h276v-640l459 640h331l-558 -728l558 -755h-331l-459 653v-653h-276z" />
<glyph unicode="L" horiz-adv-x="882" d="M136 0v1483h276v-1220h453v-263h-729z" />
<glyph unicode="M" horiz-adv-x="1806" d="M136 0v1483h378l399 -1123l395 1123h378v-1483h-275v1112l-388 -1112h-224l-387 1112v-1112h-276z" />
<glyph unicode="N" horiz-adv-x="1484" d="M136 0v1483h314l613 -1079v1079h276v-1483h-307l-620 1078v-1078h-276z" />
<glyph unicode="O" horiz-adv-x="1685" d="M60 741q0 160 60.5 302.5t164.5 244.5t249.5 161.5t308.5 59.5q156 0 297 -60.5t243 -163t162 -244.5t60 -298q0 -160 -59 -302.5t-160.5 -245t-243.5 -162t-301 -59.5q-161 0 -305.5 60t-249 162.5t-165.5 244.5t-61 300zM337 741q0 -104 39 -197t106 -160t160 -106 t197 -39q138 0 250.5 65t176 179.5t63.5 255.5q0 105 -38 199t-103.5 161t-156.5 106.5t-192 39.5q-105 0 -198.5 -39t-160 -105.5t-105 -160t-38.5 -199.5z" />
<glyph unicode="P" horiz-adv-x="1123" d="M136 0v1483h368q147 0 231.5 -15t147.5 -53q96 -59 148.5 -160t52.5 -229q0 -85 -23.5 -161.5t-67.5 -137t-104 -97.5q-62 -37 -146.5 -51.5t-242.5 -14.5h-88v-564h-276zM412 827h80q121 0 191 22.5t97 63.5t27 108q0 114 -69.5 156.5t-233.5 42.5h-92v-393z" />
<glyph unicode="Q" horiz-adv-x="1685" d="M60 743q0 159 61 301t166.5 244t252 161.5t311.5 59.5q166 0 311.5 -59t249.5 -161t164 -246t60 -308q0 -292 -179 -476q50 -26 76 -35t60 -9q26 0 69 5v-248q-16 -2 -53 -2q-93 0 -165 26.5t-170 93.5q-78 -54 -187.5 -85t-223.5 -31q-165 0 -314 60.5t-256 163 t-170 245t-63 300.5zM335 741q0 -34 4 -71q103 27 229 27q178 0 356.5 -76.5t314.5 -210.5q119 122 119 320q0 109 -39 204.5t-106.5 163.5t-162.5 107.5t-203 39.5t-203 -39t-162.5 -105.5t-107 -160t-39.5 -199.5zM423 456q57 -75 123.5 -123t145 -71t171.5 -23 q56 0 94 8.5t85 29.5q-128 102 -240.5 148t-235.5 46q-56 0 -143 -15z" />
<glyph unicode="R" horiz-adv-x="1163" d="M136 0v1483h428q153 0 243.5 -24.5t161.5 -85.5q77 -65 117 -158.5t40 -207.5q0 -362 -387 -459l401 -548h-339l-389 568v-568h-276zM412 775h134q159 0 231 53.5t72 171.5q0 42 -7.5 73.5t-28.5 60.5t-55.5 47t-90.5 28.5t-133 10.5h-122v-445z" />
<glyph unicode="S" horiz-adv-x="1042" d="M28 423h288q17 -184 199 -184q89 0 145 50t56 130q0 30 -7.5 58t-23 52t-36.5 41q-32 25 -66 39.5t-192 74.5q-149 56 -229 160t-80 244q0 115 57.5 212t157 153t217.5 56q119 0 216 -50.5t157 -147t67 -223.5h-286q-6 75 -46.5 116t-109.5 41q-68 0 -110 -42.5 t-42 -108.5q0 -82 82 -135q26 -15 164 -66q112 -42 186.5 -88t118 -101t61.5 -115.5t18 -138.5q0 -99 -37 -187.5t-100 -152t-151 -100t-187 -36.5q-97 0 -182 31t-149.5 88t-105.5 142t-50 188z" />
<glyph unicode="T" horiz-adv-x="842" d="M14 1220v263h825v-263h-275v-1220h-275v1220h-275z" />
<glyph unicode="U" d="M136 544v939h276v-939q0 -68 10 -120.5t28.5 -87t47 -56.5t63 -31.5t77.5 -9.5q53 0 93 15t70.5 49.5t46 94.5t15.5 146v939h275v-939q0 -139 -37 -248.5t-104 -179.5t-158.5 -106t-202.5 -36q-110 0 -201 36.5t-158 106.5t-104 179t-37 248z" />
<glyph unicode="V" horiz-adv-x="1404" d="M16 1483h289l400 -1128l398 1128h290l-574 -1483h-225z" />
<glyph unicode="W" horiz-adv-x="1806" d="M14 1483h281l261 -1035l252 1035h201l249 -1035l263 1035h281l-433 -1483h-218l-240 981l-245 -981h-216z" />
<glyph unicode="X" horiz-adv-x="1364" d="M10 0l509 739l-509 744h327l345 -518l356 518h318l-513 -744l513 -739h-318l-356 512l-345 -512h-327z" />
<glyph unicode="Y" horiz-adv-x="1243" d="M6 1483h297l329 -682l327 682h297l-488 -935v-548h-274v548z" />
<glyph unicode="Z" horiz-adv-x="1003" d="M36 0v233l562 987h-531v263h858v-246l-557 -974h595v-263h-927z" />
<glyph unicode="[" horiz-adv-x="641" d="M149 375v520q0 114 23 204t74 165t135.5 129.5t204.5 89.5v-295q-43 -18 -73.5 -43.5t-48.5 -53.5t-28 -69t-13.5 -81.5t-3.5 -99.5v-512q0 -60 7.5 -105t25 -86t51 -70.5t83.5 -47.5v-295q-105 23 -184 72t-136.5 127.5t-87 191.5t-29.5 259z" />
<glyph unicode="\" d="M169 1483h189l651 -1483h-188z" />
<glyph unicode="]" horiz-adv-x="641" d="M74 20q37 14 64 33t45 44t29.5 51.5t18 63t8.5 72t2 84.5v511q0 59 -7 103t-24.5 85t-51 70.5t-84.5 50.5v295q214 -48 326 -206t112 -444v-520q0 -114 -23.5 -204t-74 -165t-135.5 -130t-205 -89v295z" />
<glyph unicode="^" horiz-adv-x="1203" d="M126 728l360 755h244l360 -755l-209 -100l-272 554l-274 -554z" />
<glyph unicode="_" horiz-adv-x="1003" d="M0 -96h1004v-181h-1004v181z" />
<glyph unicode="`" horiz-adv-x="842" d="M50 1453l109 185l450 -269l-103 -157z" />
<glyph unicode="a" horiz-adv-x="1323" d="M60 552q0 63 11 122.5t31 112t50 99.5t67.5 86t83 70t96.5 52t108.5 32.5t118.5 11.5q121 0 208 -41.5t156 -133.5v149h245v-1112h-245v144q-81 -91 -167 -130.5t-203 -39.5q-120 0 -224 43.5t-178 119.5t-116 183.5t-42 231.5zM329 546q0 -146 91.5 -236.5t238.5 -90.5 q98 0 172.5 44t112 118t37.5 167q0 152 -91.5 248.5t-234.5 96.5q-144 0 -235 -97.5t-91 -249.5z" />
<glyph unicode="b" horiz-adv-x="1323" d="M109 0v1483h266v-474q77 77 157 110t188 33q118 0 222 -45t178.5 -123t117.5 -187.5t43 -232.5q0 -124 -41 -233.5t-112.5 -188t-172.5 -123.5t-216 -45q-124 0 -212 38t-174 130v-142h-244zM360 564q0 -101 41.5 -179.5t116.5 -122t170 -43.5q143 0 233 95t90 248 q0 149 -93 247t-236 98q-69 0 -129 -25.5t-102.5 -70.5t-66.5 -109t-24 -138z" />
<glyph unicode="c" d="M60 556q0 96 29 185.5t82.5 161t125.5 124.5t162 82t187 29q193 0 345 -104.5t215 -292.5h-300q-81 152 -260 152q-138 0 -227.5 -94.5t-89.5 -240.5q0 -96 42.5 -174t116.5 -121.5t165 -43.5q82 0 142 35t111 112h300q-69 -187 -213 -289.5t-338 -102.5 q-122 0 -232 45.5t-189.5 123.5t-126.5 186t-47 227z" />
<glyph unicode="d" horiz-adv-x="1323" d="M60 558q0 122 43.5 232.5t118 190t177.5 125.5t217 46q105 0 196.5 -37t150.5 -102v470h267v-1483h-244v144q-80 -90 -167 -130t-201 -40q-116 0 -219.5 45t-178 122.5t-117.5 186t-43 230.5zM329 570q0 -97 44 -177.5t120 -127t168 -46.5q135 0 229 99t94 244 q0 146 -95 245.5t-234 99.5q-137 0 -231.5 -97.5t-94.5 -239.5z" />
<glyph unicode="e" d="M60 552q0 120 46 229t124 187t186.5 124t229.5 46q82 0 157.5 -20.5t138.5 -58t115 -91.5t88 -119.5t55.5 -144.5t19.5 -164q0 -55 -10 -103h-861q24 -101 106.5 -159.5t201.5 -58.5q82 0 137.5 25t107.5 85h291q-36 -110 -120 -192.5t-190.5 -122.5t-220.5 -40 q-125 0 -236.5 44.5t-192 121.5t-127 184.5t-46.5 227.5zM341 672h616q-25 107 -104 164t-202 57q-119 0 -198.5 -57t-111.5 -164z" />
<glyph unicode="f" horiz-adv-x="561" d="M20 869v223h97q11 107 42.5 184t80.5 121.5t109 65t135 20.5q33 0 66 -4v-253h-26q-77 0 -108 -29.5t-33 -104.5h151v-223h-151v-869h-266v869h-97z" />
<glyph unicode="g" horiz-adv-x="1323" d="M60 564q0 121 41.5 228t114 182.5t174.5 119.5t219 44q240 0 362 -167v141h255v-901q0 -655 -575 -655q-205 0 -355 93t-218 261h303q59 -65 122.5 -92t157.5 -27q149 0 226 88.5t84 267.5q-78 -92 -163 -132.5t-202 -40.5q-118 0 -219.5 44t-173 121.5t-112.5 187.5 t-41 237zM329 552q0 -153 85 -243t228 -90t230 91t87 242q0 152 -89 246.5t-232 94.5q-140 0 -224.5 -93.5t-84.5 -247.5z" />
<glyph unicode="h" horiz-adv-x="1203" d="M109 0v1483h266v-447q60 54 128.5 79t155.5 25q435 0 435 -512v-628h-267v568q0 118 -21.5 188.5t-68.5 103.5t-126 33q-120 0 -178 -75.5t-58 -253.5v-564h-266z" />
<glyph unicode="i" horiz-adv-x="481" d="M109 0v1112h266v-1112h-266zM111 1272v268h266v-268h-266z" />
<glyph unicode="j" horiz-adv-x="521" d="M34 -113q27 5 43 9.5t30 14t20 20.5t10.5 33.5t5.5 48t1 67.5v1032h268v-1038q0 -218 -101.5 -331.5t-276.5 -113.5v258zM147 1272v268h267v-268h-267z" />
<glyph unicode="k" horiz-adv-x="1163" d="M109 0v1483h266v-895l355 524h320l-397 -544l461 -568h-359l-380 519v-519h-266z" />
<glyph unicode="l" horiz-adv-x="481" d="M109 0v1483h266v-1483h-266z" />
<glyph unicode="m" horiz-adv-x="1886" d="M109 0v1112h244v-105q59 71 125 101t164 30q114 0 192 -41t135 -132q68 90 154 131.5t204 41.5q221 0 335 -124t114 -372v-642h-267v611q0 81 -14.5 137t-43.5 87t-65 44.5t-86 13.5q-77 0 -124.5 -30.5t-73.5 -107.5t-26 -207v-548h-268v611q0 64 -9 112.5t-26 81 t-44.5 52t-60.5 28t-76 8.5q-60 0 -99.5 -17t-66.5 -57.5t-39 -106t-12 -164.5v-548h-266z" />
<glyph unicode="n" horiz-adv-x="1203" d="M109 0v1112h246v-107q49 48 97 77t100.5 42.5t115.5 13.5q116 0 204.5 -41.5t142.5 -119.5q45 -65 63 -148.5t18 -232.5v-596h-267v544q0 87 -9.5 150t-26.5 101t-45 60t-58.5 30t-73.5 8q-63 0 -114 -26t-83 -76q-25 -40 -34.5 -97t-9.5 -170v-524h-266z" />
<glyph unicode="o" d="M60 556q0 117 47 225t126 186t188 124.5t228 46.5q123 0 233.5 -46t189.5 -124.5t125 -188t46 -231.5q0 -115 -47.5 -221.5t-127 -183.5t-189 -123t-228.5 -46q-120 0 -229.5 46t-188.5 124t-126 185.5t-47 226.5zM329 560q0 -94 43 -172.5t117.5 -123.5t163.5 -45 q86 0 160 45t117 122.5t43 169.5q0 90 -43 168t-117.5 123.5t-161.5 45.5q-65 0 -124 -27t-102.5 -71.5t-69.5 -106t-26 -128.5z" />
<glyph unicode="p" horiz-adv-x="1323" d="M109 -371v1483h244v-131q43 50 99 85t123.5 53.5t142.5 18.5q119 0 222 -43.5t176 -119.5t114.5 -183.5t41.5 -231.5q0 -125 -42 -234t-115 -186.5t-176.5 -121.5t-222.5 -44q-102 0 -184 31t-157 99v-475h-266zM360 558q0 -147 93 -243t235 -96q133 0 224.5 96.5 t91.5 238.5q0 71 -25 134t-67.5 108t-101.5 71t-126 26q-138 0 -231 -96t-93 -239z" />
<glyph unicode="q" horiz-adv-x="1323" d="M60 560q0 118 44 225t119 184.5t179 123t218 45.5q122 0 209 -40.5t152 -128.5v143h245v-1483h-267v478q-133 -133 -335 -133q-94 0 -181 28.5t-156 82t-120.5 125.5t-79 162t-27.5 188zM329 554q0 -145 93 -240t235 -95q136 0 227 94.5t91 238.5q0 146 -90.5 243.5 t-225.5 97.5q-142 0 -236 -96.5t-94 -242.5z" />
<glyph unicode="r" horiz-adv-x="641" d="M109 0v1112h244v-108q53 76 104 105t137 29h20v-257q-120 -3 -179.5 -68t-59.5 -195v-618h-266z" />
<glyph unicode="s" horiz-adv-x="882" d="M38 353h269q20 -71 55 -102.5t94 -31.5q51 0 85.5 31t34.5 77q0 28 -4 42t-24 31t-56 31.5t-105 37.5q-166 56 -237.5 132t-71.5 198q0 94 49 172t134 122.5t187 44.5q95 0 175.5 -39t132.5 -116t56 -178h-260q-18 88 -104 88q-22 0 -41 -7.5t-32.5 -19.5t-21.5 -29.5 t-8 -37.5q0 -17 0.5 -25.5t8.5 -19t16.5 -16t34 -16t51.5 -19l78 -25.5q173 -54 241 -127t68 -198q0 -105 -52.5 -192t-144 -137t-200.5 -50q-171 0 -279 95t-129 284z" />
<glyph unicode="t" horiz-adv-x="601" d="M18 869v243h131v371h267v-371h160v-243h-160v-869h-267v869h-131z" />
<glyph unicode="u" horiz-adv-x="1203" d="M109 515v597h266v-544q0 -86 10 -149t27 -101.5t44.5 -61t58 -30t71.5 -7.5q45 0 84 12t69 35t50 55q15 26 24 59t13.5 83t4.5 125v524h267v-1112h-247v107q-75 -74 -146.5 -103.5t-172.5 -29.5q-423 0 -423 541z" />
<glyph unicode="v" horiz-adv-x="1123" d="M2 1112h297l257 -737l252 737h302l-448 -1112h-212z" />
<glyph unicode="w" horiz-adv-x="1605" d="M20 1112h287l199 -679l187 679h213l182 -679l203 679h285l-402 -1112h-167l-210 720l-215 -720h-165z" />
<glyph unicode="x" horiz-adv-x="1123" d="M2 0l393 574l-341 538h301l201 -335l197 335h301l-340 -538l396 -574h-321l-233 381l-233 -381h-321z" />
<glyph unicode="y" horiz-adv-x="1163" d="M12 1112h306l246 -721l269 721h307l-642 -1483h-287l208 475z" />
<glyph unicode="z" horiz-adv-x="923" d="M40 0v239l490 634h-434v239h753v-239l-489 -634h527v-239h-847z" />
<glyph unicode="{" horiz-adv-x="682" d="M74 532v163q85 10 124 57.5t39 138.5v315q0 148 67.5 214t219.5 66q36 0 82 -3v-160q-38 -3 -61.5 -7t-43 -14t-28.5 -22t-15.5 -36t-8 -52t-1.5 -74v-247q0 -117 -40 -174t-141 -85q67 -16 106 -46.5t57 -81t18 -129.5v-246q0 -46 1.5 -74t8 -52t15.5 -36.5t28.5 -22 t43 -13.5t61.5 -7v-161q-31 -2 -82 -2q-152 0 -219.5 65.5t-67.5 213.5v315q0 91 -39 139t-124 58z" />
<glyph unicode="|" horiz-adv-x="1203" d="M464 -275v1758h277v-1758h-277z" />
<glyph unicode="}" horiz-adv-x="682" d="M76 -96q39 3 62 7t42.5 13.5t29 22t16 36.5t8 52t1.5 74v246q0 117 40 174.5t141 84.5q-68 17 -106.5 47t-56.5 80.5t-18 129.5v247q0 46 -1.5 74t-8 52t-16 36.5t-29 22t-42.5 13.5t-62 7v160q46 3 83 3q152 0 219.5 -66t67.5 -214v-315q0 -46 9.5 -80t29.5 -58 t50.5 -38.5t73.5 -19.5v-163q-85 -10 -124 -58t-39 -139v-315q0 -148 -67.5 -213.5t-219.5 -65.5q-52 0 -83 2v161z" />
<glyph unicode="~" horiz-adv-x="1203" d="M102 580q25 41 43 68.5t39 55.5t38.5 46t38 34t41.5 24.5t45 13.5t53 5q74 0 154 -32l134 -54q48 -19 64.5 -26t34.5 -12.5t23.5 -5.5h20.5q23 0 49 17t53 50.5t53 80.5l128 -148q-78 -129 -143.5 -182t-147.5 -53q-68 0 -183 48l-108 44q-56 22 -81.5 30t-46.5 8 q-54 0 -95 -44l-4 -4l-4 -4t-4 -4.5t-5.5 -7t-7 -9.5t-9.5 -14t-12 -19t-15.5 -25t-19.5 -32z" />
<glyph unicode="&#xa1;" horiz-adv-x="561" d="M151 -371v1106h266v-1106h-266zM151 855v257h266v-257h-266z" />
<glyph unicode="&#xa2;" horiz-adv-x="1123" d="M78 764q0 107 41 200.5t123 163.5t195 98v209h251v-209q129 -32 220 -122.5t118 -214.5h-285q-30 42 -81 67t-106 25q-59 0 -106.5 -28.5t-75 -79t-27.5 -113.5q0 -94 61.5 -156t155.5 -62q99 0 171 80h293q-53 -134 -135.5 -214t-202.5 -111v-219h-251v219 q-160 36 -259.5 165t-99.5 302z" />
<glyph unicode="&#xa3;" horiz-adv-x="1123" d="M0 622v251h117q-35 76 -35 163q0 97 38 185t102 151t152.5 100t187.5 37q191 0 322 -117.5t148 -305.5h-272q-22 86 -73 132t-123 46q-60 0 -109 -31t-77.5 -86t-28.5 -121q0 -86 55 -153h415v-251h-215q35 -68 49.5 -118t14.5 -102q0 -73 -26 -151q107 0 164 52.5 t57 138.5q0 40 -20 108h264q23 -61 23 -104q0 -97 -40 -186t-111 -151q-71 -61 -154 -85t-221 -24h-522v251h280q40 67 40 147q0 62 -27 114t-90 110h-285z" />
<glyph unicode="&#xa4;" horiz-adv-x="1123" d="M54 460l84 86q-43 83 -57 133t-14 124q0 73 14 124t57 134l-84 91l161 160l90 -88q119 73 257 73q135 0 265 -73l90 86l155 -162l-84 -87q29 -50 45 -90.5t22 -79.5t6 -90q0 -52 -6.5 -91.5t-23 -79.5t-45.5 -86l84 -86l-155 -161l-88 84q-125 -74 -263 -74 q-135 0 -263 74l-88 -84zM307 803q0 -104 76 -179.5t181 -75.5t179 74t74 179q0 103 -73 178.5t-174 75.5q-54 0 -103 -19.5t-84 -53.5t-55.5 -81t-20.5 -98z" />
<glyph unicode="&#xa5;" horiz-adv-x="1123" d="M-71 1483h299l322 -684l323 684h309l-287 -544h185v-177h-281l-115 -210h396v-177h-396v-375h-267v375h-393v177h393l-112 210h-281v177h189z" />
<glyph unicode="&#xa6;" horiz-adv-x="1203" d="M464 -275v702h277v-702h-277zM464 781v702h277v-702h-277z" />
<glyph unicode="&#xa7;" horiz-adv-x="1123" d="M80 697q0 92 37 161.5t120 131.5q-57 86 -57 186q0 148 113 240.5t291 92.5q179 0 284 -96t130 -283h-253q-7 35 -20.5 60t-34.5 41.5t-50 24.5t-68 8q-63 0 -100 -26t-37 -70q0 -82 123 -140l329 -163q53 -25 92.5 -68t60.5 -97.5t21 -113.5q0 -82 -39 -156.5 t-111 -128.5q53 -54 76.5 -110.5t23.5 -128.5q0 -166 -120.5 -272t-310.5 -106q-195 0 -319 112t-140 315h268q0 -90 49.5 -136t143.5 -46q75 0 125 37.5t50 93.5q0 42 -30 72t-116 75l-328 168q-103 54 -153 132.5t-50 189.5zM316 710q0 -23 11.5 -43t38 -40.5t69.5 -42.5 l304 -153q34 24 53.5 58t19.5 69q0 24 -10 42.5t-35 37t-74 42.5l-300 149q-42 -33 -59.5 -60t-17.5 -59z" />
<glyph unicode="&#xa8;" horiz-adv-x="1003" d="M149 1272v268h267v-268h-267zM570 1272v268h267v-268h-267z" />
<glyph unicode="&#xa9;" horiz-adv-x="1484" d="M40 676.5q0 142.5 56 272.5t150 224t224 150t272.5 56t273 -56t224.5 -150t150 -224t56 -272.5t-56 -273t-150 -224.5t-224.5 -149.5t-273 -55.5t-272.5 55.5t-224 149.5t-150 224.5t-56 273zM161 676.5q0 -118.5 46 -226.5t124 -186t185.5 -124t226 -46t226.5 46 t186 124t124 186t46 226.5t-46 226t-124 185.5t-186 124t-226.5 46t-226 -46t-185.5 -124t-124 -185.5t-46 -226zM305 680q0 66 22.5 128t64 112.5t96.5 89t123.5 59.5t141.5 21q144 0 258.5 -72.5t166.5 -200.5h-211q-40 50 -90.5 72t-119.5 22q-73 0 -132 -30.5t-92 -84 t-33 -118.5q0 -97 76.5 -166.5t182.5 -69.5q39 0 72 9t64 28.5t64 52.5h217q-43 -122 -156.5 -195.5t-257.5 -73.5q-93 0 -178 33t-146 89.5t-97 133.5t-36 161z" />
<glyph unicode="&#xaa;" horiz-adv-x="722" d="M56 1188q0 132 85.5 224.5t209.5 92.5q117 0 195 -100v78h132v-598h-132v82q-37 -49 -90.5 -75.5t-114.5 -26.5q-59 0 -112 25t-91 68t-60 103t-22 127zM62 622v140h624v-140h-624zM209 1182q0 -69 47.5 -119t114.5 -50q68 0 115.5 50.5t47.5 122.5t-47 121t-116 49 q-67 0 -114.5 -51t-47.5 -123z" />
<glyph unicode="&#xab;" horiz-adv-x="923" d="M73 479v201l278 262v-247l-134 -115l134 -116v-247zM500 479v201l279 262v-247l-135 -115l135 -116v-247z" />
<glyph unicode="&#xac;" horiz-adv-x="1203" d="M109 548v277h987v-507h-277v230h-710z" />
<glyph unicode="&#xad;" horiz-adv-x="842" d="M149 460v237h556v-237h-556z" />
<glyph unicode="&#xae;" horiz-adv-x="1484" d="M40 676.5q0 142.5 56 272.5t150 224t224 150t272.5 56t273 -56t224.5 -150t150 -224t56 -272.5t-56 -273t-150 -224.5t-224.5 -149.5t-273 -55.5t-272.5 55.5t-224 149.5t-150 224.5t-56 273zM161 676.5q0 -118.5 46 -226.5t124 -186t185.5 -124t226 -46t226.5 46 t186 124t124 186t46 226.5t-46 226t-124 185.5t-186 124t-226.5 46t-226 -46t-185.5 -124t-124 -185.5t-46 -226zM429 277v801h259q90 0 143.5 -13.5t95.5 -47.5q96 -74 96 -205q0 -187 -200 -246l232 -289h-243l-190 253v-253h-193zM604 695h74q91 0 131 26.5t40 86.5 q0 28 -7.5 47t-26 34.5t-54 23.5t-89.5 8h-68v-226z" />
<glyph unicode="&#xaf;" horiz-adv-x="842" d="M149 1304v201h556v-201h-556z" />
<glyph unicode="&#xb0;" horiz-adv-x="802" d="M100 1072q0 128 90 216.5t220 88.5q123 0 208 -89t85 -218t-87.5 -218.5t-214 -89.5t-214 90.5t-87.5 219.5zM213 1070q0 -79 56 -136t133 -57q78 0 132 56t54 137q0 80 -53.5 136t-128.5 56q-82 0 -137.5 -55.5t-55.5 -136.5z" />
<glyph unicode="&#xb1;" horiz-adv-x="1203" d="M109 0v277h987v-277h-987zM109 640v277h355v355h277v-355h355v-277h-355v-114h-277v114h-355z" />
<glyph unicode="&#xb2;" horiz-adv-x="674" d="M20 1168q0 158 87 244.5t232 86.5q89 0 161.5 -38t113.5 -105t41 -150q0 -158 -180 -300l-188 -151h364v-161h-625v149l342 297q61 52 84.5 90t24.5 80q0 37 -17.5 67t-48.5 47t-70 17q-68 0 -106.5 -45t-39.5 -128h-175z" />
<glyph unicode="&#xb3;" horiz-adv-x="674" d="M8 873h176q9 -63 51 -99.5t106 -36.5q42 0 76 17.5t53.5 49.5t19.5 71q0 65 -51.5 102.5t-139.5 37.5h-42v165q62 1 98 9.5t52 26.5t16 48q0 33 -24 55t-62 22t-57.5 -19t-26.5 -62h-179q12 118 83.5 177.5t177.5 59.5q76 0 136.5 -31t94.5 -86.5t34 -125.5 q0 -96 -68 -149q42 -20 71.5 -52.5t45 -76t15.5 -95.5q0 -131 -91.5 -217t-231.5 -86q-70 0 -130.5 22t-103.5 60.5t-69.5 93t-29.5 119.5z" />
<glyph unicode="&#xb4;" horiz-adv-x="842" d="M235 1369l449 269l109 -185l-456 -241z" />
<glyph unicode="&#xb5;" horiz-adv-x="1155" d="M109 -371v1483h266v-546q0 -54 4 -97.5t16.5 -91t34 -79.5t60 -53t90.5 -21q44 0 78 14t55.5 40.5t36 57t21.5 72t9.5 78t2.5 80.5v546h267v-1112h-245v119q-28 -55 -66 -89t-86.5 -50t-110.5 -16q-25 0 -45.5 2t-40.5 7t-38.5 11.5t-42.5 17.5v-373h-266z" />
<glyph unicode="&#xb6;" horiz-adv-x="1203" d="M74 1070q0 204 131 308.5t415 104.5h437v-1740h-202v1525h-169v-1525h-202v919q-183 3 -296.5 116t-113.5 292z" />
<glyph unicode="&#xb7;" horiz-adv-x="561" d="M153 502q0 53 37.5 90.5t90.5 37.5t91 -37.5t38 -90.5t-38 -91t-91 -38t-90.5 38t-37.5 91z" />
<glyph unicode="&#xb8;" horiz-adv-x="682" d="M149 -333h121q26 -58 77 -58q15 0 29.5 7t25.5 19t17 29t6 35t-6 34t-16.5 28t-25 19t-30.5 7q-21 0 -38 -11.5t-39 -42.5l-103 52l92 225h105l-63 -127q40 15 59 15q73 0 127.5 -60t54.5 -143q0 -88 -53.5 -142.5t-139.5 -54.5q-77 0 -132.5 47t-67.5 122z" />
<glyph unicode="&#xb9;" horiz-adv-x="674" d="M189 1323v160h295v-889h-177v729h-118z" />
<glyph unicode="&#xba;" horiz-adv-x="722" d="M62 624v140h616v-140h-616zM62 1202q0 81 42 151t113.5 111t153.5 41q128 0 217.5 -89.5t89.5 -218.5q0 -130 -89.5 -220t-219.5 -90q-82 0 -153 42.5t-112.5 115.5t-41.5 157zM209 1202q0 -47 20.5 -85t57.5 -59.5t82 -21.5q70 0 116.5 46.5t46.5 116.5q0 67 -48 116.5 t-113 49.5q-66 0 -114 -48t-48 -115z" />
<glyph unicode="&#xbb;" horiz-adv-x="923" d="M147 217v247l134 116l-134 115v247l278 -262v-201zM574 217v247l135 116l-135 115v247l279 -262v-201z" />
<glyph unicode="&#xbc;" horiz-adv-x="1685" d="M189 1323v160h295v-889h-177v729h-118zM442 0l613 1483h192l-615 -1483h-190zM1015 132v135l418 622h149v-604h96v-153h-96v-132h-177v132h-390zM1200 285h205v309z" />
<glyph unicode="&#xbd;" horiz-adv-x="1685" d="M189 1323v160h295v-889h-177v729h-118zM400 0l613 1483h191l-614 -1483h-190zM1032 574q0 159 87.5 245.5t230.5 86.5q136 0 226 -84t90 -210q0 -160 -178 -301l-190 -150h364v-161h-624v149l341 297q61 53 85 91t26 79q0 56 -39.5 93.5t-98.5 37.5q-45 0 -77 -20 t-50 -59t-19 -94h-174z" />
<glyph unicode="&#xbe;" horiz-adv-x="1685" d="M8 873h176q9 -63 51 -99.5t106 -36.5q42 0 76 17.5t53.5 49.5t19.5 71q0 65 -51.5 102.5t-139.5 37.5h-42v165q62 1 98 9.5t52 26.5t16 48q0 33 -24 55t-62 22t-57.5 -19t-26.5 -62h-179q12 118 83.5 177.5t177.5 59.5q76 0 136.5 -31t94.5 -86.5t34 -125.5 q0 -96 -68 -149q42 -20 71.5 -52.5t45 -76t15.5 -95.5q0 -131 -91.5 -217t-231.5 -86q-70 0 -130.5 22t-103.5 60.5t-69.5 93t-29.5 119.5zM502 0l614 1483h190l-613 -1483h-191zM1015 132v135l418 622h149v-604h96v-153h-96v-132h-177v132h-390zM1200 285h205v309z" />
<glyph unicode="&#xbf;" horiz-adv-x="1123" d="M151 62q0 101 44.5 180.5t159.5 178.5q58 51 84 88.5t36 87t11 140.5h267q0 -98 -10 -163t-38 -125t-74 -110.5t-123 -114.5q-91 -75 -91 -170q0 -82 54 -134t138 -52q81 0 126 49t58 152h266q-9 -114 -48 -204t-100.5 -147t-140 -86.5t-168.5 -29.5q-127 0 -230.5 60 t-162 165t-58.5 235zM486 855v257h267v-257h-267z" />
<glyph unicode="&#xc0;" horiz-adv-x="1484" d="M14 0l618 1483h217l622 -1483h-303l-159 383h-527l-164 -383h-304zM369 1804l108 185l450 -269l-102 -157zM582 646h318l-159 450z" />
<glyph unicode="&#xc1;" horiz-adv-x="1484" d="M14 0l618 1483h217l622 -1483h-303l-159 383h-527l-164 -383h-304zM554 1720l450 269l108 -185l-455 -241zM582 646h318l-159 450z" />
<glyph unicode="&#xc2;" horiz-adv-x="1484" d="M14 0l618 1483h217l622 -1483h-303l-159 383h-527l-164 -383h-304zM341 1618l295 276h215l291 -276h-291l-106 128l-109 -128h-295zM582 646h318l-159 450z" />
<glyph unicode="&#xc3;" horiz-adv-x="1484" d="M14 0l618 1483h217l622 -1483h-303l-159 383h-527l-164 -383h-304zM408 1781q35 35 66 55.5t64.5 29.5t75.5 9q24 0 105.5 -25t109.5 -25q75 0 134 67l109 -162q-33 -40 -62.5 -64t-60 -35t-66.5 -11q-25 0 -117 25t-109 25q-37 0 -60 -8.5t-82 -41.5zM582 646h318 l-159 450z" />
<glyph unicode="&#xc4;" horiz-adv-x="1484" d="M14 0l618 1483h217l622 -1483h-303l-159 383h-527l-164 -383h-304zM387 1624v266h268v-266h-268zM582 646h318l-159 450zM808 1624v266h268v-266h-268z" />
<glyph unicode="&#xc5;" horiz-adv-x="1484" d="M14 0l618 1483h217l622 -1483h-303l-159 383h-527l-164 -383h-304zM514 1782.5q0 94.5 66.5 160.5t162.5 66q93 0 158.5 -66.5t65.5 -159.5q0 -95 -66.5 -161.5t-159.5 -66.5q-95 0 -161 66.5t-66 161zM582 646h318l-159 450zM661 1783q0 -33 23.5 -57t56.5 -24t56.5 24 t23.5 57t-23.5 56.5t-56.5 23.5t-56.5 -23.5t-23.5 -56.5z" />
<glyph unicode="&#xc6;" horiz-adv-x="1806" d="M34 0l977 1483h680v-263h-437v-349h416v-262h-416v-346h437v-263h-712v383h-389l-224 -383h-332zM749 646h230v384z" />
<glyph unicode="&#xc7;" horiz-adv-x="1565" d="M60 747q0 154 60.5 295.5t163 243.5t244 162.5t295.5 60.5q152 0 287.5 -52.5t242.5 -155t172 -244.5h-307q-75 98 -167.5 143t-221.5 45q-104 0 -196 -39t-156.5 -106t-102 -159.5t-37.5 -195.5q0 -102 39.5 -195.5t106.5 -161.5t159 -108.5t193 -40.5q107 0 192.5 40 t174.5 135h323q-85 -197 -261.5 -315t-396.5 -125l-44 -91q40 15 58 15q74 0 128 -60t54 -143q0 -89 -53 -143t-139 -54q-76 0 -132.5 47t-68.5 122h123q25 -58 76 -58q32 0 55.5 26.5t23.5 63.5q0 24 -10.5 44t-28.5 32t-40 12q-21 0 -38 -11.5t-38 -42.5l-105 52l78 192 q-147 14 -277.5 79.5t-225 167t-149 238t-54.5 285.5z" />
<glyph unicode="&#xc8;" horiz-adv-x="1042" d="M136 0v1483h797v-263h-521v-349h499v-262h-499v-346h521v-263h-797zM165 1804l108 185l449 -269l-102 -157z" />
<glyph unicode="&#xc9;" horiz-adv-x="1042" d="M136 0v1483h797v-263h-521v-349h499v-262h-499v-346h521v-263h-797zM349 1720l450 269l108 -185l-455 -241z" />
<glyph unicode="&#xca;" horiz-adv-x="1042" d="M136 0v1483h797v-263h-521v-349h499v-262h-499v-346h521v-263h-797zM136 1618l295 276h215l291 -276h-291l-106 128l-109 -128h-295z" />
<glyph unicode="&#xcb;" horiz-adv-x="1042" d="M136 0v1483h797v-263h-521v-349h499v-262h-499v-346h521v-263h-797zM182 1624v266h268v-266h-268zM604 1624v266h267v-266h-267z" />
<glyph unicode="&#xcc;" horiz-adv-x="561" d="M-44 1804l109 185l449 -269l-102 -157zM136 0v1483h276v-1483h-276z" />
<glyph unicode="&#xcd;" horiz-adv-x="561" d="M34 1720l450 269l108 -185l-456 -241zM136 0v1483h276v-1483h-276z" />
<glyph unicode="&#xce;" horiz-adv-x="561" d="M-124 1618l295 276h214l291 -276h-291l-106 128l-108 -128h-295zM136 0v1483h276v-1483h-276z" />
<glyph unicode="&#xcf;" horiz-adv-x="561" d="M-78 1624v266h267v-266h-267zM136 0v1483h276v-1483h-276zM343 1624v266h268v-266h-268z" />
<glyph unicode="&#xd0;" horiz-adv-x="1488" d="M28 632v215h192v636h340q351 0 526 -106q155 -93 239 -260t84 -380q0 -224 -96 -397t-267 -258q-91 -44 -200.5 -63t-279.5 -19h-346v632h-192zM496 263h60q242 0 361 66q100 55 157.5 165t57.5 245q0 142 -60.5 254.5t-165.5 166.5q-44 23 -92.5 35.5t-111.5 18.5 t-152 6h-54v-373h309v-215h-309v-369z" />
<glyph unicode="&#xd1;" horiz-adv-x="1484" d="M136 0v1483h314l613 -1079v1079h276v-1483h-307l-620 1078v-1078h-276zM406 1781q36 35 66.5 55.5t64 29.5t75.5 9q24 0 105.5 -25t109.5 -25q75 0 134 67l109 -162q-32 -40 -62 -64t-60.5 -35t-66.5 -11q-25 0 -116.5 25t-109.5 25q-37 0 -60 -8.5t-81 -41.5z" />
<glyph unicode="&#xd2;" horiz-adv-x="1685" d="M60 741q0 160 60.5 302.5t164.5 244.5t249.5 161.5t308.5 59.5q156 0 297 -60.5t243 -163t162 -244.5t60 -298q0 -160 -59 -302.5t-160.5 -245t-243.5 -162t-301 -59.5q-161 0 -305.5 60t-249 162.5t-165.5 244.5t-61 300zM337 741q0 -104 39 -197t106 -160t160 -106 t197 -39q138 0 250.5 65t176 179.5t63.5 255.5q0 105 -38 199t-103.5 161t-156.5 106.5t-192 39.5q-105 0 -198.5 -39t-160 -105.5t-105 -160t-38.5 -199.5zM471 1804l109 185l450 -269l-103 -157z" />
<glyph unicode="&#xd3;" horiz-adv-x="1685" d="M60 741q0 160 60.5 302.5t164.5 244.5t249.5 161.5t308.5 59.5q156 0 297 -60.5t243 -163t162 -244.5t60 -298q0 -160 -59 -302.5t-160.5 -245t-243.5 -162t-301 -59.5q-161 0 -305.5 60t-249 162.5t-165.5 244.5t-61 300zM337 741q0 -104 39 -197t106 -160t160 -106 t197 -39q138 0 250.5 65t176 179.5t63.5 255.5q0 105 -38 199t-103.5 161t-156.5 106.5t-192 39.5q-105 0 -198.5 -39t-160 -105.5t-105 -160t-38.5 -199.5zM657 1720l448 269l109 -185l-455 -241z" />
<glyph unicode="&#xd4;" horiz-adv-x="1685" d="M60 741q0 160 60.5 302.5t164.5 244.5t249.5 161.5t308.5 59.5q156 0 297 -60.5t243 -163t162 -244.5t60 -298q0 -160 -59 -302.5t-160.5 -245t-243.5 -162t-301 -59.5q-161 0 -305.5 60t-249 162.5t-165.5 244.5t-61 300zM337 741q0 -104 39 -197t106 -160t160 -106 t197 -39q138 0 250.5 65t176 179.5t63.5 255.5q0 105 -38 199t-103.5 161t-156.5 106.5t-192 39.5q-105 0 -198.5 -39t-160 -105.5t-105 -160t-38.5 -199.5zM444 1618l295 276h215l291 -276h-291l-107 128l-108 -128h-295z" />
<glyph unicode="&#xd5;" horiz-adv-x="1685" d="M60 741q0 160 60.5 302.5t164.5 244.5t249.5 161.5t308.5 59.5q156 0 297 -60.5t243 -163t162 -244.5t60 -298q0 -160 -59 -302.5t-160.5 -245t-243.5 -162t-301 -59.5q-161 0 -305.5 60t-249 162.5t-165.5 244.5t-61 300zM337 741q0 -104 39 -197t106 -160t160 -106 t197 -39q138 0 250.5 65t176 179.5t63.5 255.5q0 105 -38 199t-103.5 161t-156.5 106.5t-192 39.5q-105 0 -198.5 -39t-160 -105.5t-105 -160t-38.5 -199.5zM510 1781q52 53 97.5 73.5t108.5 20.5q24 0 105.5 -25t109.5 -25q75 0 134 67l109 -162q-33 -40 -62.5 -64t-60 -35 t-65.5 -11q-25 0 -117.5 25t-109.5 25q-37 0 -59.5 -8t-81.5 -42z" />
<glyph unicode="&#xd6;" horiz-adv-x="1685" d="M60 741q0 160 60.5 302.5t164.5 244.5t249.5 161.5t308.5 59.5q156 0 297 -60.5t243 -163t162 -244.5t60 -298q0 -160 -59 -302.5t-160.5 -245t-243.5 -162t-301 -59.5q-161 0 -305.5 60t-249 162.5t-165.5 244.5t-61 300zM337 741q0 -104 39 -197t106 -160t160 -106 t197 -39q138 0 250.5 65t176 179.5t63.5 255.5q0 105 -38 199t-103.5 161t-156.5 106.5t-192 39.5q-105 0 -198.5 -39t-160 -105.5t-105 -160t-38.5 -199.5zM490 1624v266h267v-266h-267zM911 1624v266h267v-266h-267z" />
<glyph unicode="&#xd7;" horiz-adv-x="1203" d="M155 251l251 251l-251 251l196 197l251 -251l251 251l197 -197l-251 -251l251 -251l-197 -197l-251 251l-251 -251z" />
<glyph unicode="&#xd8;" horiz-adv-x="1685" d="M60 743q0 157 61 299t165 244t247.5 162.5t301.5 60.5q168 0 331 -70l125 185l190 -132l-123 -182q124 -113 189 -258.5t65 -308.5q0 -160 -59.5 -302.5t-162 -245t-244.5 -162t-301 -59.5q-176 0 -337 72l-121 -176l-192 130l118 174q-121 108 -187 257.5t-66 311.5z M337 743q0 -92 33.5 -179.5t96.5 -159.5l546 810q-89 31 -178 31q-102 0 -194.5 -39.5t-159 -106t-105.5 -160t-39 -196.5zM661 270q85 -31 182 -31q138 0 251 65t177 179.5t64 255.5q0 196 -129 345z" />
<glyph unicode="&#xd9;" d="M136 544v939h276v-939q0 -68 10 -120.5t28.5 -87t47 -56.5t63 -31.5t77.5 -9.5q53 0 93 15t70.5 49.5t46 94.5t15.5 146v939h275v-939q0 -139 -37 -248.5t-104 -179.5t-158.5 -106t-202.5 -36q-110 0 -201 36.5t-158 106.5t-104 179t-37 248zM267 1804l108 185l450 -269 l-103 -157z" />
<glyph unicode="&#xda;" d="M136 544v939h276v-939q0 -68 10 -120.5t28.5 -87t47 -56.5t63 -31.5t77.5 -9.5q53 0 93 15t70.5 49.5t46 94.5t15.5 146v939h275v-939q0 -139 -37 -248.5t-104 -179.5t-158.5 -106t-202.5 -36q-110 0 -201 36.5t-158 106.5t-104 179t-37 248zM452 1720l450 269l107 -185 l-455 -241z" />
<glyph unicode="&#xdb;" d="M136 544v939h276v-939q0 -68 10 -120.5t28.5 -87t47 -56.5t63 -31.5t77.5 -9.5q53 0 93 15t70.5 49.5t46 94.5t15.5 146v939h275v-939q0 -139 -37 -248.5t-104 -179.5t-158.5 -106t-202.5 -36q-110 0 -201 36.5t-158 106.5t-104 179t-37 248zM239 1618l295 276h215 l291 -276h-291l-107 128l-108 -128h-295z" />
<glyph unicode="&#xdc;" d="M136 544v939h276v-939q0 -68 10 -120.5t28.5 -87t47 -56.5t63 -31.5t77.5 -9.5q53 0 93 15t70.5 49.5t46 94.5t15.5 146v939h275v-939q0 -139 -37 -248.5t-104 -179.5t-158.5 -106t-202.5 -36q-110 0 -201 36.5t-158 106.5t-104 179t-37 248zM285 1624v266h267v-266h-267 zM707 1624v266h266v-266h-266z" />
<glyph unicode="&#xdd;" horiz-adv-x="1243" d="M6 1483h297l329 -682l327 682h297l-488 -935v-548h-274v548zM446 1720l449 269l109 -185l-456 -241z" />
<glyph unicode="&#xde;" horiz-adv-x="1123" d="M136 0v1483h276v-263h92q99 0 167.5 -6.5t118.5 -21t93 -40.5q96 -58 148.5 -160t52.5 -230q0 -129 -52.5 -234.5t-142.5 -161.5q-62 -38 -147 -52.5t-242 -14.5h-88v-299h-276zM412 562h80q92 0 154 12t97 38t49.5 60.5t14.5 84.5q0 115 -69 157.5t-234 42.5h-92v-395z " />
<glyph unicode="&#xdf;" horiz-adv-x="1203" d="M102 0v977q0 249 118.5 390.5t325.5 141.5q91 0 172 -31.5t139.5 -86.5t92.5 -132t34 -163q0 -67 -16 -118t-49.5 -90.5t-85.5 -68.5q170 -39 254.5 -140.5t84.5 -245.5q0 -133 -59.5 -237.5t-166.5 -163t-243 -58.5q-243 0 -356 185v-159h-245zM369 379h165 q13 -69 66.5 -114.5t119.5 -45.5q52 0 94 24.5t66 69t24 99.5q0 57 -17.5 96.5t-59 68t-113.5 42t-180 13.5h-22v237h22q78 0 129 59t51 148q0 86 -46.5 137t-123.5 51q-175 0 -175 -255v-630z" />
<glyph unicode="&#xe0;" horiz-adv-x="1323" d="M60 552q0 63 11 122.5t31 112t50 99.5t67.5 86t83 70t96.5 52t108.5 32.5t118.5 11.5q121 0 208 -41.5t156 -133.5v149h245v-1112h-245v144q-81 -91 -167 -130.5t-203 -39.5q-120 0 -224 43.5t-178 119.5t-116 183.5t-42 231.5zM291 1453l109 185l449 -269l-102 -157z M329 546q0 -146 91.5 -236.5t238.5 -90.5q98 0 172.5 44t112 118t37.5 167q0 152 -91.5 248.5t-234.5 96.5q-144 0 -235 -97.5t-91 -249.5z" />
<glyph unicode="&#xe1;" horiz-adv-x="1323" d="M60 552q0 63 11 122.5t31 112t50 99.5t67.5 86t83 70t96.5 52t108.5 32.5t118.5 11.5q121 0 208 -41.5t156 -133.5v149h245v-1112h-245v144q-81 -91 -167 -130.5t-203 -39.5q-120 0 -224 43.5t-178 119.5t-116 183.5t-42 231.5zM329 546q0 -146 91.5 -236.5t238.5 -90.5 q98 0 172.5 44t112 118t37.5 167q0 152 -91.5 248.5t-234.5 96.5q-144 0 -235 -97.5t-91 -249.5zM475 1369l450 269l109 -185l-456 -241z" />
<glyph unicode="&#xe2;" horiz-adv-x="1323" d="M60 552q0 63 11 122.5t31 112t50 99.5t67.5 86t83 70t96.5 52t108.5 32.5t118.5 11.5q121 0 208 -41.5t156 -133.5v149h245v-1112h-245v144q-81 -91 -167 -130.5t-203 -39.5q-120 0 -224 43.5t-178 119.5t-116 183.5t-42 231.5zM263 1266l295 278h214l291 -278h-291 l-106 129l-108 -129h-295zM329 546q0 -146 91.5 -236.5t238.5 -90.5q98 0 172.5 44t112 118t37.5 167q0 152 -91.5 248.5t-234.5 96.5q-144 0 -235 -97.5t-91 -249.5z" />
<glyph unicode="&#xe3;" horiz-adv-x="1323" d="M60 552q0 63 11 122.5t31 112t50 99.5t67.5 86t83 70t96.5 52t108.5 32.5t118.5 11.5q121 0 208 -41.5t156 -133.5v149h245v-1112h-245v144q-81 -91 -167 -130.5t-203 -39.5q-120 0 -224 43.5t-178 119.5t-116 183.5t-42 231.5zM329 546q0 -146 91.5 -236.5t238.5 -90.5 q98 0 172.5 44t112 118t37.5 167q0 152 -91.5 248.5t-234.5 96.5q-144 0 -235 -97.5t-91 -249.5zM329 1429q53 53 98.5 73.5t108.5 20.5q23 0 105 -25t110 -25q74 0 134 69l109 -163q-49 -59 -93 -85t-96 -26q-26 0 -117.5 25.5t-109.5 25.5q-36 0 -59 -8.5t-82 -42.5z" />
<glyph unicode="&#xe4;" horiz-adv-x="1323" d="M60 552q0 63 11 122.5t31 112t50 99.5t67.5 86t83 70t96.5 52t108.5 32.5t118.5 11.5q121 0 208 -41.5t156 -133.5v149h245v-1112h-245v144q-81 -91 -167 -130.5t-203 -39.5q-120 0 -224 43.5t-178 119.5t-116 183.5t-42 231.5zM309 1272v268h267v-268h-267zM329 546 q0 -146 91.5 -236.5t238.5 -90.5q98 0 172.5 44t112 118t37.5 167q0 152 -91.5 248.5t-234.5 96.5q-144 0 -235 -97.5t-91 -249.5zM730 1272v268h268v-268h-268z" />
<glyph unicode="&#xe5;" horiz-adv-x="1323" d="M60 552q0 63 11 122.5t31 112t50 99.5t67.5 86t83 70t96.5 52t108.5 32.5t118.5 11.5q121 0 208 -41.5t156 -133.5v149h245v-1112h-245v144q-81 -91 -167 -130.5t-203 -39.5q-120 0 -224 43.5t-178 119.5t-116 183.5t-42 231.5zM329 546q0 -146 91.5 -236.5t238.5 -90.5 q98 0 172.5 44t112 118t37.5 167q0 152 -91.5 248.5t-234.5 96.5q-144 0 -235 -97.5t-91 -249.5zM435 1425q0 37 11.5 72t32.5 63t49 48.5t63.5 32t72.5 11.5q94 0 159.5 -66.5t65.5 -160.5q0 -95 -66.5 -160.5t-160.5 -65.5t-160.5 65.5t-66.5 160.5zM582 1425 q0 -33 23.5 -56.5t57 -23.5t57 23.5t23.5 56.5t-23.5 56.5t-57.5 23.5q-16 0 -31 -6.5t-25.5 -17t-17 -25.5t-6.5 -31z" />
<glyph unicode="&#xe6;" horiz-adv-x="2166" d="M60 552q0 98 28.5 188t81 161.5t123.5 125t159.5 82.5t185.5 29q107 0 186.5 -32.5t148.5 -103.5v110h245v-110q70 71 150 103.5t185 32.5q115 0 218 -44t177 -118.5t117.5 -178.5t43.5 -219q0 -61 -18 -138h-859q34 -104 117.5 -162.5t195.5 -58.5q74 0 130.5 26.5 t105.5 83.5h291q-33 -100 -111.5 -181.5t-185 -127.5t-218.5 -46q-111 0 -191.5 35t-147.5 112v-121h-245v121q-68 -81 -142.5 -114t-188.5 -33q-123 0 -231 44t-185 120.5t-121.5 183.5t-44.5 230zM329 562q0 -74 24 -138t66.5 -109t103 -70.5t130.5 -25.5 q133 0 222.5 95.5t89.5 239.5q0 71 -24.5 134t-66.5 108t-100.5 71t-124.5 26q-88 0 -161.5 -44t-116 -120.5t-42.5 -166.5zM1218 676h611q-58 217 -301 217q-233 0 -310 -217z" />
<glyph unicode="&#xe7;" d="M60 556q0 96 29 185.5t82.5 161t125.5 124.5t162 82t187 29q193 0 345 -104.5t215 -292.5h-300q-81 152 -260 152q-138 0 -227.5 -94.5t-89.5 -240.5q0 -96 42.5 -174t116.5 -121.5t165 -43.5q82 0 142 35t111 112h300q-66 -179 -201.5 -281.5t-318.5 -110.5l-44 -91 q40 15 59 15q73 0 127.5 -60t54.5 -143q0 -89 -53 -143t-139 -54q-77 0 -133 47t-68 122h122q26 -58 76 -58q16 0 30 7t25 19t17 29t6 35q0 24 -10 44t-28 32t-40 12q-21 0 -37.5 -11.5t-38.5 -42.5l-104 52l78 192q-88 10 -168.5 44t-145 87.5t-112.5 122.5t-74 152.5 t-26 172.5z" />
<glyph unicode="&#xe8;" d="M60 552q0 120 46 229t124 187t186.5 124t229.5 46q82 0 157.5 -20.5t138.5 -58t115 -91.5t88 -119.5t55.5 -144.5t19.5 -164q0 -55 -10 -103h-861q24 -101 106.5 -159.5t201.5 -58.5q82 0 137.5 25t107.5 85h291q-36 -110 -120 -192.5t-190.5 -122.5t-220.5 -40 q-125 0 -236.5 44.5t-192 121.5t-127 184.5t-46.5 227.5zM275 1453l108 185l450 -269l-103 -157zM341 672h616q-25 107 -104 164t-202 57q-119 0 -198.5 -57t-111.5 -164z" />
<glyph unicode="&#xe9;" d="M60 552q0 120 46 229t124 187t186.5 124t229.5 46q82 0 157.5 -20.5t138.5 -58t115 -91.5t88 -119.5t55.5 -144.5t19.5 -164q0 -55 -10 -103h-861q24 -101 106.5 -159.5t201.5 -58.5q82 0 137.5 25t107.5 85h291q-36 -110 -120 -192.5t-190.5 -122.5t-220.5 -40 q-125 0 -236.5 44.5t-192 121.5t-127 184.5t-46.5 227.5zM341 672h616q-25 107 -104 164t-202 57q-119 0 -198.5 -57t-111.5 -164zM460 1369l449 269l108 -185l-455 -241z" />
<glyph unicode="&#xea;" d="M60 552q0 120 46 229t124 187t186.5 124t229.5 46q82 0 157.5 -20.5t138.5 -58t115 -91.5t88 -119.5t55.5 -144.5t19.5 -164q0 -55 -10 -103h-861q24 -101 106.5 -159.5t201.5 -58.5q82 0 137.5 25t107.5 85h291q-36 -110 -120 -192.5t-190.5 -122.5t-220.5 -40 q-125 0 -236.5 44.5t-192 121.5t-127 184.5t-46.5 227.5zM247 1266l295 278h215l291 -278h-291l-106 129l-109 -129h-295zM341 672h616q-25 107 -104 164t-202 57q-119 0 -198.5 -57t-111.5 -164z" />
<glyph unicode="&#xeb;" d="M60 552q0 120 46 229t124 187t186.5 124t229.5 46q82 0 157.5 -20.5t138.5 -58t115 -91.5t88 -119.5t55.5 -144.5t19.5 -164q0 -55 -10 -103h-861q24 -101 106.5 -159.5t201.5 -58.5q82 0 137.5 25t107.5 85h291q-36 -110 -120 -192.5t-190.5 -122.5t-220.5 -40 q-125 0 -236.5 44.5t-192 121.5t-127 184.5t-46.5 227.5zM293 1272v268h267v-268h-267zM341 672h616q-25 107 -104 164t-202 57q-119 0 -198.5 -57t-111.5 -164zM714 1272v268h267v-268h-267z" />
<glyph unicode="&#xec;" horiz-adv-x="481" d="M-80 1453l108 185l449 -269l-102 -157zM109 0v1112h266v-1112h-266z" />
<glyph unicode="&#xed;" horiz-adv-x="481" d="M6 1369l450 269l108 -185l-455 -241zM109 0v1112h266v-1112h-266z" />
<glyph unicode="&#xee;" horiz-adv-x="481" d="M-157 1266l295 278h215l291 -278h-291l-106 129l-109 -129h-295zM109 0v1112h266v-1112h-266z" />
<glyph unicode="&#xef;" horiz-adv-x="481" d="M-111 1272v268h268v-268h-268zM109 0v1112h266v-1112h-266zM311 1272v268h267v-268h-267z" />
<glyph unicode="&#xf0;" d="M60 558q0 109 42.5 211.5t114 178.5t171.5 122t210 46q50 0 135 -18l-57 56q-56 56 -98 93l-174 -81l-81 92l156 75l-140 114l207 70l32 -22l60 -46q1 0 38 -26l175 80l82 -98l-156 -70q255 -220 360.5 -395.5t105.5 -369.5q0 -123 -46 -234t-124.5 -190.5t-188 -125.5 t-231.5 -46q-96 0 -186.5 29.5t-163.5 83.5t-128 126t-85 161t-30 184zM329 560q0 -94 43 -172.5t117.5 -123.5t163.5 -45q86 0 160 45t117 122.5t43 169.5q0 90 -43 168t-117.5 123.5t-161.5 45.5q-65 0 -124 -27t-102.5 -71.5t-69.5 -106t-26 -128.5z" />
<glyph unicode="&#xf1;" horiz-adv-x="1203" d="M109 0v1112h246v-107q49 48 97 77t100.5 42.5t115.5 13.5q116 0 204.5 -41.5t142.5 -119.5q45 -65 63 -148.5t18 -232.5v-596h-267v544q0 87 -9.5 150t-26.5 101t-45 60t-58.5 30t-73.5 8q-63 0 -114 -26t-83 -76q-25 -40 -34.5 -97t-9.5 -170v-524h-266zM269 1429 q52 53 97.5 73.5t108.5 20.5q24 0 106 -25t110 -25q74 0 134 69l108 -163q-49 -59 -92.5 -85t-95.5 -26q-25 0 -117.5 25.5t-110.5 25.5q-36 0 -58 -8.5t-82 -42.5z" />
<glyph unicode="&#xf2;" d="M60 556q0 117 47 225t126 186t188 124.5t228 46.5q123 0 233.5 -46t189.5 -124.5t125 -188t46 -231.5q0 -115 -47.5 -221.5t-127 -183.5t-189 -123t-228.5 -46q-120 0 -229.5 46t-188.5 124t-126 185.5t-47 226.5zM277 1453l108 185l450 -269l-102 -157zM329 560 q0 -94 43 -172.5t117.5 -123.5t163.5 -45q86 0 160 45t117 122.5t43 169.5q0 90 -43 168t-117.5 123.5t-161.5 45.5q-65 0 -124 -27t-102.5 -71.5t-69.5 -106t-26 -128.5z" />
<glyph unicode="&#xf3;" d="M60 556q0 117 47 225t126 186t188 124.5t228 46.5q123 0 233.5 -46t189.5 -124.5t125 -188t46 -231.5q0 -115 -47.5 -221.5t-127 -183.5t-189 -123t-228.5 -46q-120 0 -229.5 46t-188.5 124t-126 185.5t-47 226.5zM329 560q0 -94 43 -172.5t117.5 -123.5t163.5 -45 q86 0 160 45t117 122.5t43 169.5q0 90 -43 168t-117.5 123.5t-161.5 45.5q-65 0 -124 -27t-102.5 -71.5t-69.5 -106t-26 -128.5zM462 1369l449 269l108 -185l-455 -241z" />
<glyph unicode="&#xf4;" d="M60 556q0 117 47 225t126 186t188 124.5t228 46.5q123 0 233.5 -46t189.5 -124.5t125 -188t46 -231.5q0 -115 -47.5 -221.5t-127 -183.5t-189 -123t-228.5 -46q-120 0 -229.5 46t-188.5 124t-126 185.5t-47 226.5zM249 1266l295 278h215l291 -278h-291l-106 129 l-109 -129h-295zM329 560q0 -94 43 -172.5t117.5 -123.5t163.5 -45q86 0 160 45t117 122.5t43 169.5q0 90 -43 168t-117.5 123.5t-161.5 45.5q-65 0 -124 -27t-102.5 -71.5t-69.5 -106t-26 -128.5z" />
<glyph unicode="&#xf5;" d="M60 556q0 117 47 225t126 186t188 124.5t228 46.5q123 0 233.5 -46t189.5 -124.5t125 -188t46 -231.5q0 -115 -47.5 -221.5t-127 -183.5t-189 -123t-228.5 -46q-120 0 -229.5 46t-188.5 124t-126 185.5t-47 226.5zM316 1429q35 36 66 56t64 29t75 9q24 0 106 -25t110 -25 q74 0 134 69l108 -163q-33 -40 -62 -64t-60 -35.5t-66 -11.5q-25 0 -117.5 25.5t-109.5 25.5q-26 0 -43.5 -4t-36 -13t-61.5 -34zM329 560q0 -94 43 -172.5t117.5 -123.5t163.5 -45q86 0 160 45t117 122.5t43 169.5q0 90 -43 168t-117.5 123.5t-161.5 45.5q-65 0 -124 -27 t-102.5 -71.5t-69.5 -106t-26 -128.5z" />
<glyph unicode="&#xf6;" d="M60 556q0 117 47 225t126 186t188 124.5t228 46.5q123 0 233.5 -46t189.5 -124.5t125 -188t46 -231.5q0 -115 -47.5 -221.5t-127 -183.5t-189 -123t-228.5 -46q-120 0 -229.5 46t-188.5 124t-126 185.5t-47 226.5zM295 1272v268h267v-268h-267zM329 560q0 -94 43 -172.5 t117.5 -123.5t163.5 -45q86 0 160 45t117 122.5t43 169.5q0 90 -43 168t-117.5 123.5t-161.5 45.5q-65 0 -124 -27t-102.5 -71.5t-69.5 -106t-26 -128.5zM716 1272v268h268v-268h-268z" />
<glyph unicode="&#xf7;" horiz-adv-x="1203" d="M109 364v276h987v-276h-987zM473 130q0 54 37.5 91.5t91 37.5t91 -37.5t37.5 -91.5q0 -34 -17 -64t-47 -47t-64 -17q-53 0 -91 37.5t-38 90.5zM473 873q0 53 38 91t91 38t90.5 -38t37.5 -91q0 -54 -37.5 -91t-91 -37t-91 37t-37.5 91z" />
<glyph unicode="&#xf8;" horiz-adv-x="1323" d="M60 556q0 118 47 226t127 186t190 124t231 46q114 0 218 -42l104 154l174 -116l-101 -146q195 -180 195 -432q0 -119 -47 -226.5t-126 -185.5t-188 -124t-229 -46q-131 0 -253 56l-113 -164l-170 114l114 169q-55 52 -94 117t-59 139t-20 151zM329 558q0 -101 54 -187 l345 512q-38 10 -75 10q-65 0 -125 -27t-103.5 -71.5t-69.5 -107t-26 -129.5zM544 239q57 -20 109 -20q87 0 161.5 45t117.5 122t43 168q0 118 -71 214z" />
<glyph unicode="&#xf9;" horiz-adv-x="1203" d="M109 515v597h266v-544q0 -86 10 -149t27 -101.5t44.5 -61t58 -30t71.5 -7.5q45 0 84 12t69 35t50 55q15 26 24 59t13.5 83t4.5 125v524h267v-1112h-247v107q-75 -74 -146.5 -103.5t-172.5 -29.5q-423 0 -423 541zM233 1453l108 185l450 -269l-103 -157z" />
<glyph unicode="&#xfa;" horiz-adv-x="1203" d="M109 515v597h266v-544q0 -86 10 -149t27 -101.5t44.5 -61t58 -30t71.5 -7.5q45 0 84 12t69 35t50 55q15 26 24 59t13.5 83t4.5 125v524h267v-1112h-247v107q-75 -74 -146.5 -103.5t-172.5 -29.5q-423 0 -423 541zM417 1369l450 269l108 -185l-456 -241z" />
<glyph unicode="&#xfb;" horiz-adv-x="1203" d="M109 515v597h266v-544q0 -86 10 -149t27 -101.5t44.5 -61t58 -30t71.5 -7.5q45 0 84 12t69 35t50 55q15 26 24 59t13.5 83t4.5 125v524h267v-1112h-247v107q-75 -74 -146.5 -103.5t-172.5 -29.5q-423 0 -423 541zM205 1266l295 278h214l291 -278h-291l-105 129l-109 -129 h-295z" />
<glyph unicode="&#xfc;" horiz-adv-x="1203" d="M109 515v597h266v-544q0 -86 10 -149t27 -101.5t44.5 -61t58 -30t71.5 -7.5q45 0 84 12t69 35t50 55q15 26 24 59t13.5 83t4.5 125v524h267v-1112h-247v107q-75 -74 -146.5 -103.5t-172.5 -29.5q-423 0 -423 541zM251 1272v268h266v-268h-266zM672 1272v268h267v-268 h-267z" />
<glyph unicode="&#xfd;" horiz-adv-x="1163" d="M12 1112h306l246 -721l269 721h307l-642 -1483h-287l208 475zM389 1369l450 269l109 -185l-456 -241z" />
<glyph unicode="&#xfe;" horiz-adv-x="1323" d="M109 -371v1854h266v-489q132 144 345 144q119 0 222 -44t175 -120.5t113.5 -185t41.5 -232.5q0 -126 -41.5 -234t-114 -184.5t-175 -120t-221.5 -43.5q-212 0 -345 145v-490h-266zM360 560q0 -148 92 -244.5t232 -96.5q135 0 227.5 96.5t92.5 240.5q0 70 -25 132.5 t-67.5 107.5t-101.5 71t-126 26q-138 0 -231 -96t-93 -237z" />
<glyph unicode="&#xff;" horiz-adv-x="1163" d="M12 1112h306l246 -721l269 721h307l-642 -1483h-287l208 475zM222 1272v268h268v-268h-268zM644 1272v268h267v-268h-267z" />
<glyph unicode="&#x100;" horiz-adv-x="1484" d="M14 0l618 1483h217l622 -1483h-303l-159 383h-527l-164 -383h-304zM467 1656v200h556v-200h-556zM582 646h318l-159 450z" />
<glyph unicode="&#x101;" horiz-adv-x="1323" d="M60 552q0 63 11 122.5t31 112t50 99.5t67.5 86t83 70t96.5 52t108.5 32.5t118.5 11.5q121 0 208 -41.5t156 -133.5v149h245v-1112h-245v144q-81 -91 -167 -130.5t-203 -39.5q-120 0 -224 43.5t-178 119.5t-116 183.5t-42 231.5zM329 546q0 -146 91.5 -236.5t238.5 -90.5 q98 0 172.5 44t112 118t37.5 167q0 152 -91.5 248.5t-234.5 96.5q-144 0 -235 -97.5t-91 -249.5zM389 1304v201h557v-201h-557z" />
<glyph unicode="&#x102;" horiz-adv-x="1484" d="M14 0l618 1483h217l622 -1483h-303l-159 383h-527l-164 -383h-304zM410 1896h196q36 -86 137 -86q53 0 85 22t39 64h205q-2 -61 -27 -113t-68 -88.5t-103 -56.5t-131 -20q-99 0 -172 32.5t-114.5 95.5t-46.5 150zM582 646h318l-159 450z" />
<glyph unicode="&#x103;" horiz-adv-x="1323" d="M60 552q0 63 11 122.5t31 112t50 99.5t67.5 86t83 70t96.5 52t108.5 32.5t118.5 11.5q121 0 208 -41.5t156 -133.5v149h245v-1112h-245v144q-81 -91 -167 -130.5t-203 -39.5q-120 0 -224 43.5t-178 119.5t-116 183.5t-42 231.5zM329 546q0 -146 91.5 -236.5t238.5 -90.5 q98 0 172.5 44t112 118t37.5 167q0 152 -91.5 248.5t-234.5 96.5q-144 0 -235 -97.5t-91 -249.5zM329 1545h197q37 -86 136 -86q53 0 85.5 22.5t39.5 63.5h205q-5 -125 -95.5 -202t-234.5 -77q-149 0 -236.5 73.5t-96.5 205.5z" />
<glyph unicode="&#x104;" horiz-adv-x="1484" d="M14 0l618 1483h217l622 -1483q-62 -20 -107.5 -54t-65 -67t-19.5 -61q0 -57 16.5 -82t58.5 -25q57 0 117 26v-201q-93 -38 -152 -38q-105 0 -179.5 66t-74.5 166q0 69 44.5 141t116.5 129h-58l-159 383h-527l-164 -383h-304zM582 646h318l-159 450z" />
<glyph unicode="&#x105;" horiz-adv-x="1323" d="M60 552q0 63 11 122.5t31 112t50 99.5t67.5 86t83 70t96.5 52t108.5 32.5t118.5 11.5q121 0 208 -41.5t156 -133.5v149h245v-1112q-63 -20 -108.5 -54t-65 -67t-19.5 -61q0 -38 7 -60.5t24 -34.5t45 -12q57 0 117 26v-201q-94 -38 -153 -38q-105 0 -179 66t-74 166 q0 69 44.5 141t116.5 129v144q-81 -91 -167 -130.5t-203 -39.5q-120 0 -224 43.5t-178 119.5t-116 183.5t-42 231.5zM329 546q0 -146 91.5 -236.5t238.5 -90.5q98 0 172.5 44t112 118t37.5 167q0 152 -91.5 248.5t-234.5 96.5q-144 0 -235 -97.5t-91 -249.5z" />
<glyph unicode="&#x106;" horiz-adv-x="1565" d="M60 747q0 154 60.5 295.5t163 243.5t244 162.5t295.5 60.5q152 0 287.5 -52.5t242.5 -155t172 -244.5h-307q-75 98 -167.5 143t-221.5 45q-104 0 -196 -39t-156.5 -106t-102 -159.5t-37.5 -195.5q0 -102 39.5 -195.5t106.5 -161.5t159 -108.5t193 -40.5q107 0 192.5 40 t174.5 135h323q-88 -203 -272.5 -321.5t-411.5 -118.5q-160 0 -304.5 61t-249 164.5t-166 246.5t-61.5 301zM636 1720l450 269l109 -185l-456 -241z" />
<glyph unicode="&#x107;" d="M60 556q0 96 29 185.5t82.5 161t125.5 124.5t162 82t187 29q193 0 345 -104.5t215 -292.5h-300q-81 152 -260 152q-138 0 -227.5 -94.5t-89.5 -240.5q0 -96 42.5 -174t116.5 -121.5t165 -43.5q82 0 142 35t111 112h300q-69 -187 -213 -289.5t-338 -102.5 q-122 0 -232 45.5t-189.5 123.5t-126.5 186t-47 227zM460 1369l449 269l108 -185l-455 -241z" />
<glyph unicode="&#x108;" horiz-adv-x="1565" d="M60 747q0 154 60.5 295.5t163 243.5t244 162.5t295.5 60.5q152 0 287.5 -52.5t242.5 -155t172 -244.5h-307q-75 98 -167.5 143t-221.5 45q-104 0 -196 -39t-156.5 -106t-102 -159.5t-37.5 -195.5q0 -102 39.5 -195.5t106.5 -161.5t159 -108.5t193 -40.5q107 0 192.5 40 t174.5 135h323q-88 -203 -272.5 -321.5t-411.5 -118.5q-160 0 -304.5 61t-249 164.5t-166 246.5t-61.5 301zM423 1618l295 276h215l291 -276h-291l-106 128l-109 -128h-295z" />
<glyph unicode="&#x109;" d="M60 556q0 96 29 185.5t82.5 161t125.5 124.5t162 82t187 29q193 0 345 -104.5t215 -292.5h-300q-81 152 -260 152q-138 0 -227.5 -94.5t-89.5 -240.5q0 -96 42.5 -174t116.5 -121.5t165 -43.5q82 0 142 35t111 112h300q-69 -187 -213 -289.5t-338 -102.5 q-122 0 -232 45.5t-189.5 123.5t-126.5 186t-47 227zM247 1266l295 278h215l291 -278h-291l-106 129l-109 -129h-295z" />
<glyph unicode="&#x10a;" horiz-adv-x="1565" d="M60 747q0 154 60.5 295.5t163 243.5t244 162.5t295.5 60.5q152 0 287.5 -52.5t242.5 -155t172 -244.5h-307q-75 98 -167.5 143t-221.5 45q-104 0 -196 -39t-156.5 -106t-102 -159.5t-37.5 -195.5q0 -102 39.5 -195.5t106.5 -161.5t159 -108.5t193 -40.5q107 0 192.5 40 t174.5 135h323q-88 -203 -272.5 -321.5t-411.5 -118.5q-160 0 -304.5 61t-249 164.5t-166 246.5t-61.5 301zM691 1624v266h266v-266h-266z" />
<glyph unicode="&#x10b;" d="M60 556q0 96 29 185.5t82.5 161t125.5 124.5t162 82t187 29q193 0 345 -104.5t215 -292.5h-300q-81 152 -260 152q-138 0 -227.5 -94.5t-89.5 -240.5q0 -96 42.5 -174t116.5 -121.5t165 -43.5q82 0 142 35t111 112h300q-69 -187 -213 -289.5t-338 -102.5 q-122 0 -232 45.5t-189.5 123.5t-126.5 186t-47 227zM514 1272v268h267v-268h-267z" />
<glyph unicode="&#x10c;" horiz-adv-x="1565" d="M60 747q0 154 60.5 295.5t163 243.5t244 162.5t295.5 60.5q152 0 287.5 -52.5t242.5 -155t172 -244.5h-307q-75 98 -167.5 143t-221.5 45q-104 0 -196 -39t-156.5 -106t-102 -159.5t-37.5 -195.5q0 -102 39.5 -195.5t106.5 -161.5t159 -108.5t193 -40.5q107 0 192.5 40 t174.5 135h323q-88 -203 -272.5 -321.5t-411.5 -118.5q-160 0 -304.5 61t-249 164.5t-166 246.5t-61.5 301zM423 1894h291l107 -128l108 128h295l-295 -276h-215z" />
<glyph unicode="&#x10d;" d="M60 556q0 96 29 185.5t82.5 161t125.5 124.5t162 82t187 29q193 0 345 -104.5t215 -292.5h-300q-81 152 -260 152q-138 0 -227.5 -94.5t-89.5 -240.5q0 -96 42.5 -174t116.5 -121.5t165 -43.5q82 0 142 35t111 112h300q-69 -187 -213 -289.5t-338 -102.5 q-122 0 -232 45.5t-189.5 123.5t-126.5 186t-47 227zM247 1544h291l106 -129l109 129h295l-295 -278h-215z" />
<glyph unicode="&#x10e;" horiz-adv-x="1404" d="M136 0v1483h339q352 0 527 -106q77 -46 137.5 -112.5t101.5 -147.5t62.5 -177t21.5 -201q0 -224 -96 -398t-268 -259q-90 -44 -200 -63t-279 -19h-346zM303 1894h291l107 -128l107 128h295l-295 -276h-214zM412 263h59q243 0 362 66q99 55 157 165.5t58 244.5 q0 95 -27.5 177.5t-78.5 145t-121 98.5q-64 33 -144 46.5t-211 13.5h-54v-957z" />
<glyph unicode="&#x10f;" horiz-adv-x="1323" d="M60 558q0 122 43.5 232.5t118 190t177.5 125.5t217 46q105 0 196.5 -37t150.5 -102v470h267v-1483h-244v144q-80 -90 -167 -130t-201 -40q-116 0 -219.5 45t-178 122.5t-117.5 186t-43 230.5zM329 570q0 -97 44 -177.5t120 -127t168 -46.5q135 0 229 99t94 244 q0 146 -95 245.5t-234 99.5q-137 0 -231.5 -97.5t-94.5 -239.5zM1339 1098l116 385h209l-117 -385h-208z" />
<glyph unicode="&#x110;" horiz-adv-x="1488" d="M28 632v215h192v636h340q351 0 526 -106q155 -93 239 -260t84 -380q0 -224 -96 -397t-267 -258q-91 -44 -200.5 -63t-279.5 -19h-346v632h-192zM496 263h60q242 0 361 66q100 55 157.5 165t57.5 245q0 142 -60.5 254.5t-165.5 166.5q-44 23 -92.5 35.5t-111.5 18.5 t-152 6h-54v-373h309v-215h-309v-369z" />
<glyph unicode="&#x111;" horiz-adv-x="1323" d="M60 558q0 122 43.5 232.5t118 190t178 125.5t218.5 46q104 0 195 -37t150 -104v197h-253v175h253v100h267v-100h95v-175h-95v-1208h-244v144q-55 -61 -110.5 -98t-118.5 -54.5t-139 -17.5q-116 0 -219.5 45t-178 122.5t-117.5 186t-43 230.5zM329 570q0 -97 44 -177.5 t120 -127t168 -46.5q135 0 229 99t94 244q0 147 -94.5 246t-234.5 99q-137 0 -231.5 -97.5t-94.5 -239.5z" />
<glyph unicode="&#x112;" horiz-adv-x="1042" d="M136 0v1483h797v-263h-521v-349h499v-262h-499v-346h521v-263h-797zM263 1656v200h556v-200h-556z" />
<glyph unicode="&#x113;" d="M60 552q0 120 46 229t124 187t186.5 124t229.5 46q82 0 157.5 -20.5t138.5 -58t115 -91.5t88 -119.5t55.5 -144.5t19.5 -164q0 -55 -10 -103h-861q24 -101 106.5 -159.5t201.5 -58.5q82 0 137.5 25t107.5 85h291q-36 -110 -120 -192.5t-190.5 -122.5t-220.5 -40 q-125 0 -236.5 44.5t-192 121.5t-127 184.5t-46.5 227.5zM341 672h616q-25 107 -104 164t-202 57q-119 0 -198.5 -57t-111.5 -164zM373 1304v201h556v-201h-556z" />
<glyph unicode="&#x114;" horiz-adv-x="1042" d="M136 0v1483h797v-263h-521v-349h499v-262h-499v-346h521v-263h-797zM205 1896h197q36 -86 136 -86q53 0 85 22t39 64h205q-1 -49 -17.5 -92.5t-45.5 -77.5t-69 -58t-90 -37t-107 -13q-99 0 -172 32.5t-114 95.5t-47 150z" />
<glyph unicode="&#x115;" d="M60 552q0 120 46 229t124 187t186.5 124t229.5 46q82 0 157.5 -20.5t138.5 -58t115 -91.5t88 -119.5t55.5 -144.5t19.5 -164q0 -55 -10 -103h-861q24 -101 106.5 -159.5t201.5 -58.5q82 0 137.5 25t107.5 85h291q-36 -110 -120 -192.5t-190.5 -122.5t-220.5 -40 q-125 0 -236.5 44.5t-192 121.5t-127 184.5t-46.5 227.5zM313 1545h197q36 -86 136 -86q53 0 85 22.5t39 63.5h205q-4 -125 -95 -202t-234 -77q-149 0 -237 73.5t-96 205.5zM341 672h616q-25 107 -104 164t-202 57q-119 0 -198.5 -57t-111.5 -164z" />
<glyph unicode="&#x116;" horiz-adv-x="1042" d="M136 0v1483h797v-263h-521v-349h499v-262h-499v-346h521v-263h-797zM404 1624v266h266v-266h-266z" />
<glyph unicode="&#x117;" d="M60 552q0 120 46 229t124 187t186.5 124t229.5 46q82 0 157.5 -20.5t138.5 -58t115 -91.5t88 -119.5t55.5 -144.5t19.5 -164q0 -55 -10 -103h-861q24 -101 106.5 -159.5t201.5 -58.5q82 0 137.5 25t107.5 85h291q-36 -110 -120 -192.5t-190.5 -122.5t-220.5 -40 q-125 0 -236.5 44.5t-192 121.5t-127 184.5t-46.5 227.5zM341 672h616q-25 107 -104 164t-202 57q-119 0 -198.5 -57t-111.5 -164zM514 1272v268h267v-268h-267z" />
<glyph unicode="&#x118;" horiz-adv-x="1042" d="M136 0v1483h797v-263h-521v-349h499v-262h-499v-346h521v-263q-92 -29 -142 -82.5t-50 -99.5q0 -56 17 -81.5t59 -25.5q56 0 116 26v-201q-93 -38 -152 -38q-105 0 -179 66t-74 166q0 69 44 141.5t116 128.5h-552z" />
<glyph unicode="&#x119;" d="M60 552q0 120 46 229t124 187t186.5 124t229.5 46q82 0 157.5 -20.5t138.5 -58t115 -91.5t88 -119.5t55.5 -144.5t19.5 -164q0 -55 -10 -103h-861q24 -101 106.5 -159.5t201.5 -58.5q82 0 137.5 25t107.5 85h291q-30 -92 -91.5 -163.5t-145.5 -117.5q-41 -22 -72 -43.5 t-60.5 -50t-45.5 -63.5t-16 -73q0 -56 17.5 -81.5t59.5 -25.5q57 0 117 26v-201q-94 -38 -153 -38q-106 0 -179.5 66t-73.5 166q0 62 35 125t95 119h-18q-125 0 -236.5 44.5t-192 121.5t-127 184.5t-46.5 227.5zM341 672h616q-25 107 -104 164t-202 57q-119 0 -198.5 -57 t-111.5 -164z" />
<glyph unicode="&#x11a;" horiz-adv-x="1042" d="M136 0v1483h797v-263h-521v-349h499v-262h-499v-346h521v-263h-797zM136 1894h291l107 -128l108 128h295l-295 -276h-215z" />
<glyph unicode="&#x11b;" d="M60 552q0 120 46 229t124 187t186.5 124t229.5 46q82 0 157.5 -20.5t138.5 -58t115 -91.5t88 -119.5t55.5 -144.5t19.5 -164q0 -55 -10 -103h-861q24 -101 106.5 -159.5t201.5 -58.5q82 0 137.5 25t107.5 85h291q-36 -110 -120 -192.5t-190.5 -122.5t-220.5 -40 q-125 0 -236.5 44.5t-192 121.5t-127 184.5t-46.5 227.5zM247 1544h291l106 -129l109 129h295l-295 -278h-215zM341 672h616q-25 107 -104 164t-202 57q-119 0 -198.5 -57t-111.5 -164z" />
<glyph unicode="&#x11c;" horiz-adv-x="1685" d="M60 745q0 156 61.5 298t166 244t249 162t304 60t308.5 -59.5t259 -165t157 -236.5h-322q-69 96 -173.5 146.5t-234.5 50.5q-108 0 -201 -40t-158 -107.5t-102 -160t-37 -196.5q0 -105 39.5 -198t108 -159.5t163.5 -105.5t203 -39q146 0 260.5 68.5t175.5 192.5h-615v257 h970v-37q0 -149 -60.5 -286.5t-163 -238.5t-246.5 -161t-305 -60q-168 0 -318 60t-257 162.5t-169.5 245.5t-62.5 303zM442 1618l295 276h215l291 -276h-291l-107 128l-108 -128h-295z" />
<glyph unicode="&#x11d;" horiz-adv-x="1323" d="M60 564q0 121 41.5 228t114 182.5t174.5 119.5t219 44q240 0 362 -167v141h255v-901q0 -655 -575 -655q-205 0 -355 93t-218 261h303q59 -65 122.5 -92t157.5 -27q149 0 226 88.5t84 267.5q-78 -92 -163 -132.5t-202 -40.5q-118 0 -219.5 44t-173 121.5t-112.5 187.5 t-41 237zM209 1266l295 278h214l291 -278h-291l-106 129l-108 -129h-295zM329 552q0 -153 85 -243t228 -90t230 91t87 242q0 152 -89 246.5t-232 94.5q-140 0 -224.5 -93.5t-84.5 -247.5z" />
<glyph unicode="&#x11e;" horiz-adv-x="1685" d="M60 745q0 156 61.5 298t166 244t249 162t304 60t308.5 -59.5t259 -165t157 -236.5h-322q-69 96 -173.5 146.5t-234.5 50.5q-108 0 -201 -40t-158 -107.5t-102 -160t-37 -196.5q0 -105 39.5 -198t108 -159.5t163.5 -105.5t203 -39q146 0 260.5 68.5t175.5 192.5h-615v257 h970v-37q0 -149 -60.5 -286.5t-163 -238.5t-246.5 -161t-305 -60q-168 0 -318 60t-257 162.5t-169.5 245.5t-62.5 303zM510 1896h197q36 -86 136 -86q53 0 85 22t39 64h205q-2 -61 -27 -113t-68 -88.5t-103 -56.5t-131 -20q-99 0 -172 32.5t-114.5 95.5t-46.5 150z" />
<glyph unicode="&#x11f;" horiz-adv-x="1323" d="M60 564q0 121 41.5 228t114 182.5t174.5 119.5t219 44q240 0 362 -167v141h255v-901q0 -655 -575 -655q-205 0 -355 93t-218 261h303q59 -65 122.5 -92t157.5 -27q149 0 226 88.5t84 267.5q-78 -92 -163 -132.5t-202 -40.5q-118 0 -219.5 44t-173 121.5t-112.5 187.5 t-41 237zM275 1545h196q37 -86 138 -86q53 0 85 22.5t39 63.5h204q-5 -125 -95 -202t-233 -77q-150 0 -237.5 73.5t-96.5 205.5zM329 552q0 -153 85 -243t228 -90t230 91t87 242q0 152 -89 246.5t-232 94.5q-140 0 -224.5 -93.5t-84.5 -247.5z" />
<glyph unicode="&#x120;" horiz-adv-x="1685" d="M60 745q0 156 61.5 298t166 244t249 162t304 60t308.5 -59.5t259 -165t157 -236.5h-322q-69 96 -173.5 146.5t-234.5 50.5q-108 0 -201 -40t-158 -107.5t-102 -160t-37 -196.5q0 -105 39.5 -198t108 -159.5t163.5 -105.5t203 -39q146 0 260.5 68.5t175.5 192.5h-615v257 h970v-37q0 -149 -60.5 -286.5t-163 -238.5t-246.5 -161t-305 -60q-168 0 -318 60t-257 162.5t-169.5 245.5t-62.5 303zM709 1624v266h266v-266h-266z" />
<glyph unicode="&#x121;" horiz-adv-x="1323" d="M60 564q0 121 41.5 228t114 182.5t174.5 119.5t219 44q240 0 362 -167v141h255v-901q0 -655 -575 -655q-205 0 -355 93t-218 261h303q59 -65 122.5 -92t157.5 -27q149 0 226 88.5t84 267.5q-78 -92 -163 -132.5t-202 -40.5q-118 0 -219.5 44t-173 121.5t-112.5 187.5 t-41 237zM329 552q0 -153 85 -243t228 -90t230 91t87 242q0 152 -89 246.5t-232 94.5q-140 0 -224.5 -93.5t-84.5 -247.5zM475 1272v268h268v-268h-268z" />
<glyph unicode="&#x122;" horiz-adv-x="1685" d="M60 745q0 156 61.5 298t166 244t249 162t304 60t308.5 -59.5t259 -165t157 -236.5h-322q-69 96 -173.5 146.5t-234.5 50.5q-108 0 -201 -40t-158 -107.5t-102 -160t-37 -196.5q0 -105 39.5 -198t108 -159.5t163.5 -105.5t203 -39q146 0 260.5 68.5t175.5 192.5h-615v257 h970v-37q0 -149 -60.5 -286.5t-163 -238.5t-246.5 -161t-305 -60q-168 0 -318 60t-257 162.5t-169.5 245.5t-62.5 303zM632 -492l117 385h208l-116 -385h-209z" />
<glyph unicode="&#x123;" horiz-adv-x="1323" d="M60 564q0 121 41.5 228t114 182.5t174.5 119.5t219 44q240 0 362 -167v141h255v-901q0 -655 -575 -655q-205 0 -355 93t-218 261h303q59 -65 122.5 -92t157.5 -27q149 0 226 88.5t84 267.5q-78 -92 -163 -132.5t-202 -40.5q-118 0 -219.5 44t-173 121.5t-112.5 187.5 t-41 237zM329 552q0 -153 85 -243t228 -90t230 91t87 242q0 152 -89 246.5t-232 94.5q-140 0 -224.5 -93.5t-84.5 -247.5zM446 1266l116 386h208l-115 -386h-209z" />
<glyph unicode="&#x124;" horiz-adv-x="1364" d="M136 0v1483h276v-598h530v598h274v-1483h-274v622h-530v-622h-276zM277 1618l295 276h215l291 -276h-291l-107 128l-108 -128h-295z" />
<glyph unicode="&#x125;" horiz-adv-x="1203" d="M109 0v1483h266v-447q60 54 128.5 79t155.5 25q435 0 435 -512v-628h-267v568q0 118 -21.5 188.5t-68.5 103.5t-126 33q-120 0 -178 -75.5t-58 -253.5v-564h-266zM203 1618l295 276h214l292 -276h-292l-106 128l-108 -128h-295z" />
<glyph unicode="&#x126;" horiz-adv-x="1364" d="M16 1102v200h120v181h276v-181h530v181h274v-181h132v-200h-132v-1102h-274v622h-530v-622h-276v1102h-120zM412 885h530v217h-530v-217z" />
<glyph unicode="&#x127;" horiz-adv-x="1203" d="M-34 1208v201h141v74h266v-74h151v-201h-149l-2 -172q60 54 128.5 79t155.5 25q119 0 211.5 -45.5t148.5 -131.5q41 -62 58 -137.5t17 -197.5v-628h-267v568q0 118 -21.5 188.5t-68.5 103.5t-126 33q-67 0 -118 -27.5t-79 -78.5q-21 -37 -30 -88t-9 -135v-564h-266v1208 h-141z" />
<glyph unicode="&#x128;" horiz-adv-x="561" d="M-58 1781q53 53 98.5 73.5t108.5 20.5q23 0 105 -25t110 -25q74 0 134 67l108 -162q-33 -40 -62.5 -64t-60 -35t-66.5 -11q-25 0 -116.5 25t-109.5 25q-37 0 -60 -8.5t-81 -41.5zM136 0v1483h276v-1483h-276z" />
<glyph unicode="&#x129;" horiz-adv-x="481" d="M-90 1429q53 53 98 73.5t109 20.5q23 0 105 -25t109 -25q74 0 135 69l108 -163q-48 -59 -92 -85t-97 -26q-25 0 -116.5 25.5t-109.5 25.5q-37 0 -59.5 -8.5t-81.5 -42.5zM109 0v1112h266v-1112h-266z" />
<glyph unicode="&#x12a;" horiz-adv-x="561" d="M2 1656v200h556v-200h-556zM136 0v1483h276v-1483h-276z" />
<glyph unicode="&#x12b;" horiz-adv-x="481" d="M-30 1304v201h556v-201h-556zM109 0v1112h266v-1112h-266z" />
<glyph unicode="&#x12c;" horiz-adv-x="561" d="M-56 1896h196q37 -86 137 -86q36 0 62 10t42 29t21 47h204q-5 -125 -95 -201.5t-234 -76.5q-99 0 -171.5 32.5t-114 95.5t-47.5 150zM136 0v1483h276v-1483h-276z" />
<glyph unicode="&#x12d;" horiz-adv-x="481" d="M-90 1545h197q36 -86 136 -86q53 0 85 22.5t40 63.5h204q-4 -125 -95 -202t-234 -77q-149 0 -236.5 73.5t-96.5 205.5zM109 0v1112h266v-1112h-266z" />
<glyph unicode="&#x12e;" horiz-adv-x="561" d="M6 -270q0 69 44.5 141t116.5 129h-31v1483h276v-1483q-92 -29 -142.5 -82.5t-50.5 -99.5q0 -56 17 -81.5t59 -25.5q57 0 117 26v-201q-94 -38 -153 -38q-105 0 -179 66t-74 166z" />
<glyph unicode="&#x12f;" horiz-adv-x="481" d="M-30 -270q0 69 44 141t116 129h-21v1112h266v-1112q-62 -20 -107.5 -54t-65.5 -67t-20 -61q0 -56 17 -81.5t60 -25.5q57 0 116 26v-201q-93 -38 -153 -38q-105 0 -178.5 66t-73.5 166zM109 1272v268h266v-268h-266z" />
<glyph unicode="&#x130;" horiz-adv-x="561" d="M136 0v1483h276v-1483h-276zM142 1624v266h268v-266h-268z" />
<glyph unicode="&#x131;" horiz-adv-x="481" d="M109 0v1112h266v-1112h-266z" />
<glyph unicode="&#x134;" horiz-adv-x="963" d="M18 351h275q26 -112 130 -112q133 0 133 194v1050h275v-1058q0 -209 -107.5 -330t-294.5 -121q-109 0 -196 41t-144.5 127.5t-70.5 208.5zM295 1618l295 276h215l291 -276h-291l-106 128l-109 -128h-295z" />
<glyph unicode="&#x135;" horiz-adv-x="521" d="M-121 1266l295 278h215l291 -278h-291l-106 129l-109 -129h-295zM34 -113q27 5 43 9.5t30 14t20 20.5t10.5 33.5t5.5 48t1 67.5v1032h268v-1038q0 -218 -101.5 -331.5t-276.5 -113.5v258z" />
<glyph unicode="&#x136;" horiz-adv-x="1243" d="M136 0v1483h276v-640l459 640h331l-558 -728l558 -755h-331l-459 653v-653h-276zM431 -492l117 385h209l-117 -385h-209z" />
<glyph unicode="&#x137;" horiz-adv-x="1163" d="M109 0v1483h266v-895l355 524h320l-397 -544l461 -568h-359l-380 519v-519h-266zM355 -492l116 385h209l-116 -385h-209z" />
<glyph unicode="&#x139;" horiz-adv-x="882" d="M34 1720l450 269l108 -185l-456 -241zM136 0v1483h276v-1220h453v-263h-729z" />
<glyph unicode="&#x13a;" horiz-adv-x="481" d="M6 1720l450 269l108 -185l-455 -241zM109 0v1483h266v-1483h-266z" />
<glyph unicode="&#x13b;" horiz-adv-x="882" d="M136 0v1483h276v-1220h453v-263h-729zM291 -492l117 385h208l-116 -385h-209z" />
<glyph unicode="&#x13c;" horiz-adv-x="481" d="M32 -492l117 385h209l-117 -385h-209zM109 0v1483h266v-1483h-266z" />
<glyph unicode="&#x13d;" horiz-adv-x="882" d="M136 0v1483h276v-1220h453v-263h-729zM519 1098l117 385h209l-117 -385h-209z" />
<glyph unicode="&#x13e;" horiz-adv-x="481" d="M109 0v1483h266v-1483h-266zM484 1098l116 385h208l-115 -385h-209z" />
<glyph unicode="&#x13f;" horiz-adv-x="882" d="M136 0v1483h276v-1220h453v-263h-729zM582 636v268h267v-268h-267z" />
<glyph unicode="&#x140;" horiz-adv-x="747" d="M109 0v1483h266v-1483h-266zM482 636v268h267v-268h-267z" />
<glyph unicode="&#x141;" horiz-adv-x="963" d="M28 389v249l192 159v686h276v-531l285 220v-247l-285 -222v-446h454v-257h-730v548z" />
<glyph unicode="&#x142;" horiz-adv-x="641" d="M34 512v198l163 127v646h267v-516l162 127v-199l-162 -127v-768h-267v636z" />
<glyph unicode="&#x143;" horiz-adv-x="1484" d="M136 0v1483h314l613 -1079v1079h276v-1483h-307l-620 1078v-1078h-276zM552 1720l450 269l108 -185l-455 -241z" />
<glyph unicode="&#x144;" horiz-adv-x="1203" d="M109 0v1112h246v-107q49 48 97 77t100.5 42.5t115.5 13.5q116 0 204.5 -41.5t142.5 -119.5q45 -65 63 -148.5t18 -232.5v-596h-267v544q0 87 -9.5 150t-26.5 101t-45 60t-58.5 30t-73.5 8q-63 0 -114 -26t-83 -76q-25 -40 -34.5 -97t-9.5 -170v-524h-266zM416 1369 l449 269l108 -185l-456 -241z" />
<glyph unicode="&#x145;" horiz-adv-x="1484" d="M136 0v1483h314l613 -1079v1079h276v-1483h-307l-620 1078v-1078h-276zM528 -492l116 385h209l-116 -385h-209z" />
<glyph unicode="&#x146;" horiz-adv-x="1203" d="M109 0v1112h246v-107q49 48 97 77t100.5 42.5t115.5 13.5q116 0 204.5 -41.5t142.5 -119.5q45 -65 63 -148.5t18 -232.5v-596h-267v544q0 87 -9.5 150t-26.5 101t-45 60t-58.5 30t-73.5 8q-63 0 -114 -26t-83 -76q-25 -40 -34.5 -97t-9.5 -170v-524h-266zM393 -492 l117 385h208l-116 -385h-209z" />
<glyph unicode="&#x147;" horiz-adv-x="1484" d="M136 0v1483h314l613 -1079v1079h276v-1483h-307l-620 1078v-1078h-276zM339 1894h291l107 -128l108 128h295l-295 -276h-215z" />
<glyph unicode="&#x148;" horiz-adv-x="1203" d="M109 0v1112h246v-107q49 48 97 77t100.5 42.5t115.5 13.5q116 0 204.5 -41.5t142.5 -119.5q45 -65 63 -148.5t18 -232.5v-596h-267v544q0 87 -9.5 150t-26.5 101t-45 60t-58.5 30t-73.5 8q-63 0 -114 -26t-83 -76q-25 -40 -34.5 -97t-9.5 -170v-524h-266zM203 1544h291 l106 -129l109 129h295l-295 -278h-215z" />
<glyph unicode="&#x14a;" horiz-adv-x="1484" d="M136 0v1483h314l613 -1079v1079h276v-1533q0 -210 -108 -331t-294 -121q-109 0 -196 41.5t-144.5 127.5t-70.5 209h275q26 -113 130 -113q56 0 94 42.5t38 102.5v36l-651 1134v-1078h-276z" />
<glyph unicode="&#x14b;" horiz-adv-x="1203" d="M109 0v1112h246v-107q49 48 97 77t100.5 42.5t115.5 13.5q116 0 204.5 -41.5t142.5 -119.5q45 -65 63 -148.5t18 -232.5v-522q0 -218 -101.5 -331.5t-276.5 -113.5v258q27 5 43 9.5t30 14t20.5 20.5t11 33.5t5.5 48t1 67.5v464q0 87 -9.5 150t-26.5 101t-45 60t-58.5 30 t-73.5 8q-63 0 -114 -26t-83 -76q-25 -40 -34.5 -97t-9.5 -170v-524h-266z" />
<glyph unicode="&#x14c;" horiz-adv-x="1685" d="M60 741q0 160 60.5 302.5t164.5 244.5t249.5 161.5t308.5 59.5q156 0 297 -60.5t243 -163t162 -244.5t60 -298q0 -160 -59 -302.5t-160.5 -245t-243.5 -162t-301 -59.5q-161 0 -305.5 60t-249 162.5t-165.5 244.5t-61 300zM337 741q0 -104 39 -197t106 -160t160 -106 t197 -39q138 0 250.5 65t176 179.5t63.5 255.5q0 105 -38 199t-103.5 161t-156.5 106.5t-192 39.5q-105 0 -198.5 -39t-160 -105.5t-105 -160t-38.5 -199.5zM570 1656v200h556v-200h-556z" />
<glyph unicode="&#x14d;" d="M60 556q0 117 47 225t126 186t188 124.5t228 46.5q123 0 233.5 -46t189.5 -124.5t125 -188t46 -231.5q0 -115 -47.5 -221.5t-127 -183.5t-189 -123t-228.5 -46q-120 0 -229.5 46t-188.5 124t-126 185.5t-47 226.5zM329 560q0 -94 43 -172.5t117.5 -123.5t163.5 -45 q86 0 160 45t117 122.5t43 169.5q0 90 -43 168t-117.5 123.5t-161.5 45.5q-65 0 -124 -27t-102.5 -71.5t-69.5 -106t-26 -128.5zM375 1304v201h556v-201h-556z" />
<glyph unicode="&#x14e;" horiz-adv-x="1685" d="M60 741q0 160 60.5 302.5t164.5 244.5t249.5 161.5t308.5 59.5q156 0 297 -60.5t243 -163t162 -244.5t60 -298q0 -160 -59 -302.5t-160.5 -245t-243.5 -162t-301 -59.5q-161 0 -305.5 60t-249 162.5t-165.5 244.5t-61 300zM337 741q0 -104 39 -197t106 -160t160 -106 t197 -39q138 0 250.5 65t176 179.5t63.5 255.5q0 105 -38 199t-103.5 161t-156.5 106.5t-192 39.5q-105 0 -198.5 -39t-160 -105.5t-105 -160t-38.5 -199.5zM512 1896h197q36 -86 136 -86q53 0 85 22t39 64h205q-2 -61 -27 -113t-68 -88.5t-103 -56.5t-131 -20 q-99 0 -172 32.5t-114.5 95.5t-46.5 150z" />
<glyph unicode="&#x14f;" d="M60 556q0 117 47 225t126 186t188 124.5t228 46.5q123 0 233.5 -46t189.5 -124.5t125 -188t46 -231.5q0 -115 -47.5 -221.5t-127 -183.5t-189 -123t-228.5 -46q-120 0 -229.5 46t-188.5 124t-126 185.5t-47 226.5zM316 1545h196q36 -86 137 -86q53 0 84.5 22.5t38.5 63.5 h205q-4 -125 -94.5 -202t-233.5 -77q-149 0 -237 73.5t-96 205.5zM329 560q0 -94 43 -172.5t117.5 -123.5t163.5 -45q86 0 160 45t117 122.5t43 169.5q0 90 -43 168t-117.5 123.5t-161.5 45.5q-65 0 -124 -27t-102.5 -71.5t-69.5 -106t-26 -128.5z" />
<glyph unicode="&#x150;" horiz-adv-x="1685" d="M60 741q0 160 60.5 302.5t164.5 244.5t249.5 161.5t308.5 59.5q156 0 297 -60.5t243 -163t162 -244.5t60 -298q0 -160 -59 -302.5t-160.5 -245t-243.5 -162t-301 -59.5q-161 0 -305.5 60t-249 162.5t-165.5 244.5t-61 300zM337 741q0 -104 39 -197t106 -160t160 -106 t197 -39q138 0 250.5 65t176 179.5t63.5 255.5q0 105 -38 199t-103.5 161t-156.5 106.5t-192 39.5q-105 0 -198.5 -39t-160 -105.5t-105 -160t-38.5 -199.5zM469 1702l422 287l124 -160l-445 -266zM998 1702l423 287l123 -160l-444 -266z" />
<glyph unicode="&#x151;" d="M60 556q0 117 47 225t126 186t188 124.5t228 46.5q123 0 233.5 -46t189.5 -124.5t125 -188t46 -231.5q0 -115 -47.5 -221.5t-127 -183.5t-189 -123t-228.5 -46q-120 0 -229.5 46t-188.5 124t-126 185.5t-47 226.5zM275 1331l422 287l124 -161l-446 -264zM329 560 q0 -94 43 -172.5t117.5 -123.5t163.5 -45q86 0 160 45t117 122.5t43 169.5q0 90 -43 168t-117.5 123.5t-161.5 45.5q-65 0 -124 -27t-102.5 -71.5t-69.5 -106t-26 -128.5zM803 1331l423 287l122 -161l-442 -264z" />
<glyph unicode="&#x152;" horiz-adv-x="2126" d="M76 741q0 162 58 305t157.5 244.5t239 160t298.5 58.5q303 0 469 -190v164h717v-263h-437v-349h415v-262h-415v-346h437v-263h-717v163q-82 -92 -200.5 -140.5t-258.5 -48.5q-160 0 -301.5 58.5t-242.5 160t-160 244.5t-59 304zM353 733q0 -103 37 -194.5t101 -157.5 t153.5 -104t190.5 -38q136 0 244 64.5t168.5 178.5t60.5 257q0 107 -36 200.5t-98.5 160.5t-151 106t-189.5 39q-104 0 -194 -40.5t-152.5 -109.5t-98 -163t-35.5 -199z" />
<glyph unicode="&#x153;" horiz-adv-x="2166" d="M60 556q0 120 45.5 227.5t123 185.5t185.5 123.5t228 45.5q141 0 249.5 -54.5t198.5 -168.5q96 118 200 170.5t240 52.5q125 0 232 -44t182 -119.5t117 -180t42 -224.5q0 -66 -10 -133h-861q33 -101 115.5 -159.5t192.5 -58.5q69 0 136.5 30t106.5 78h284 q-59 -161 -202 -257t-323 -96q-95 0 -179 26t-153.5 77t-119.5 124q-80 -116 -188 -171.5t-251 -55.5q-125 0 -234.5 44.5t-188 121.5t-123.5 185t-45 231zM329 564q0 -150 94 -247.5t238 -97.5q133 0 223.5 96t90.5 239q0 144 -92.5 241.5t-229.5 97.5q-89 0 -163.5 -44 t-117.5 -120t-43 -165zM1220 672h607q-63 221 -302 221q-230 0 -305 -221z" />
<glyph unicode="&#x154;" horiz-adv-x="1163" d="M136 0v1483h428q153 0 243.5 -24.5t161.5 -85.5q77 -65 117 -158.5t40 -207.5q0 -362 -387 -459l401 -548h-339l-389 568v-568h-276zM395 1720l450 269l109 -185l-456 -241zM412 775h134q159 0 231 53.5t72 171.5q0 42 -7.5 73.5t-28.5 60.5t-55.5 47t-90.5 28.5 t-133 10.5h-122v-445z" />
<glyph unicode="&#x155;" horiz-adv-x="641" d="M109 0v1112h244v-108q53 76 104 105t137 29h20v-257q-120 -3 -179.5 -68t-59.5 -195v-618h-266zM167 1369l449 269l108 -185l-455 -241z" />
<glyph unicode="&#x156;" horiz-adv-x="1163" d="M136 0v1483h428q153 0 243.5 -24.5t161.5 -85.5q77 -65 117 -158.5t40 -207.5q0 -362 -387 -459l401 -548h-339l-389 568v-568h-276zM373 -492l117 385h209l-117 -385h-209zM412 775h134q159 0 231 53.5t72 171.5q0 42 -7.5 73.5t-28.5 60.5t-55.5 47t-90.5 28.5 t-133 10.5h-122v-445z" />
<glyph unicode="&#x157;" horiz-adv-x="641" d="M32 -492l117 385h209l-117 -385h-209zM109 0v1112h244v-108q53 76 104 105t137 29h20v-257q-120 -3 -179.5 -68t-59.5 -195v-618h-266z" />
<glyph unicode="&#x158;" horiz-adv-x="1163" d="M136 0v1483h428q153 0 243.5 -24.5t161.5 -85.5q77 -65 117 -158.5t40 -207.5q0 -362 -387 -459l401 -548h-339l-389 568v-568h-276zM182 1894h291l107 -128l108 128h296l-296 -276h-215zM412 775h134q159 0 231 53.5t72 171.5q0 42 -7.5 73.5t-28.5 60.5t-55.5 47 t-90.5 28.5t-133 10.5h-122v-445z" />
<glyph unicode="&#x159;" horiz-adv-x="641" d="M-46 1544h291l106 -129l109 129h295l-295 -278h-215zM109 0v1112h244v-108q53 76 104 105t137 29h20v-257q-120 -3 -179.5 -68t-59.5 -195v-618h-266z" />
<glyph unicode="&#x15a;" horiz-adv-x="1042" d="M28 423h288q17 -184 199 -184q89 0 145 50t56 130q0 30 -7.5 58t-23 52t-36.5 41q-32 25 -66 39.5t-192 74.5q-149 56 -229 160t-80 244q0 115 57.5 212t157 153t217.5 56q119 0 216 -50.5t157 -147t67 -223.5h-286q-6 75 -46.5 116t-109.5 41q-68 0 -110 -42.5 t-42 -108.5q0 -82 82 -135q26 -15 164 -66q112 -42 186.5 -88t118 -101t61.5 -115.5t18 -138.5q0 -99 -37 -187.5t-100 -152t-151 -100t-187 -36.5q-97 0 -182 31t-149.5 88t-105.5 142t-50 188zM327 1720l450 269l108 -185l-456 -241z" />
<glyph unicode="&#x15b;" horiz-adv-x="882" d="M38 353h269q20 -71 55 -102.5t94 -31.5q51 0 85.5 31t34.5 77q0 28 -4 42t-24 31t-56 31.5t-105 37.5q-166 56 -237.5 132t-71.5 198q0 94 49 172t134 122.5t187 44.5q95 0 175.5 -39t132.5 -116t56 -178h-260q-18 88 -104 88q-22 0 -41 -7.5t-32.5 -19.5t-21.5 -29.5 t-8 -37.5q0 -17 0.5 -25.5t8.5 -19t16.5 -16t34 -16t51.5 -19l78 -25.5q173 -54 241 -127t68 -198q0 -105 -52.5 -192t-144 -137t-200.5 -50q-171 0 -279 95t-129 284zM261 1369l449 269l109 -185l-455 -241z" />
<glyph unicode="&#x15c;" horiz-adv-x="1042" d="M28 423h288q17 -184 199 -184q89 0 145 50t56 130q0 30 -7.5 58t-23 52t-36.5 41q-32 25 -66 39.5t-192 74.5q-149 56 -229 160t-80 244q0 115 57.5 212t157 153t217.5 56q119 0 216 -50.5t157 -147t67 -223.5h-286q-6 75 -46.5 116t-109.5 41q-68 0 -110 -42.5 t-42 -108.5q0 -82 82 -135q26 -15 164 -66q112 -42 186.5 -88t118 -101t61.5 -115.5t18 -138.5q0 -99 -37 -187.5t-100 -152t-151 -100t-187 -36.5q-97 0 -182 31t-149.5 88t-105.5 142t-50 188zM115 1618l295 276h214l291 -276h-291l-107 128l-107 -128h-295z" />
<glyph unicode="&#x15d;" horiz-adv-x="882" d="M38 353h269q20 -71 55 -102.5t94 -31.5q51 0 85.5 31t34.5 77q0 28 -4 42t-24 31t-56 31.5t-105 37.5q-166 56 -237.5 132t-71.5 198q0 94 49 172t134 122.5t187 44.5q95 0 175.5 -39t132.5 -116t56 -178h-260q-18 88 -104 88q-22 0 -41 -7.5t-32.5 -19.5t-21.5 -29.5 t-8 -37.5q0 -17 0.5 -25.5t8.5 -19t16.5 -16t34 -16t51.5 -19l78 -25.5q173 -54 241 -127t68 -198q0 -105 -52.5 -192t-144 -137t-200.5 -50q-171 0 -279 95t-129 284zM48 1266l295 278h215l291 -278h-291l-106 129l-109 -129h-295z" />
<glyph unicode="&#x15e;" horiz-adv-x="1042" d="M28 423h288q17 -184 199 -184q89 0 145 50t56 130q0 30 -7.5 58t-23 52t-36.5 41q-32 25 -66 39.5t-192 74.5q-149 56 -229 160t-80 244q0 115 57.5 212t157 153t217.5 56q119 0 216 -50.5t157 -147t67 -223.5h-286q-6 75 -46.5 116t-109.5 41q-68 0 -110 -42.5 t-42 -108.5q0 -82 82 -135q26 -15 164 -66q112 -42 186.5 -88t118 -101t61.5 -115.5t18 -138.5q0 -131 -61 -239t-167 -171.5t-236 -65.5l-44 -91q40 15 58 15q74 0 128 -60t54 -143q0 -58 -24 -103t-67.5 -69.5t-100.5 -24.5q-77 0 -133 47t-68 122h123q25 -58 76 -58 q21 0 39 12t28.5 33t10.5 45q0 37 -22.5 62.5t-55.5 25.5q-21 0 -38 -11.5t-38 -42.5l-105 52l80 195q-166 27 -274 143.5t-125 299.5z" />
<glyph unicode="&#x15f;" horiz-adv-x="882" d="M38 353h269q20 -71 55 -102.5t94 -31.5q51 0 85.5 31t34.5 77q0 28 -4 42t-24 31t-56 31.5t-105 37.5q-166 56 -237.5 132t-71.5 198q0 94 49 172t134 122.5t187 44.5q95 0 175.5 -39t132.5 -116t56 -178h-260q-18 88 -104 88q-22 0 -41 -7.5t-32.5 -19.5t-21.5 -29.5 t-8 -37.5q0 -17 0.5 -25.5t8.5 -19t16.5 -16t34 -16t51.5 -19l78 -25.5q173 -54 241 -127t68 -198q0 -105 -52.5 -192t-144 -137t-200.5 -50h-30l-45 -91q40 15 58 15q74 0 128.5 -60t54.5 -143q0 -58 -24 -103t-68 -69.5t-101 -24.5q-76 0 -132.5 47t-67.5 122h122 q25 -58 76 -58q32 0 55.5 26.5t23.5 63.5q0 36 -23 62t-56 26q-14 0 -26 -5t-24 -16.5t-26 -32.5l-104 52l84 203q-119 31 -192.5 122.5t-90.5 242.5z" />
<glyph unicode="&#x160;" horiz-adv-x="1042" d="M28 423h288q17 -184 199 -184q89 0 145 50t56 130q0 30 -7.5 58t-23 52t-36.5 41q-32 25 -66 39.5t-192 74.5q-149 56 -229 160t-80 244q0 115 57.5 212t157 153t217.5 56q119 0 216 -50.5t157 -147t67 -223.5h-286q-6 75 -46.5 116t-109.5 41q-68 0 -110 -42.5 t-42 -108.5q0 -82 82 -135q26 -15 164 -66q112 -42 186.5 -88t118 -101t61.5 -115.5t18 -138.5q0 -99 -37 -187.5t-100 -152t-151 -100t-187 -36.5q-97 0 -182 31t-149.5 88t-105.5 142t-50 188zM115 1894h291l106 -128l108 128h295l-295 -276h-214z" />
<glyph unicode="&#x161;" horiz-adv-x="882" d="M38 353h269q20 -71 55 -102.5t94 -31.5q51 0 85.5 31t34.5 77q0 28 -4 42t-24 31t-56 31.5t-105 37.5q-166 56 -237.5 132t-71.5 198q0 94 49 172t134 122.5t187 44.5q95 0 175.5 -39t132.5 -116t56 -178h-260q-18 88 -104 88q-22 0 -41 -7.5t-32.5 -19.5t-21.5 -29.5 t-8 -37.5q0 -17 0.5 -25.5t8.5 -19t16.5 -16t34 -16t51.5 -19l78 -25.5q173 -54 241 -127t68 -198q0 -105 -52.5 -192t-144 -137t-200.5 -50q-171 0 -279 95t-129 284zM48 1544h291l107 -129l108 129h295l-295 -278h-215z" />
<glyph unicode="&#x162;" horiz-adv-x="842" d="M14 1220v263h825v-263h-275v-1220h-124l-59 -117q40 15 59 15q74 0 128 -60t54 -143q0 -88 -53 -142.5t-140 -54.5q-76 0 -132.5 47t-68.5 122h123q25 -58 76 -58q32 0 55.5 26.5t23.5 63.5q0 36 -23 62t-56 26q-21 0 -38 -11.5t-38 -42.5l-104 52l88 215h-46v1220h-275z " />
<glyph unicode="&#x163;" horiz-adv-x="601" d="M18 869v243h131v371h267v-371h160v-243h-160v-869h-117l-58 -117q40 15 58 15q74 0 128.5 -60t54.5 -143q0 -88 -53.5 -142.5t-139.5 -54.5q-77 0 -133 47t-68 122h123q25 -58 76 -58q16 0 30.5 7t25 19t17 29t6.5 35q0 24 -10.5 44t-28.5 32t-40 12q-21 0 -38 -11.5 t-38 -42.5l-104 52l88 215h-46v869h-131z" />
<glyph unicode="&#x164;" horiz-adv-x="842" d="M14 1220v263h825v-263h-275v-1220h-275v1220h-275zM28 1894h291l106 -128l109 128h295l-295 -276h-215z" />
<glyph unicode="&#x165;" horiz-adv-x="601" d="M18 869v243h131v371h267v-371h160v-243h-160v-869h-267v869h-131zM469 1166l117 385h209l-117 -385h-209z" />
<glyph unicode="&#x168;" d="M136 544v939h276v-939q0 -68 10 -120.5t28.5 -87t47 -56.5t63 -31.5t77.5 -9.5q53 0 93 15t70.5 49.5t46 94.5t15.5 146v939h275v-939q0 -139 -37 -248.5t-104 -179.5t-158.5 -106t-202.5 -36q-110 0 -201 36.5t-158 106.5t-104 179t-37 248zM305 1781q53 53 98 73.5 t109 20.5q23 0 104.5 -25t109.5 -25q76 0 135 67l108 -162q-48 -59 -91.5 -84.5t-96.5 -25.5q-25 0 -117 25t-110 25q-26 0 -43 -4t-36.5 -13t-60.5 -33z" />
<glyph unicode="&#x169;" horiz-adv-x="1203" d="M109 515v597h266v-544q0 -86 10 -149t27 -101.5t44.5 -61t58 -30t71.5 -7.5q45 0 84 12t69 35t50 55q15 26 24 59t13.5 83t4.5 125v524h267v-1112h-247v107q-75 -74 -146.5 -103.5t-172.5 -29.5q-423 0 -423 541zM270 1429q53 53 98.5 73.5t108.5 20.5q24 0 106 -25 t110 -25q74 0 134 69l108 -163q-49 -59 -92.5 -85t-95.5 -26q-25 0 -117.5 25.5t-110.5 25.5q-36 0 -58 -8.5t-82 -42.5z" />
<glyph unicode="&#x16a;" d="M136 544v939h276v-939q0 -68 10 -120.5t28.5 -87t47 -56.5t63 -31.5t77.5 -9.5q53 0 93 15t70.5 49.5t46 94.5t15.5 146v939h275v-939q0 -139 -37 -248.5t-104 -179.5t-158.5 -106t-202.5 -36q-110 0 -201 36.5t-158 106.5t-104 179t-37 248zM366 1656v200h555v-200h-555 z" />
<glyph unicode="&#x16b;" horiz-adv-x="1203" d="M109 515v597h266v-544q0 -86 10 -149t27 -101.5t44.5 -61t58 -30t71.5 -7.5q45 0 84 12t69 35t50 55q15 26 24 59t13.5 83t4.5 125v524h267v-1112h-247v107q-75 -74 -146.5 -103.5t-172.5 -29.5q-423 0 -423 541zM331 1304v201h556v-201h-556z" />
<glyph unicode="&#x16c;" d="M136 544v939h276v-939q0 -68 10 -120.5t28.5 -87t47 -56.5t63 -31.5t77.5 -9.5q53 0 93 15t70.5 49.5t46 94.5t15.5 146v939h275v-939q0 -139 -37 -248.5t-104 -179.5t-158.5 -106t-202.5 -36q-110 0 -201 36.5t-158 106.5t-104 179t-37 248zM307 1896h197 q36 -86 136 -86q35 0 61.5 10t42.5 29t20 47h205q-4 -125 -95 -201.5t-234 -76.5q-149 0 -236.5 73t-96.5 205z" />
<glyph unicode="&#x16d;" horiz-adv-x="1203" d="M109 515v597h266v-544q0 -86 10 -149t27 -101.5t44.5 -61t58 -30t71.5 -7.5q45 0 84 12t69 35t50 55q15 26 24 59t13.5 83t4.5 125v524h267v-1112h-247v107q-75 -74 -146.5 -103.5t-172.5 -29.5q-423 0 -423 541zM270 1545h197q37 -86 137 -86q53 0 85 22.5t39 63.5h205 q-4 -125 -95 -202t-234 -77q-149 0 -237 73.5t-97 205.5z" />
<glyph unicode="&#x16e;" d="M136 544v939h276v-939q0 -68 10 -120.5t28.5 -87t47 -56.5t63 -31.5t77.5 -9.5q53 0 93 15t70.5 49.5t46 94.5t15.5 146v939h275v-939q0 -139 -37 -248.5t-104 -179.5t-158.5 -106t-202.5 -36q-110 0 -201 36.5t-158 106.5t-104 179t-37 248zM412 1783q0 95 66 160.5 t162 65.5q93 0 159 -66.5t66 -159.5q0 -62 -30.5 -114.5t-83 -83t-113.5 -30.5q-95 0 -160.5 66.5t-65.5 161.5zM558 1783q0 -33 23.5 -57t56.5 -24t56.5 24t23.5 57t-23.5 56.5t-56.5 23.5t-56.5 -23.5t-23.5 -56.5z" />
<glyph unicode="&#x16f;" horiz-adv-x="1203" d="M109 515v597h266v-544q0 -86 10 -149t27 -101.5t44.5 -61t58 -30t71.5 -7.5q45 0 84 12t69 35t50 55q15 26 24 59t13.5 83t4.5 125v524h267v-1112h-247v107q-75 -74 -146.5 -103.5t-172.5 -29.5q-423 0 -423 541zM377 1425q0 95 66.5 161t162.5 66q93 0 159 -67t66 -160 q0 -94 -67 -160t-160 -66q-95 0 -161 65.5t-66 160.5zM524 1425q0 -22 10.5 -40.5t29 -29t40.5 -10.5q33 0 56.5 23.5t23.5 56.5t-23.5 56.5t-56.5 23.5q-22 0 -40.5 -10.5t-29 -29t-10.5 -40.5z" />
<glyph unicode="&#x170;" d="M136 544v939h276v-939q0 -68 10 -120.5t28.5 -87t47 -56.5t63 -31.5t77.5 -9.5q53 0 93 15t70.5 49.5t46 94.5t15.5 146v939h275v-939q0 -139 -37 -248.5t-104 -179.5t-158.5 -106t-202.5 -36q-110 0 -201 36.5t-158 106.5t-104 179t-37 248zM265 1702l421 287l124 -160 l-444 -266zM793 1702l423 287l123 -160l-444 -266z" />
<glyph unicode="&#x171;" horiz-adv-x="1203" d="M109 515v597h266v-544q0 -86 10 -149t27 -101.5t44.5 -61t58 -30t71.5 -7.5q45 0 84 12t69 35t50 55q15 26 24 59t13.5 83t4.5 125v524h267v-1112h-247v107q-75 -74 -146.5 -103.5t-172.5 -29.5q-423 0 -423 541zM231 1331l422 287l124 -161l-446 -264zM759 1331l423 287 l122 -161l-443 -264z" />
<glyph unicode="&#x172;" d="M136 544v939h276v-939q0 -68 10 -120.5t28.5 -87t47 -56.5t63 -31.5t77.5 -9.5q53 0 93 15t70.5 49.5t46 94.5t15.5 146v939h275v-939q0 -167 -52 -287.5t-147 -189.5q-32 -25 -41.5 -32t-38.5 -31t-40 -35.5t-31.5 -34t-29 -38.5t-16 -37t-7.5 -41q0 -28 3.5 -47.5 t12.5 -33t23.5 -20t35.5 -6.5q57 0 117 26v-201q-93 -38 -152 -38q-105 0 -179.5 66t-74.5 166q0 62 35 125t95 119h-15q-110 0 -201 36.5t-158 106.5t-104 179t-37 248z" />
<glyph unicode="&#x173;" horiz-adv-x="1203" d="M109 515v597h266v-544q0 -86 10 -149t27 -101.5t44.5 -61t58 -30t71.5 -7.5q45 0 84 12t69 35t50 55q15 26 24 59t13.5 83t4.5 125v524h267v-1112q-92 -29 -142 -82.5t-50 -99.5q0 -57 16.5 -82t58.5 -25q57 0 117 26v-201q-94 -38 -152 -38q-105 0 -179 66t-74 166 q0 69 44 141.5t116 128.5l-2 107q-75 -74 -146.5 -103.5t-172.5 -29.5q-423 0 -423 541z" />
<glyph unicode="&#x174;" horiz-adv-x="1806" d="M14 1483h281l261 -1035l252 1035h201l249 -1035l263 1035h281l-433 -1483h-218l-240 981l-245 -981h-216zM510 1618l295 276h214l291 -276h-291l-106 128l-108 -128h-295z" />
<glyph unicode="&#x175;" horiz-adv-x="1605" d="M20 1112h287l199 -679l187 679h213l182 -679l203 679h285l-402 -1112h-167l-210 720l-215 -720h-165zM400 1266l295 278h214l291 -278h-291l-106 129l-108 -129h-295z" />
<glyph unicode="&#x176;" horiz-adv-x="1243" d="M6 1483h297l329 -682l327 682h297l-488 -935v-548h-274v548zM233 1618l295 276h215l291 -276h-291l-107 128l-108 -128h-295z" />
<glyph unicode="&#x177;" horiz-adv-x="1163" d="M12 1112h306l246 -721l269 721h307l-642 -1483h-287l208 475zM176 1266l295 278h215l291 -278h-291l-106 129l-109 -129h-295z" />
<glyph unicode="&#x178;" horiz-adv-x="1243" d="M6 1483h297l329 -682l327 682h297l-488 -935v-548h-274v548zM279 1624v266h267v-266h-267zM701 1624v266h266v-266h-266z" />
<glyph unicode="&#x179;" horiz-adv-x="1003" d="M36 0v233l562 987h-531v263h858v-246l-557 -974h595v-263h-927zM309 1720l450 269l108 -185l-455 -241z" />
<glyph unicode="&#x17a;" horiz-adv-x="923" d="M40 0v239l490 634h-434v239h753v-239l-489 -634h527v-239h-847zM287 1369l450 269l108 -185l-456 -241z" />
<glyph unicode="&#x17b;" horiz-adv-x="1003" d="M36 0v233l562 987h-531v263h858v-246l-557 -974h595v-263h-927zM364 1624v266h266v-266h-266z" />
<glyph unicode="&#x17c;" horiz-adv-x="923" d="M40 0v239l490 634h-434v239h753v-239l-489 -634h527v-239h-847zM341 1272v268h268v-268h-268z" />
<glyph unicode="&#x17d;" horiz-adv-x="1003" d="M36 0v233l562 987h-531v263h858v-246l-557 -974h595v-263h-927zM96 1894h291l107 -128l108 128h295l-295 -276h-215z" />
<glyph unicode="&#x17e;" horiz-adv-x="923" d="M40 0v239l490 634h-434v239h753v-239l-489 -634h527v-239h-847zM74 1544h292l105 -129l109 129h295l-295 -278h-214z" />
<glyph unicode="&#x17f;" horiz-adv-x="561" d="M20 869v223h97q10 104 29 161t59 105q104 125 279 125q33 0 66 -4v-253h-26q-77 0 -108 -29.5t-33 -104.5v-1092h-266v869h-97z" />
<glyph unicode="&#x192;" horiz-adv-x="1123" d="M-34 -285l40 233q40 -8 67 -8q45 0 75.5 7t57.5 25.5t46 55t35 91.5t31 138l119 687h-188l38 230h188l11 52q18 81 31.5 126t31 77.5t47.5 69.5q60 74 147.5 113.5t189.5 39.5q19 0 59 -7l-40 -234h-19q-47 0 -79.5 -12.5t-56 -42.5t-38.5 -72.5t-29 -109.5h185l-38 -230 h-186l-125 -731q-29 -170 -61 -250.5t-89 -136.5q-131 -125 -332 -125q-57 0 -118 14z" />
<glyph unicode="&#x2c6;" horiz-adv-x="1082" d="M142 1266l295 278h216l291 -278h-291l-107 129l-109 -129h-295z" />
<glyph unicode="&#x2da;" horiz-adv-x="722" d="M134 1425q0 95 66.5 161t163.5 66q93 0 158.5 -66.5t65.5 -160.5q0 -95 -66.5 -160.5t-159.5 -65.5q-95 0 -161.5 65.5t-66.5 160.5zM281 1425q0 -33 24 -56.5t57 -23.5t56.5 23.5t23.5 56.5t-23.5 56.5t-56.5 23.5q-17 0 -31.5 -6.5t-25.5 -17t-17.5 -25.5t-6.5 -31z " />
<glyph unicode="&#x2dc;" horiz-adv-x="963" d="M149 1429q53 53 98 73.5t108 20.5q23 0 105.5 -25t109.5 -25q74 0 135 69l107 -163q-48 -59 -91.5 -85t-96.5 -26q-25 0 -116.5 25.5t-109.5 25.5q-37 0 -59.5 -8.5t-81.5 -42.5z" />
<glyph unicode="&#x2000;" horiz-adv-x="1004" />
<glyph unicode="&#x2001;" horiz-adv-x="2009" />
<glyph unicode="&#x2002;" horiz-adv-x="1004" />
<glyph unicode="&#x2003;" horiz-adv-x="2009" />
<glyph unicode="&#x2004;" horiz-adv-x="669" />
<glyph unicode="&#x2005;" horiz-adv-x="502" />
<glyph unicode="&#x2006;" horiz-adv-x="334" />
<glyph unicode="&#x2007;" horiz-adv-x="334" />
<glyph unicode="&#x2008;" horiz-adv-x="251" />
<glyph unicode="&#x2009;" horiz-adv-x="401" />
<glyph unicode="&#x200a;" horiz-adv-x="111" />
<glyph unicode="&#x2010;" horiz-adv-x="842" d="M149 460v237h556v-237h-556z" />
<glyph unicode="&#x2011;" horiz-adv-x="842" d="M149 460v237h556v-237h-556z" />
<glyph unicode="&#x2012;" horiz-adv-x="842" d="M149 460v237h556v-237h-556z" />
<glyph unicode="&#x2013;" horiz-adv-x="1003" d="M0 460v237h1004v-237h-1004z" />
<glyph unicode="&#x2014;" horiz-adv-x="2007" d="M0 460v237h2007v-237h-2007z" />
<glyph unicode="&#x2018;" horiz-adv-x="561" d="M144 935v281q0 121 72.5 194t195.5 73v-135q-44 -7 -69.5 -20.5t-37.5 -36t-12 -56.5q0 -21 2 -33h117v-267h-268z" />
<glyph unicode="&#x2019;" horiz-adv-x="561" d="M144 935v135q43 8 68.5 22.5t38 38t12.5 59.5q0 22 -2 36h-117v257h268v-281q0 -120 -70 -193.5t-198 -73.5z" />
<glyph unicode="&#x201a;" horiz-adv-x="561" d="M140 0v257h268v-271q0 -120 -69.5 -193.5t-198.5 -73.5v134q63 12 91 38t28 75q0 22 -2 34h-117z" />
<glyph unicode="&#x201c;" horiz-adv-x="963" d="M140 935v281q0 121 72.5 194t195.5 73v-135q-65 -11 -92 -37.5t-27 -78.5q0 -18 2 -30h117v-267h-268zM556 935v281q0 121 72 194t195 73v-135q-63 -11 -90.5 -37t-27.5 -74q0 -23 2 -35h116v-267h-267z" />
<glyph unicode="&#x201d;" horiz-adv-x="963" d="M140 935v135q62 12 90.5 40.5t28.5 79.5q0 22 -2 36h-117v257h268v-281q0 -119 -70 -193t-198 -74zM556 935v135q42 8 68 22.5t38 38t12 59.5q0 22 -2 36h-116v257h267v-281q0 -120 -70.5 -193.5t-196.5 -73.5z" />
<glyph unicode="&#x201e;" horiz-adv-x="963" d="M140 0v257h268v-271q0 -120 -69.5 -193.5t-198.5 -73.5v134q63 12 91 38t28 75q0 22 -2 34h-117zM556 0v257h267v-271q0 -119 -70 -193t-197 -74v134q63 12 90.5 38t27.5 75q0 22 -2 34h-116z" />
<glyph unicode="&#x2026;" horiz-adv-x="2007" d="M201 0v257h266v-257h-266zM867 0v257h267v-257h-267zM1536 0v257h268v-257h-268z" />
<glyph unicode="&#x202f;" horiz-adv-x="401" />
<glyph unicode="&#x2039;" horiz-adv-x="481" d="M73 479v201l278 262v-247l-134 -115l134 -116v-247z" />
<glyph unicode="&#x203a;" horiz-adv-x="481" d="M147 217v247l134 116l-134 115v247l278 -262v-201z" />
<glyph unicode="&#x205f;" horiz-adv-x="502" />
<glyph unicode="&#x20a1;" horiz-adv-x="1565" d="M60 747q0 135 47 261.5t128.5 224.5t195 167t241.5 95v154h221v-142q138 -12 259 -68t217 -153.5t156 -228.5h-307q-66 87 -144 131t-181 55v-1002q86 10 159 50.5t150 122.5h323q-55 -127 -150 -223t-219 -151.5t-263 -63.5v-143h-221v159q-130 29 -243 98.5t-194.5 168 t-128 225t-46.5 263.5zM337 745q0 -163 94 -294.5t241 -183.5v953q-151 -49 -243 -178.5t-92 -296.5z" />
<glyph unicode="&#x20a4;" horiz-adv-x="1123" d="M0 566v211h180l-33 52h-147v211h82q1 97 39 184t101.5 149.5t152 99t187.5 36.5q191 0 322 -117.5t148 -305.5h-272q-22 86 -73 132t-123 46q-88 0 -149.5 -64.5t-65.5 -159.5h470v-211h-382l42 -52h340v-211h-181q14 -28 21 -59t8 -50.5t1 -54.5q0 -73 -26 -151 q107 0 164 52.5t57 138.5q0 40 -20 108h264q23 -61 23 -104q0 -97 -40 -186t-111 -151q-71 -61 -154 -85t-221 -24h-522v251h280q40 67 40 147q0 82 -69 168h-333z" />
<glyph unicode="&#x20a6;" horiz-adv-x="1484" d="M-2 508v245h138v126h-138v245h138v359h314l205 -359h408v359h276v-359h138v-245h-138v-126h138v-245h-138v-508h-307l-293 508h-327v-508h-276v508h-138zM412 753h186l-72 126h-114v-126zM793 879l72 -126h198v126h-270zM1004 508l59 -104v104h-59z" />
<glyph unicode="&#x20a9;" horiz-adv-x="1806" d="M14 508v245h214l-37 126h-177v245h107l-107 359h281l90 -359h335l88 359h201l87 -359h335l90 359h281l-104 -359h104v-245h-176l-36 -126h212v-245h-285l-148 -508h-218l-125 508h-233l-127 -508h-216l-149 508h-287zM448 879l31 -126h151l31 126h-213zM540 508l16 -60 l14 60h-30zM855 753h112l-32 126h-50zM1154 879l30 -126h153l32 126h-215zM1245 508l13 -60l16 60h-29z" />
<glyph unicode="&#x20ab;" horiz-adv-x="1291" d="M109 0h1073v-245h-1073v245zM109 697q0 104 36.5 198t99.5 161.5t151 106.5t186 39q88 0 165.5 -31.5t127.5 -88.5v168h-214v146h214v87h227v-87h80v-146h-80v-1028h-209v123q-47 -51 -93.5 -82.5t-99.5 -46.5t-118 -15q-132 0 -240.5 65.5t-170.5 179t-62 251.5z M335 707q0 -126 82 -212.5t201 -86.5q115 0 195 84.5t80 208.5q0 125 -80.5 209t-200.5 84q-116 0 -196.5 -83.5t-80.5 -203.5z" />
<glyph unicode="&#x20ac;" horiz-adv-x="1123" d="M-67 789l49 176h158q67 285 216.5 412.5t398.5 127.5q123 0 219 -28.5t221 -103.5l-79 -207q-52 31 -99 53t-92.5 36.5t-88.5 21t-87 6.5q-137 0 -217 -74.5t-126 -243.5h632l-67 -176h-580v-90h546l-68 -178h-467q37 -146 129 -228t229 -82q55 0 119 17.5t175 62.5v-247 q-91 -36 -162 -51.5t-159 -15.5q-87 0 -174 24.5t-157 69.5q-104 63 -163.5 165t-100.5 285h-203l49 178h138v38q0 29 2 52h-191z" />
<glyph unicode="&#x20b1;" horiz-adv-x="1123" d="M-2 273v194h138v1016h368q147 0 231.5 -15t147.5 -53q96 -59 148.5 -160t52.5 -229q0 -85 -23.5 -161.5t-67.5 -137t-104 -97.5q-62 -37 -146.5 -51.5t-242.5 -14.5h-88v-97h150v-194h-150v-273h-276v273h-138zM412 827h80q121 0 191 22.5t97 63.5t27 108 q0 114 -69.5 156.5t-233.5 42.5h-92v-393z" />
<glyph unicode="&#x2122;" horiz-adv-x="2007" d="M109 1291v192h592v-192h-184v-675h-226v675h-182zM827 616v867h287l251 -588l247 588h286v-867h-226v528l-221 -528h-177l-220 528v-528h-227z" />
<glyph unicode="&#x25fc;" horiz-adv-x="1113" d="M0 0v1114h1114v-1114h-1114z" />
</font>
</defs>
</svg>
