<?xml version="1.0" standalone="no"?>
<!DOCTYPE svg PUBLIC "-//W3C//DTD SVG 1.1//EN" "http://www.w3.org/Graphics/SVG/1.1/DTD/svg11.dtd" >
<svg xmlns="http://www.w3.org/2000/svg" xmlns:xlink="http://www.w3.org/1999/xlink" version="1.1">
<metadata></metadata>
<defs>
<font id="texgyreadventoritalic" horiz-adv-x="1341" >
<font-face units-per-em="2048" ascent="1655" descent="-393" />
<missing-glyph horiz-adv-x="567" />
<glyph unicode="IJ" horiz-adv-x="1370" d="M68 0l280 1513h152l-281 -1513h-151zM432 299q0 36 4 59h150q13 -132 57 -189.5t152 -57.5q127 0 204.5 87.5t114.5 274.5l195 1040h151l-194 -1040q-46 -247 -171.5 -374.5t-322.5 -127.5q-157 0 -248.5 84t-91.5 244z" />
<glyph unicode="ij" horiz-adv-x="829" d="M68 0l206 1120h152l-207 -1120h-151zM182 -393l27 145q130 7 193.5 79t97.5 247l192 1042h152l-193 -1042q-71 -450 -469 -471zM299 1243l47 258h152l-47 -258h-152zM717 1243l47 258h151l-47 -258h-151z" />
<glyph horiz-adv-x="0" />
<glyph horiz-adv-x="682" />
<glyph unicode=" "  horiz-adv-x="567" />
<glyph unicode="&#x09;" horiz-adv-x="567" />
<glyph unicode="&#xa0;" horiz-adv-x="567" />
<glyph unicode="!" horiz-adv-x="604" d="M166 0l47 258h152l-48 -258h-151zM242 403l204 1110h152l-205 -1110h-151z" />
<glyph unicode="&#x22;" horiz-adv-x="632" d="M285 1051l86 462h102l-86 -462h-102zM516 1051l86 462h103l-87 -462h-102z" />
<glyph unicode="#" horiz-adv-x="1134" d="M43 485l23 123h262l121 320h-248l22 123h271l174 462h131l-172 -462h260l170 462h135l-170 -462h227l-22 -123h-250l-117 -320h236l-23 -123h-258l-178 -485h-135l178 485h-264l-180 -485h-136l183 485h-240zM463 608h262l117 320h-260z" />
<glyph unicode="$" horiz-adv-x="1134" d="M168 365q0 36 12 102h139q-4 -49 -4 -66q0 -97 61 -157t159 -60q132 0 225.5 97t93.5 235q0 83 -46.5 134t-182.5 93q-160 50 -221.5 123t-61.5 185q0 161 106 285t269 155l31 168h135l-31 -168q140 -31 202 -105t62 -212q0 -8 -4 -54h-143q4 47 4 66q0 77 -55.5 126.5 t-141.5 49.5q-122 0 -204.5 -87.5t-82.5 -217.5q0 -60 46.5 -99.5t166.5 -80.5q96 -33 157.5 -68t95 -77t45.5 -85.5t12 -105.5q0 -81 -28.5 -159t-81 -144t-134.5 -113.5t-182 -65.5l-33 -174h-135l33 174q-116 16 -199.5 96.5t-83.5 209.5z" />
<glyph unicode="%" horiz-adv-x="1587" d="M178 1110q0 77 35.5 154t94 136.5t139 96.5t165.5 37q127 0 212 -84t85 -209q0 -108 -60.5 -207.5t-160 -160t-207.5 -60.5q-132 0 -217.5 84t-85.5 213zM313 0l959 1513h153l-964 -1513h-148zM317 1130q0 -76 52 -127t129 -51q109 0 190.5 80.5t81.5 186.5 q0 73 -52.5 124.5t-127.5 51.5q-109 0 -191 -79.5t-82 -185.5zM815 270q0 107 61 205t162 157.5t211 59.5q128 0 212.5 -83.5t84.5 -209.5q0 -108 -60.5 -207t-160.5 -159t-209 -60q-131 0 -216 84t-85 213zM954 291q0 -75 52.5 -126.5t128.5 -51.5q109 0 190.5 80t81.5 186 q0 72 -52.5 123t-127.5 51q-107 0 -190 -79.5t-83 -182.5z" />
<glyph unicode="&#x26;" horiz-adv-x="1550" d="M129 354q0 126 69.5 244.5t190.5 194.5l146 75q6 3 34 19q-63 86 -87.5 143t-24.5 117q0 77 35 149.5t93.5 125.5t137.5 85.5t162 32.5q135 0 220 -76.5t85 -199.5q0 -140 -81 -235t-288 -187l236 -283l299 426h168l-377 -534l313 -373l-123 -105l-288 340 q-219 -340 -525 -340q-180 0 -287.5 104t-107.5 277zM276 362q0 -109 76 -179t193 -70q104 0 212 80t199 229l-299 356q-209 -95 -295 -189t-86 -227zM614 1171q0 -46 24.5 -91.5t92.5 -129.5q187 77 249 134.5t62 150.5q0 77 -48 121.5t-132 44.5q-95 0 -171.5 -70 t-76.5 -160z" />
<glyph unicode="'" horiz-adv-x="405" d="M285 1051l86 462h102l-86 -462h-102z" />
<glyph unicode="(" horiz-adv-x="755" d="M156 453q0 148 54.5 311.5t149.5 311t238 266.5t307 171l-24 -129q-185 -111 -316 -266.5t-191.5 -318t-60.5 -324.5q0 -193 74.5 -347t214.5 -251l-24 -133q-134 54 -231 166t-144 251.5t-47 291.5z" />
<glyph unicode=")" horiz-adv-x="755" d="M-41 -256l25 131q160 85 290.5 233.5t204.5 326.5t74 347q0 183 -66 331t-225 267l25 133q128 -47 226 -158.5t148 -255t50 -296.5q0 -205 -92 -417t-266.5 -387.5t-393.5 -254.5z" />
<glyph unicode="*" horiz-adv-x="870" d="M291 1233l20 106l215 -45l-82 209l113 37l70 -205l143 168l84 -78l-149 -165l210 -33l-18 -107l-209 43l80 -205l-109 -38l-71 206l-144 -163l-90 73l154 162z" />
<glyph unicode="+" horiz-adv-x="1241" d="M176 436v152h416v416h151v-416h416v-152h-416v-416h-151v416h-416z" />
<glyph unicode="," horiz-adv-x="567" d="M100 -137l254 395h150l-254 -395h-150z" />
<glyph unicode="-" horiz-adv-x="679" d="M102 477l25 129h557l-25 -129h-557z" />
<glyph unicode="." horiz-adv-x="567" d="M145 0l48 258h151l-47 -258h-152z" />
<glyph unicode="/" horiz-adv-x="894" d="M-29 -262l920 1775h141l-923 -1775h-138z" />
<glyph unicode="0" horiz-adv-x="1134" d="M84 358q0 96 16 174l4 19l80 430q51 278 210.5 418.5t400.5 140.5q183 0 299 -102.5t116 -259.5q0 -96 -18 -197l-80 -430q-109 -578 -606 -578q-195 0 -308.5 103.5t-113.5 281.5zM242 387q0 -123 80 -198.5t210 -75.5q176 0 283 109.5t152 352.5l67 371q19 114 19 180 q0 128 -81 201.5t-206 73.5q-180 0 -289.5 -112.5t-150.5 -342.5l-68 -371q-4 -21 -10 -92t-6 -96z" />
<glyph unicode="1" horiz-adv-x="1134" d="M512 1376l25 137h407l-280 -1513h-150l256 1376h-258z" />
<glyph unicode="2" horiz-adv-x="1134" d="M6 0l25 137l626 512q219 179 293 279.5t74 218.5q0 116 -73.5 185t-196.5 69q-155 0 -261 -101t-135 -276h-149q35 230 193 373t378 143q181 0 291.5 -101.5t110.5 -267.5q0 -152 -80.5 -274.5t-292.5 -294.5l-573 -465h755l-24 -137h-961z" />
<glyph unicode="3" horiz-adv-x="1134" d="M84 350q0 45 6 123h150l-2 -31q0 -177 68.5 -253t199.5 -76q158 0 277.5 121t119.5 282q0 151 -94 215t-277 64l25 135l80 -4q125 0 212 82t87 206q0 81 -52 134t-139 53q-109 0 -188.5 -74.5t-91.5 -189.5h-150q38 190 166.5 296.5t294.5 106.5q142 0 230 -84t88 -219 q0 -230 -222 -371q189 -101 189 -313q0 -151 -79 -285t-210.5 -214.5t-279.5 -80.5q-179 0 -293.5 106t-114.5 271z" />
<glyph unicode="4" horiz-adv-x="1134" d="M14 276l25 138l944 1099h178l-205 -1099h140l-25 -138h-139l-51 -276h-150l51 276h-768zM215 414h592l166 891z" />
<glyph unicode="5" horiz-adv-x="1134" d="M76 389v86h147q0 -183 81 -272.5t214 -89.5q118 0 221 65t163.5 174t60.5 234q0 135 -82 220t-213 85q-176 0 -344 -168l-109 45l272 745h687l-25 -137h-565l-152 -418q154 72 279 72q182 0 295.5 -117.5t113.5 -304.5q0 -123 -52.5 -240.5t-137.5 -203.5t-198 -138.5 t-228 -52.5t-212 51t-156.5 147.5t-59.5 217.5z" />
<glyph unicode="6" horiz-adv-x="1134" d="M74 387q0 75 8.5 128t37.5 119t83 141t145 181l477 557h174l-452 -526q103 43 186 43q172 0 281.5 -117t109.5 -301q0 -169 -84 -316.5t-227 -235t-307 -87.5q-190 0 -311 116t-121 298zM231 418q0 -138 83 -221.5t221 -83.5q113 0 213.5 67t159.5 176.5t59 229.5 q0 137 -79.5 221t-209.5 84q-115 0 -218 -63.5t-166 -173.5t-63 -236z" />
<glyph unicode="7" horiz-adv-x="1134" d="M160 0l882 1376h-716l24 137h873l-25 -137l-879 -1376h-159z" />
<glyph unicode="8" horiz-adv-x="1134" d="M98 360q0 152 91.5 284t246.5 202q-76 57 -101.5 106t-25.5 127q0 123 71 230.5t182.5 169t230.5 61.5q149 0 241 -85t92 -220q0 -127 -59.5 -231t-183.5 -158q100 -53 147 -125t47 -174q0 -156 -76 -288t-206.5 -209t-284.5 -77q-189 0 -300.5 105t-111.5 282zM256 371 q0 -112 77.5 -185t196.5 -73q163 0 278.5 117.5t115.5 281.5q0 115 -74.5 185.5t-196.5 70.5q-163 0 -280 -115.5t-117 -281.5zM467 1108q0 -85 61 -142t152 -57q117 0 203 90.5t86 202.5q0 91 -55.5 145t-149.5 54q-122 0 -209.5 -86.5t-87.5 -206.5z" />
<glyph unicode="9" horiz-adv-x="1134" d="M168 891q0 129 49.5 249t132.5 207.5t196.5 140t235.5 52.5q194 0 315.5 -115t121.5 -299q0 -145 -66 -280q-30 -62 -68 -113t-143 -176l-477 -557h-174l454 526q-103 -43 -186 -43q-169 0 -280 115.5t-111 292.5zM326 932q0 -140 78 -224.5t208 -84.5q119 0 222.5 63.5 t165 171.5t61.5 232q0 139 -84 225t-219 86q-89 0 -170 -41.5t-138 -108t-90.5 -150.5t-33.5 -169z" />
<glyph unicode=":" horiz-adv-x="567" d="M145 0l48 258h151l-47 -258h-152zM293 780l47 258h152l-48 -258h-151z" />
<glyph unicode=";" horiz-adv-x="567" d="M-2 -137l256 395h147l-254 -395h-149zM350 780l47 258h152l-47 -258h-152z" />
<glyph unicode="&#x3c;" horiz-adv-x="1241" d="M256 455v114l774 650v-197l-606 -510l606 -510v-197z" />
<glyph unicode="=" horiz-adv-x="1241" d="M176 248v151h983v-151h-983zM176 625v151h983v-151h-983z" />
<glyph unicode="&#x3e;" horiz-adv-x="1241" d="M256 2l606 510l-606 510v197l774 -650v-114l-774 -650v197z" />
<glyph unicode="?" horiz-adv-x="1210" d="M264 1040q54 241 207 370.5t365 129.5q175 0 281 -98t106 -260q0 -131 -51.5 -221.5t-206.5 -212.5q-134 -106 -195 -186t-76 -167h-143q18 209 285 418q85 67 117.5 98t56.5 68q55 79 55 182q0 107 -71.5 173.5t-186.5 66.5q-302 0 -399 -361h-144zM473 0l47 258h152 l-47 -258h-152z" />
<glyph unicode="@" horiz-adv-x="1775" d="M211 610q0 181 78.5 352.5t208 297.5t305 203t360.5 77q252 0 418 -153t166 -386q0 -96 -35.5 -200.5t-97 -194.5t-137 -163.5t-161.5 -115.5t-165 -42q-74 0 -111.5 26.5t-50.5 89.5q-73 -58 -132.5 -82t-131.5 -24q-106 0 -168.5 62.5t-62.5 168.5q0 147 98 309.5 t244.5 270.5t277.5 108q89 0 138 -33.5t71 -107.5l53 103h125l-297 -570q-51 -106 -60 -128.5t-9 -45.5q0 -17 18.5 -29t44.5 -12q61 0 138 53.5t143.5 136t112.5 193t46 213.5q0 197 -142 322t-366 125q-153 0 -302.5 -68t-260.5 -178t-179.5 -258t-68.5 -301 q0 -239 159 -394t405 -155q278 0 516 203l69 -68q-266 -242 -622 -242q-181 0 -326.5 82t-227 227.5t-81.5 327.5zM641 555q0 -65 35.5 -103t95.5 -38q82 0 156 58.5t162 191.5q135 207 135 323q0 54 -32.5 86t-92.5 35h-10q-67 0 -148 -56t-146.5 -137.5t-110 -180.5 t-44.5 -179z" />
<glyph unicode="A" horiz-adv-x="1515" d="M-39 0l930 1513h170l371 -1513h-166l-125 510h-705l-315 -510h-160zM520 647h588l-164 694z" />
<glyph unicode="B" horiz-adv-x="1175" d="M94 0l281 1513h354q232 0 342.5 -71.5t110.5 -222.5q0 -65 -14 -125.5t-42.5 -116t-77 -100t-112.5 -70.5q115 -55 161 -116.5t46 -158.5q0 -116 -47 -224t-127 -177q-83 -72 -196 -101.5t-304 -29.5h-375zM270 137h207q118 0 207 18t145.5 48.5t92 77t49.5 98.5t14 117 q0 132 -102 188q-75 41 -322 41h-186zM406 862h184q138 0 214.5 19t127.5 65q41 38 66.5 103.5t25.5 134.5q0 109 -72.5 150.5t-265.5 41.5h-184z" />
<glyph unicode="C" horiz-adv-x="1665" d="M156 594q0 126 35 247.5t97 225.5t150.5 192t192 150t225.5 96.5t248 34.5q234 0 404 -116.5t210 -303.5h-168q-66 149 -183 215t-284 66q-148 0 -289 -63t-246.5 -166.5t-170 -245t-64.5 -291.5q0 -227 151.5 -374.5t383.5 -147.5q316 0 575 284h168 q-137 -201 -338.5 -312.5t-429.5 -111.5q-296 0 -481.5 173t-185.5 448z" />
<glyph unicode="D" horiz-adv-x="1523" d="M94 0l281 1513h356q204 0 332 -27.5t219 -90.5q119 -82 180.5 -203.5t61.5 -273.5q0 -210 -88 -394.5t-250 -314.5q-138 -111 -298.5 -160t-385.5 -49h-408zM270 137h211q237 0 384.5 46t264.5 155q109 101 172.5 250.5t63.5 302.5q0 116 -34 202.5t-108.5 151.5 t-202.5 98t-308 33h-211z" />
<glyph unicode="E" horiz-adv-x="1097" d="M94 0l281 1513h827l-24 -137h-676l-103 -542h654l-25 -138h-653l-105 -559h676l-24 -137h-828z" />
<glyph unicode="F" horiz-adv-x="993" d="M94 0l281 1513h768l-25 -137h-616l-103 -547h594l-24 -137h-594l-129 -692h-152z" />
<glyph unicode="G" horiz-adv-x="1785" d="M158 614q0 180 79 350.5t209 296.5t306.5 202.5t363.5 76.5q247 0 421.5 -117.5t217.5 -312.5h-172q-47 134 -175 212.5t-298 78.5q-157 0 -304 -62t-254.5 -165t-172 -243.5t-64.5 -291.5q0 -237 157 -381.5t398 -144.5q215 0 405 122.5t288 325.5h-848l24 137h1030 q-37 -148 -127 -281.5t-211 -231t-273 -155t-306 -57.5q-202 0 -360 81t-246 227.5t-88 332.5z" />
<glyph unicode="H" horiz-adv-x="1398" d="M94 0l281 1513h151l-123 -665h785l123 665h151l-280 -1513h-152l131 711h-784l-131 -711h-152z" />
<glyph unicode="I" horiz-adv-x="462" d="M94 0l281 1513h151l-280 -1513h-152z" />
<glyph unicode="J" horiz-adv-x="987" d="M23 299q0 36 4 59h149q13 -132 57 -189.5t152 -57.5q127 0 205 88t115 274l194 1040h152l-195 -1040q-46 -247 -171.5 -374.5t-322.5 -127.5q-157 0 -248 84t-91 244z" />
<glyph unicode="K" horiz-adv-x="1210" d="M94 0l281 1513h151l-161 -870l862 870h190l-735 -737l455 -776h-191l-383 655l-241 -241l-76 -414h-152z" />
<glyph unicode="L" horiz-adv-x="946" d="M94 0l281 1513h151l-256 -1376h627l-25 -137h-778z" />
<glyph unicode="M" horiz-adv-x="1882" d="M94 0l281 1513h235l312 -1288l788 1288h236l-281 -1513h-152l250 1348l-819 -1348h-131l-317 1348l-250 -1348h-152z" />
<glyph unicode="N" horiz-adv-x="1515" d="M94 0l281 1513h205l614 -1255l233 1255h152l-281 -1513h-151l-655 1331l-246 -1331h-152z" />
<glyph unicode="O" horiz-adv-x="1779" d="M156 618q0 176 81 345.5t213 295.5t310 203.5t362 77.5q132 0 252.5 -48t210.5 -132t143.5 -206t53.5 -261q0 -175 -81 -344.5t-213.5 -295t-310.5 -203t-362 -77.5q-182 0 -332.5 82.5t-238.5 231t-88 331.5zM313 647q0 -224 153 -379t374 -155q149 0 293.5 63 t251.5 166t173 241t66 281q0 233 -152 385t-387 152q-143 0 -285 -64.5t-248.5 -168.5t-172.5 -242.5t-66 -278.5z" />
<glyph unicode="P" horiz-adv-x="1212" d="M94 0l281 1513h420q267 0 386 -80.5t119 -261.5q0 -117 -42 -226.5t-117 -184.5q-80 -80 -193 -114t-299 -34h-291l-112 -612h-152zM385 750h281q147 0 231.5 24.5t140.5 83.5q47 51 76 129t29 156q0 130 -96 188q-72 45 -330 45h-215z" />
<glyph unicode="Q" horiz-adv-x="1783" d="M154 612q0 148 53 290t147 256t215.5 200.5t266.5 134t292 47.5q304 0 492 -172.5t188 -452.5q0 -211 -99 -406.5t-269 -318.5q89 -77 180 -77q19 0 33 2l-27 -142q-110 1 -173 28.5t-134 102.5q-98 -62 -224.5 -96.5t-252.5 -34.5q-146 0 -274 48.5t-218.5 133t-143 203 t-52.5 254.5zM309 571q181 54 346 54q210 0 359.5 -74t335.5 -260q161 143 231 280.5t70 302.5q0 236 -150.5 381.5t-394.5 145.5q-212 0 -393.5 -103.5t-291.5 -292.5t-110 -421zM350 442q33 -122 180 -225.5t332 -103.5q99 0 179 20.5t173 71.5q-135 149 -278 214.5 t-334 65.5q-141 0 -252 -43z" />
<glyph unicode="R" horiz-adv-x="1243" d="M94 0l281 1513h375q308 0 437.5 -90.5t129.5 -289.5q0 -233 -149.5 -390.5t-389.5 -177.5l320 -565h-189l-383 686q167 0 254.5 10.5t155.5 38.5q98 41 160.5 145.5t62.5 227.5q0 145 -102.5 206.5t-341.5 61.5h-213l-256 -1376h-152z" />
<glyph unicode="S" horiz-adv-x="1019" d="M53 338q0 20 4 86h162q0 -163 64.5 -237t195.5 -74q148 0 255.5 107t107.5 255q0 94 -61 148.5t-224 105.5q-104 32 -169 66.5t-98 77t-43.5 85t-10.5 107.5q0 88 39.5 174.5t105.5 152.5t160.5 107t197.5 41q160 0 257.5 -91t97.5 -241q0 -13 -7 -78h-157q0 149 -58 210 t-159 61q-133 0 -226.5 -97.5t-93.5 -216.5q0 -31 13.5 -69.5t31.5 -56.5q22 -24 60 -41.5t147 -53.5q127 -42 191 -76.5t98 -78.5q65 -83 65 -207q0 -102 -45 -199.5t-119.5 -170t-176.5 -117t-209 -44.5q-175 0 -285.5 102t-110.5 263z" />
<glyph unicode="T" horiz-adv-x="872" d="M209 1376l24 137h844l-24 -137h-346l-256 -1376h-152l256 1376h-346z" />
<glyph unicode="U" d="M182 354q0 84 23 215l174 944h151l-174 -944q-18 -99 -18 -184q0 -122 81.5 -197t213.5 -75q172 0 287.5 112.5t158.5 343.5l174 944h152l-174 -944q-55 -297 -220 -446.5t-405 -149.5q-188 0 -306 106t-118 275z" />
<glyph unicode="V" horiz-adv-x="1437" d="M240 1513h166l286 -1325l781 1325h163l-907 -1513h-147z" />
<glyph unicode="W" horiz-adv-x="1966" d="M240 1513h155l129 -1316l606 1316h144l119 -1316l616 1316h156l-715 -1513h-195l-106 1241l-561 -1241h-197z" />
<glyph unicode="X" horiz-adv-x="1247" d="M-45 0l657 774l-348 739h178l289 -606l512 606h176l-622 -739l372 -774h-180l-305 647l-551 -647h-178z" />
<glyph unicode="Y" horiz-adv-x="1212" d="M223 1513h168l273 -847l598 847h165l-714 -1007l-95 -506h-151l94 506z" />
<glyph unicode="Z" horiz-adv-x="983" d="M-27 0l25 137l975 1239h-721l24 137h891l-24 -137l-973 -1239h764l-25 -137h-936z" />
<glyph unicode="[" horiz-adv-x="718" d="M209 176q0 52 20 160l113 610q32 207 172.5 361t345.5 206l-29 -153q-157 -60 -236 -159.5t-116 -282.5l-102 -556q-21 -111 -21 -180q0 -194 205 -284l-29 -154q-163 50 -243 160.5t-80 271.5z" />
<glyph unicode="\" horiz-adv-x="1239" d="M391 1513h148l350 -1513h-146z" />
<glyph unicode="]" horiz-adv-x="718" d="M-33 -256l29 154q154 55 236.5 160t115.5 282l103 557q20 106 20 180q0 95 -52.5 168t-152.5 115l29 153q149 -44 236 -153t87 -252q0 -87 -18 -186l-113 -609q-40 -217 -174.5 -364.5t-345.5 -204.5z" />
<glyph unicode="^" horiz-adv-x="1241" d="M43 369l711 1144h172l284 -1144h-166l-233 977l-598 -977h-170z" />
<glyph unicode="_" horiz-adv-x="1024" d="M-109 -256l23 119h1024l-23 -119h-1024z" />
<glyph unicode="`" horiz-adv-x="768" d="M281 1450l94 119l350 -238l-92 -114z" />
<glyph unicode="a" horiz-adv-x="1398" d="M119 442q0 186 97 349t260.5 259.5t350.5 96.5q142 0 240 -52t160 -173l37 198h151l-207 -1120h-151l37 197q-125 -126 -228 -175t-245 -49q-226 0 -364 129t-138 340zM276 481q0 -164 104 -266t271 -102q133 0 253.5 75.5t192.5 200.5t72 264q0 154 -101 254.5 t-255 100.5q-105 0 -204 -43.5t-172 -115t-117 -168.5t-44 -200z" />
<glyph unicode="b" horiz-adv-x="1396" d="M68 0l280 1513h152l-109 -585q88 104 213.5 161.5t265.5 57.5q215 0 354.5 -133t139.5 -338q0 -139 -58 -269t-154.5 -225t-228 -152t-272.5 -57q-136 0 -239.5 57.5t-157.5 162.5l-35 -193h-151zM303 485q0 -161 104.5 -266.5t266.5 -105.5q139 0 262 74t196.5 198.5 t73.5 265.5q0 160 -100 258.5t-264 98.5q-139 0 -264.5 -75.5t-200 -196.5t-74.5 -251z" />
<glyph unicode="c" horiz-adv-x="1325" d="M119 455q0 134 59.5 261.5t157 221.5t230 151.5t270.5 57.5q192 0 324 -98.5t169 -268.5h-170q-41 108 -132.5 168t-215.5 60q-104 0 -202.5 -44t-171.5 -116t-117 -170t-44 -201q0 -160 105.5 -262t269.5 -102q125 0 210.5 43.5t215.5 173.5h170q-144 -195 -290.5 -276 t-323.5 -81q-229 0 -371.5 133t-142.5 349z" />
<glyph unicode="d" horiz-adv-x="1402" d="M119 444q0 138 58.5 267.5t155.5 225t229.5 153t273.5 57.5q260 0 399 -205l106 571h152l-281 -1513h-151l37 203q-109 -123 -218.5 -176.5t-254.5 -53.5q-220 0 -363 133.5t-143 337.5zM276 483q0 -166 105 -268t274 -102q132 0 254 75.5t196.5 200.5t74.5 262 q0 154 -107.5 255.5t-269.5 101.5q-134 0 -256.5 -73.5t-196.5 -195.5t-74 -256z" />
<glyph unicode="e" horiz-adv-x="1331" d="M119 451q0 181 96.5 342t257.5 257.5t342 96.5q214 0 349.5 -130.5t135.5 -336.5q0 -65 -18 -170h-1014q-4 -50 -4 -57q0 -142 106.5 -241t260.5 -99q126 0 249 72t189 184h158q-98 -181 -267.5 -288.5t-355.5 -107.5q-209 0 -347 136t-138 342zM299 647h858 q-8 166 -107 263.5t-262 97.5q-160 0 -296.5 -101.5t-192.5 -259.5z" />
<glyph unicode="f" horiz-adv-x="643" d="M145 0l183 983h-174l24 137h174q41 202 165.5 297.5t301.5 95.5h35l-25 -137h-30q-131 0 -200.5 -60.5t-94.5 -195.5h276l-24 -137h-277l-182 -983h-152z" />
<glyph unicode="g" horiz-adv-x="1378" d="M61 -35h148q68 -159 143 -212.5t219 -53.5q198 0 324.5 115t167.5 338l14 75q-167 -254 -473 -254q-214 0 -350.5 133.5t-136.5 342.5q0 135 58 264t153 224t222.5 152.5t260.5 57.5q137 0 224 -46t171 -179l37 198h152l-172 -919q-34 -179 -72 -270.5t-113 -170.5 q-91 -97 -218.5 -148.5t-276.5 -51.5q-203 0 -324.5 95.5t-157.5 309.5zM274 483q0 -160 92.5 -265t262.5 -105q133 0 253.5 74.5t194.5 203t74 275.5q0 148 -103 245t-260 97q-127 0 -245.5 -70t-193.5 -192.5t-75 -262.5z" />
<glyph unicode="h" horiz-adv-x="1249" d="M68 0l280 1513h152l-101 -538q75 83 172.5 127.5t206.5 44.5q193 0 300.5 -99t107.5 -278q0 -49 -21 -168l-110 -602h-152l111 602q14 91 14 148q0 114 -80 186t-205 72q-156 0 -264.5 -101.5t-144.5 -292.5l-115 -614h-151z" />
<glyph unicode="i" horiz-adv-x="409" d="M68 0l206 1120h152l-207 -1120h-151zM299 1243l47 258h152l-47 -258h-152z" />
<glyph unicode="j" horiz-adv-x="415" d="M-227 -393l26 145q130 7 193.5 79t97.5 247l193 1042h151l-192 -1042q-71 -450 -469 -471zM307 1243l47 258h152l-47 -258h-152z" />
<glyph unicode="k" horiz-adv-x="1028" d="M68 0l280 1513h152l-199 -1073l647 680h187l-541 -563l362 -557h-188l-289 449l-217 -218l-43 -231h-151z" />
<glyph unicode="l" horiz-adv-x="409" d="M68 0l280 1513h152l-281 -1513h-151z" />
<glyph unicode="m" horiz-adv-x="1921" d="M68 0l206 1120h152l-23 -129q95 95 165.5 125.5t174.5 30.5q127 0 211 -55.5t115 -159.5q100 116 199 165.5t229 49.5q166 0 267.5 -89t101.5 -235q0 -57 -17 -157l-123 -666h-151l121 649q12 74 12 127q0 107 -65 169.5t-177 62.5q-141 0 -239.5 -89t-132.5 -270 l-121 -649h-152l121 653q12 64 12 109q0 122 -69 184t-178 62q-139 0 -237.5 -95.5t-129.5 -259.5l-121 -653h-151z" />
<glyph unicode="n" horiz-adv-x="1249" d="M68 0l206 1120h152l-27 -145q178 172 385 172q184 0 293 -101t109 -270q0 -65 -23 -188l-108 -588h-152l109 588q16 91 16 151q0 123 -77.5 196t-207.5 73q-157 0 -264.5 -96.5t-144.5 -295.5l-115 -616h-151z" />
<glyph unicode="o" d="M117 440q0 142 59 274t156.5 226t228 150.5t268.5 56.5q214 0 347 -129t133 -338q0 -141 -58 -273t-153 -226.5t-220.5 -151t-256.5 -56.5q-223 0 -363.5 130t-140.5 337zM274 467q0 -158 101.5 -256t265.5 -98q140 0 257.5 73.5t185 200.5t67.5 279q0 149 -98.5 245.5 t-249.5 96.5q-141 0 -263 -73.5t-194 -198.5t-72 -269z" />
<glyph unicode="p" horiz-adv-x="1396" d="M-6 -393l280 1513h152l-35 -192q76 101 205 160t274 59q221 0 356.5 -132.5t135.5 -348.5q0 -133 -59 -260.5t-155 -222t-226.5 -152.5t-266.5 -58q-286 0 -401 220l-109 -586h-151zM301 465q0 -151 104 -251.5t261 -100.5q99 0 196 41t172.5 111t122.5 171t47 213 q0 157 -103 258t-263 101q-96 0 -192 -40.5t-172.5 -110.5t-124.5 -173.5t-48 -218.5z" />
<glyph unicode="q" horiz-adv-x="1396" d="M117 444q0 138 58 267.5t153.5 225t225.5 153t269 57.5q146 0 248.5 -56t155.5 -163l35 192h151l-280 -1513h-152l109 586q-91 -106 -216.5 -163t-269.5 -57q-212 0 -349.5 133t-137.5 338zM274 469q0 -155 102 -255.5t259 -100.5q105 0 204.5 43t174 115t119.5 172 t45 208q0 154 -106 255.5t-267 101.5q-139 0 -262 -74.5t-196 -199t-73 -265.5z" />
<glyph unicode="r" horiz-adv-x="616" d="M68 0l206 1120h152l-29 -159q62 93 143 136t210 50l-29 -150q-323 -35 -381 -344l-121 -653h-151z" />
<glyph unicode="s" horiz-adv-x="794" d="M27 240q0 41 6 90h149q0 -126 41.5 -171.5t128.5 -45.5q94 0 163 68.5t69 160.5q0 64 -33.5 97t-147.5 83q-92 40 -127.5 60.5t-58.5 48.5q-23 26 -38 67.5t-15 79.5q0 97 54.5 183t143.5 136t187 50q112 0 186 -69t74 -173q0 -38 -2 -61h-154q0 85 -32 124.5t-101 39.5 q-76 0 -137 -58.5t-61 -130.5q0 -79 77 -121q47 -24 195 -90q77 -35 112 -88.5t35 -132.5q0 -113 -58.5 -209t-153.5 -150.5t-203 -54.5q-134 0 -216.5 78t-82.5 189z" />
<glyph unicode="t" horiz-adv-x="694" d="M145 983l25 137h229l74 393h152l-74 -393h264l-24 -137h-265l-182 -983h-151l182 983h-230z" />
<glyph unicode="u" horiz-adv-x="1245" d="M141 317q0 91 19 199l112 604h152l-113 -604q-12 -54 -12 -137q0 -127 69 -196.5t205 -69.5q158 0 272 103.5t156 328.5l109 575h152l-209 -1120h-152l33 174q-82 -107 -175.5 -154t-226.5 -47q-178 0 -284.5 93.5t-106.5 250.5z" />
<glyph unicode="v" horiz-adv-x="1134" d="M162 1120h153l220 -942l575 942h154l-678 -1120h-160z" />
<glyph unicode="w" horiz-adv-x="1701" d="M160 1120h151l183 -938l413 801h125l115 -801l539 938h147l-641 -1120h-162l-106 743l-379 -743h-164z" />
<glyph unicode="x" horiz-adv-x="983" d="M-45 0l496 571l-289 549h172l223 -432l381 432h174l-491 -549l284 -571h-174l-217 449l-387 -449h-172z" />
<glyph unicode="y" horiz-adv-x="1097" d="M137 -393l260 430l-233 1083h166l188 -893l545 893h162l-928 -1513h-160z" />
<glyph unicode="z" horiz-adv-x="870" d="M-41 0l25 137l776 846h-598l24 137h770l-22 -129l-772 -854h651l-25 -137h-829z" />
<glyph unicode="{" horiz-adv-x="718" d="M131 557l27 141q95 15 133 52.5t53 132.5l66 348q17 65 33 108t38.5 75.5t45.5 50t62.5 28.5t79 14.5t105.5 5.5l-26 -137q-101 -7 -130 -30.5t-51 -114.5l-65 -348q-25 -119 -70 -169t-160 -87q83 -28 113.5 -64.5t30.5 -109.5l-6 -78l-66 -348q-6 -30 -6 -64 q0 -43 23 -59.5t90 -22.5l20 -2l-27 -137q-92 3 -128 8.5t-62 20.5q-76 46 -76 145q0 65 8 111l66 348l6 65q0 58 -23.5 80t-103.5 37z" />
<glyph unicode="|" horiz-adv-x="1376" d="M659 -256v1769h152v-1769h-152z" />
<glyph unicode="}" horiz-adv-x="718" d="M-33 -258l25 137q101 7 128.5 29.5t53.5 118.5l64 348q17 106 68.5 163t158.5 89q-92 40 -117.5 70t-25.5 91q0 47 10 95l65 348q2 8 2 63q0 43 -20 58.5t-86 21.5l-23 2l25 137q95 -3 129.5 -8t60.5 -20q43 -26 60.5 -62t17.5 -96q0 -31 -10 -96l-66 -348l-8 -84 q0 -44 28 -65.5t99 -35.5l-26 -141q-55 -10 -81 -18t-48 -29t-32.5 -49t-25.5 -86l-63 -348q-30 -165 -108 -225t-255 -60z" />
<glyph unicode="~" horiz-adv-x="1241" d="M141 526q98 133 176 189.5t164 56.5q61 0 150 -39l123 -55q101 -48 153 -45q51 0 105 39t123 127l71 -97q-72 -104 -162.5 -166.5t-169.5 -62.5q-58 0 -178 53l-102 45q-96 41 -141 41q-63 0 -109 -34t-135 -148z" />
<glyph unicode="&#xa1;" horiz-adv-x="604" d="M90 -393l205 1110h151l-204 -1110h-152zM324 862l47 258h151l-47 -258h-151z" />
<glyph unicode="&#xa2;" horiz-adv-x="1134" d="M170 692q0 133 65.5 254.5t188.5 206t278 104.5l35 191h137l-34 -191q131 -22 213 -102t104 -207h-168q-3 4 -5.5 9.5t-4 10t-2.5 5.5q-70 147 -252 147q-158 0 -277.5 -119.5t-119.5 -277.5q0 -125 75.5 -202t198.5 -77q169 0 313 150h164q-58 -110 -172 -188t-243 -97 l-33 -182h-137l32 182q-158 13 -257 119.5t-99 263.5z" />
<glyph unicode="&#xa3;" horiz-adv-x="1134" d="M57 0l25 137h283q62 57 98.5 142t36.5 172q0 62 -32.5 121t-109.5 139h-254l27 137h156q-25 85 -25 137q0 113 51 217.5t133.5 177.5t188.5 116.5t213 43.5q190 0 311 -110t121 -265q0 -7 -4 -57h-143q0 132 -84.5 212.5t-225.5 80.5q-109 0 -202 -57.5t-147 -155.5 t-54 -213q0 -50 31 -127h579l-26 -137h-443q53 -71 74.5 -130t21.5 -132q0 -76 -26 -148t-88 -164h116q210 0 319 111t109 301h148q0 -257 -162 -403t-432 -146h-584z" />
<glyph unicode="&#xa4;" horiz-adv-x="1134" d="M43 227l104 86q-47 79 -47 199q0 119 37.5 216.5t122.5 197.5l-72 88l131 110l72 -86q111 57 177 77t147 20q177 0 291 -97l104 86l88 -110l-100 -88q28 -63 38.5 -107t10.5 -98q0 -114 -44 -225t-118 -183l70 -86l-131 -108l-68 86q-101 -57 -174 -80t-160 -23 q-86 0 -149 23t-135 80l-105 -86zM248 553q0 -137 84 -219t225 -82q117 0 219 60.5t162.5 163t60.5 220.5q0 138 -86 213.5t-215 75.5q-91 0 -174.5 -36.5t-143.5 -96.5t-96 -138.5t-36 -160.5z" />
<glyph unicode="&#xa5;" horiz-adv-x="1134" d="M137 485l25 138h373l-66 188h-287l27 137h213l-199 565h156l297 -843l594 843h155l-399 -565h209l-27 -137h-282l-135 -188h368l-24 -138h-420l-90 -485h-152l90 485h-426z" />
<glyph unicode="&#xa6;" horiz-adv-x="1376" d="M659 -256v709h152v-709h-152zM659 805v708h152v-708h-152z" />
<glyph unicode="&#xa7;" horiz-adv-x="1259" d="M172 45q0 33 6 86h139q-2 -18 -2 -51q0 -102 66.5 -166t173.5 -64q113 0 201 78.5t88 177.5q0 43 -41.5 88.5t-118.5 86.5l-266 143q-97 53 -138.5 101.5t-41.5 109.5q0 108 64.5 208t176.5 163q-49 57 -49 143q0 77 34.5 149t92 125t135 85t160.5 32q127 0 217 -72.5 t90 -175.5q0 -5 -4 -51h-145q-5 160 -191 160q-100 0 -173 -66t-73 -157q0 -95 93 -144l292 -151q175 -90 175 -238q0 -93 -48.5 -177t-164.5 -169q63 -78 63 -156q0 -95 -40.5 -177.5t-106 -137.5t-147.5 -86t-165 -31q-156 0 -254 97.5t-98 236.5zM385 682q0 -29 23.5 -61 t60.5 -52l371 -196q68 44 106.5 108t38.5 133q0 86 -92 134l-350 182q-67 -43 -112.5 -114t-45.5 -134z" />
<glyph unicode="&#xa8;" horiz-adv-x="755" d="M317 1243l48 258h151l-47 -258h-152zM618 1243l48 258h151l-47 -258h-152z" />
<glyph unicode="&#xa9;" horiz-adv-x="1529" d="M90 698q0 196 97 363t263.5 264.5t362.5 97.5t363 -97.5t264.5 -264.5t97.5 -363t-97.5 -362.5t-264.5 -263.5t-363 -97t-362.5 97t-263.5 263.5t-97 362.5zM166 698q0 -176 86.5 -325t235.5 -235.5t325 -86.5t325.5 86.5t236.5 235.5t87 325q0 132 -51.5 252.5 t-138.5 207.5t-207 138.5t-252 51.5t-252 -51.5t-206.5 -139t-137.5 -207.5t-51 -252zM334 606q-2 141 75 264t210 196t288 73q151 0 258.5 -72t124.5 -186h-125q-40 81 -108 116t-168 35q-113 0 -214 -54t-161.5 -146t-58.5 -195q1 -119 90 -195.5t223 -76.5q186 0 336 153 h127q-79 -123 -206 -191.5t-275 -68.5q-182 0 -297.5 97t-118.5 251z" />
<glyph unicode="&#xaa;" horiz-adv-x="755" d="M125 653l18 107h652l-19 -107h-651zM236 1165q0 140 117.5 250.5t267.5 110.5q109 0 180 -105l16 92h98l-110 -595h-98l16 92q-101 -107 -234 -107q-107 0 -180 76t-73 186zM344 1178q0 -71 49.5 -122.5t118.5 -51.5q90 0 168 77.5t78 167.5q0 74 -46.5 125t-115.5 51 q-97 0 -174.5 -76t-77.5 -171z" />
<glyph unicode="&#xab;" horiz-adv-x="870" d="M135 614l305 408l109 -66l-254 -342l127 -344l-133 -67zM492 614l305 408l108 -66l-254 -342l127 -344l-133 -67z" />
<glyph unicode="&#xac;" horiz-adv-x="1241" d="M176 625v151h983v-452h-151v301h-832z" />
<glyph unicode="&#xad;" horiz-adv-x="679" d="M102 477l25 129h557l-25 -129h-557z" />
<glyph unicode="&#xae;" horiz-adv-x="1529" d="M90 698q0 196 97 363t263.5 264.5t362.5 97.5t363 -97.5t264.5 -264.5t97.5 -363t-97.5 -362.5t-264.5 -263.5t-363 -97t-362.5 97t-263.5 263.5t-97 362.5zM166 698q0 -176 86.5 -325t235.5 -235.5t325 -86.5t325.5 86.5t236.5 235.5t87 325q0 132 -51.5 252.5 t-138.5 207.5t-207 138.5t-252 51.5t-252 -51.5t-206.5 -139t-137.5 -207.5t-51 -252zM440 272l158 852h238q189 0 269 -53t83 -166q2 -126 -81.5 -215t-221.5 -108l198 -310h-149l-254 404q117 -2 172.5 3.5t97.5 22.5q53 20 85.5 71.5t31.5 111.5q-1 74 -60 103.5 t-198 29.5h-115l-137 -746h-117z" />
<glyph unicode="&#xaf;" horiz-adv-x="993" d="M332 1309l24 127h691l-25 -127h-690z" />
<glyph unicode="&#xb0;" horiz-adv-x="819" d="M260 1090q0 127 93 216t225 89q126 0 216.5 -91t90.5 -217q0 -128 -92 -217.5t-222 -89.5q-129 0 -220 90.5t-91 219.5zM377 1090q0 -79 57 -136t137 -57q82 0 139.5 56t57.5 134q0 77 -57.5 134t-135.5 57q-83 0 -140.5 -55t-57.5 -133z" />
<glyph unicode="&#xb1;" horiz-adv-x="1241" d="M176 0v152h983v-152h-983zM176 588v151h416v416h151v-416h416v-151h-416v-299h-151v299h-416z" />
<glyph unicode="&#xb2;" horiz-adv-x="679" d="M76 608l18 101l391 299q110 85 154.5 127t58 72t13.5 81q0 60 -46 97.5t-120 37.5q-193 0 -234 -219h-116q23 151 123.5 238.5t250.5 87.5q117 0 188.5 -64t71.5 -168q0 -88 -51.5 -161.5t-183.5 -173.5l-330 -248h457l-19 -107h-626z" />
<glyph unicode="&#xb3;" horiz-adv-x="679" d="M125 823q0 37 6 84h117l-2 -71q-2 -56 47.5 -97t116.5 -41q92 0 163.5 64t71.5 147q0 84 -57 123t-170 39h-19l21 103h49q85 0 139 40.5t54 104.5q0 49 -30.5 76.5t-84.5 27.5q-69 0 -112.5 -39t-55.5 -114h-117q17 114 102 187t199 73q99 0 158 -52.5t59 -140.5 q0 -66 -35.5 -123t-95.5 -88q115 -59 115 -192q0 -134 -112.5 -238t-258.5 -104q-120 0 -194 65t-74 166z" />
<glyph unicode="&#xb4;" horiz-adv-x="768" d="M414 1331l438 238l49 -119l-438 -233z" />
<glyph unicode="&#xb5;" horiz-adv-x="1245" d="M-6 -393l280 1513h152l-107 -575q-14 -79 -14 -139q0 -293 305 -293q73 0 130.5 20.5t109.5 68t90 133.5t61 210l109 575h152l-209 -1120h-152l33 174q-69 -108 -148 -154.5t-194 -46.5q-118 0 -200 53.5t-138 166.5l-109 -586h-151z" />
<glyph unicode="&#xb6;" horiz-adv-x="1155" d="M215 1044q0 95 36 179t102.5 149t169.5 103t229 38h473l-330 -1785h-152l306 1648h-238l-305 -1648h-152l185 999q-154 15 -239 98t-85 219z" />
<glyph unicode="&#xb7;" horiz-adv-x="567" d="M203 512q0 54 37.5 91.5t91.5 37.5q53 0 91 -37.5t38 -91.5t-38 -91.5t-91 -37.5q-54 0 -91.5 37.5t-37.5 91.5z" />
<glyph unicode="&#xb8;" horiz-adv-x="663" d="M39 -340l111 12q5 -37 22 -52t55 -15q50 0 84.5 38t34.5 93q1 38 -21 60t-61 22q-59 0 -104 -39l-58 39l113 192h80l-55 -108q44 10 69 10q75 0 122.5 -42t47.5 -112q0 -15 -4 -39q-18 -98 -93.5 -165.5t-178.5 -67.5q-74 0 -116 46.5t-48 127.5z" />
<glyph unicode="&#xb9;" horiz-adv-x="679" d="M403 1407l19 106h274l-166 -905h-118l147 799h-156z" />
<glyph unicode="&#xba;" horiz-adv-x="755" d="M127 653l18 107h625l-18 -107h-625zM227 1161q0 143 115 254t264 111q109 0 181.5 -74t72.5 -184q0 -141 -116 -252t-265 -111q-107 0 -179.5 73.5t-72.5 182.5zM336 1171q0 -72 48 -118.5t120 -46.5q100 0 174 77t74 181q0 66 -48.5 113.5t-115.5 47.5 q-103 0 -177.5 -75.5t-74.5 -178.5z" />
<glyph unicode="&#xbb;" horiz-adv-x="870" d="M72 270l254 344l-127 342l133 66l153 -408l-305 -411zM428 270l254 344l-127 342l133 66l154 -408l-305 -411z" />
<glyph unicode="&#xbc;" horiz-adv-x="1701" d="M383 0l981 1513h111l-981 -1513h-111zM418 1407l18 106h275l-166 -905h-119l147 799h-155zM930 162l18 98l584 645h129l-119 -637h86l-18 -106h-86l-31 -162h-119l31 162h-475zM1094 268h329l88 465z" />
<glyph unicode="&#xbd;" horiz-adv-x="1701" d="M362 0l981 1513h111l-981 -1513h-111zM397 1407l19 106h274l-166 -905h-118l147 799h-156zM975 0l18 100l391 299q110 84 154.5 126.5t58 73t13.5 81.5q0 60 -46 97.5t-120 37.5q-193 0 -234 -219h-116q23 151 123.5 238.5t250.5 87.5q117 0 189 -64t72 -168 q0 -88 -52 -162t-184 -174l-330 -248h457l-18 -106h-627z" />
<glyph unicode="&#xbe;" horiz-adv-x="1701" d="M125 823q0 37 6 84h117l-2 -71q-2 -56 47.5 -97t116.5 -41q92 0 163.5 64t71.5 147q0 84 -57 123t-170 39h-19l21 103h49q85 0 139 40.5t54 104.5q0 49 -30.5 76.5t-84.5 27.5q-69 0 -112.5 -39t-55.5 -114h-117q17 114 102 187t199 73q99 0 158 -52.5t59 -140.5 q0 -66 -35.5 -123t-95.5 -88q115 -59 115 -192q0 -134 -112.5 -238t-258.5 -104q-120 0 -194 65t-74 166zM403 0l981 1513h111l-981 -1513h-111zM930 162l18 98l584 645h129l-119 -637h86l-18 -106h-86l-31 -162h-119l31 162h-475zM1094 268h329l88 465z" />
<glyph unicode="&#xbf;" horiz-adv-x="1210" d="M72 -61q0 131 51.5 221.5t206.5 212.5q134 106 194.5 185.5t75.5 166.5h143q-18 -210 -284 -418q-85 -67 -117.5 -98t-56.5 -68q-56 -80 -56 -182q0 -107 71.5 -173.5t186.5 -66.5q303 0 400 361h143q-54 -241 -206.5 -370.5t-364.5 -129.5q-175 0 -281 98t-106 261z M623 862l47 258h151l-47 -258h-151z" />
<glyph unicode="&#xc0;" horiz-adv-x="1515" d="M-39 0l930 1513h170l371 -1513h-166l-125 510h-705l-315 -510h-160zM520 647h588l-164 694zM723 1823l94 119l350 -238l-92 -115z" />
<glyph unicode="&#xc1;" horiz-adv-x="1515" d="M-39 0l930 1513h170l371 -1513h-166l-125 510h-705l-315 -510h-160zM520 647h588l-164 694zM854 1704l438 238l49 -119l-438 -234z" />
<glyph unicode="&#xc2;" horiz-adv-x="1515" d="M-39 0l930 1513h170l371 -1513h-166l-125 510h-705l-315 -510h-160zM520 647h588l-164 694zM633 1616l344 258h135l246 -258h-182l-148 151l-209 -151h-186z" />
<glyph unicode="&#xc3;" horiz-adv-x="1515" d="M-39 0l930 1513h170l371 -1513h-166l-125 510h-705l-315 -510h-160zM520 647h588l-164 694zM721 1743q47 49 95 76.5t87 27.5q28 0 112.5 -37.5t102.5 -37.5q75 0 146 77l43 -94q-81 -113 -189 -113q-54 0 -196 68q-13 8 -35 8q-18 0 -37 -10.5t-82 -56.5z" />
<glyph unicode="&#xc4;" horiz-adv-x="1515" d="M-39 0l930 1513h170l371 -1513h-166l-125 510h-705l-315 -510h-160zM520 647h588l-164 694zM766 1616l47 258h152l-47 -258h-152zM1067 1616l47 258h152l-47 -258h-152z" />
<glyph unicode="&#xc5;" horiz-adv-x="1515" d="M-39 0l930 1513h170l371 -1513h-166l-125 510h-705l-315 -510h-160zM520 647h588l-164 694zM811 1726q0 101 73 176.5t173 75.5q79 0 127.5 -49t48.5 -129q0 -89 -77.5 -162t-172.5 -73q-74 0 -123 45.5t-49 115.5zM897 1749q0 -40 29 -67t73 -27q54 0 101 43t47 92 q0 40 -31 69t-74 29q-56 0 -100.5 -42.5t-44.5 -96.5z" />
<glyph unicode="&#xc6;" horiz-adv-x="2031" d="M-39 0l1327 1513h848l-25 -137h-653l-102 -542h631l-25 -138h-631l-104 -559h653l-25 -137h-804l94 512h-555l-449 -512h-180zM713 649h458l123 670z" />
<glyph unicode="&#xc7;" horiz-adv-x="1665" d="M156 594q0 126 35 247.5t97 225.5t150.5 192t192 150t225.5 96.5t248 34.5q234 0 404 -116.5t210 -303.5h-168q-66 149 -183 215t-284 66q-148 0 -289 -63t-246.5 -166.5t-170 -245t-64.5 -291.5q0 -227 151.5 -374.5t383.5 -147.5q316 0 575 284h168 q-135 -200 -335 -311.5t-427 -112.5l-36 -71q44 10 69 10q75 0 122.5 -42t47.5 -112q0 -15 -4 -39q-18 -98 -93.5 -165.5t-178.5 -67.5q-74 0 -116 46.5t-48 127.5l110 12q4 -37 22 -52t56 -15q50 0 84.5 38t34.5 93q1 38 -21 60t-61 22q-59 0 -104 -39l-58 39l93 159 q-266 22 -429 191.5t-163 425.5z" />
<glyph unicode="&#xc8;" horiz-adv-x="1097" d="M94 0l281 1513h827l-24 -137h-676l-103 -542h654l-25 -138h-653l-105 -559h676l-24 -137h-828zM535 1823l94 119l350 -238l-92 -115z" />
<glyph unicode="&#xc9;" horiz-adv-x="1097" d="M94 0l281 1513h827l-24 -137h-676l-103 -542h654l-25 -138h-653l-105 -559h676l-24 -137h-828zM668 1704l438 238l49 -119l-438 -234z" />
<glyph unicode="&#xca;" horiz-adv-x="1097" d="M94 0l281 1513h827l-24 -137h-676l-103 -542h654l-25 -138h-653l-105 -559h676l-24 -137h-828zM446 1616l345 258h135l245 -258h-182l-147 151l-209 -151h-187z" />
<glyph unicode="&#xcb;" horiz-adv-x="1097" d="M94 0l281 1513h827l-24 -137h-676l-103 -542h654l-25 -138h-653l-105 -559h676l-24 -137h-828zM578 1616l47 258h151l-47 -258h-151zM879 1616l47 258h151l-47 -258h-151z" />
<glyph unicode="&#xcc;" horiz-adv-x="462" d="M94 0l281 1513h151l-280 -1513h-152zM188 1823l95 119l350 -238l-92 -115z" />
<glyph unicode="&#xcd;" horiz-adv-x="462" d="M94 0l281 1513h151l-280 -1513h-152zM338 1704l438 238l49 -119l-438 -234z" />
<glyph unicode="&#xce;" horiz-adv-x="462" d="M94 0l281 1513h151l-280 -1513h-152zM109 1616l344 258h135l246 -258h-183l-147 151l-209 -151h-186z" />
<glyph unicode="&#xcf;" horiz-adv-x="462" d="M94 0l281 1513h151l-280 -1513h-152zM240 1616l47 258h151l-47 -258h-151zM541 1616l47 258h151l-47 -258h-151z" />
<glyph unicode="&#xd0;" horiz-adv-x="1617" d="M129 711l25 137h190l125 665h356q205 0 332 -27t219 -91q242 -169 242 -471q0 -215 -87 -399t-251 -316q-138 -111 -298.5 -160t-385.5 -49h-408l131 711h-190zM367 137h211q234 0 382 46t265 155q108 101 171.5 250.5t63.5 302.5q0 116 -34 202.5t-108.5 151.5 t-202.5 98t-308 33h-211l-100 -528h422l-25 -137h-422z" />
<glyph unicode="&#xd1;" horiz-adv-x="1515" d="M94 0l281 1513h205l614 -1255l233 1255h152l-281 -1513h-151l-655 1331l-246 -1331h-152zM721 1743q47 49 95 76.5t87 27.5q28 0 112.5 -37.5t102.5 -37.5q75 0 146 77l43 -94q-81 -113 -189 -113q-54 0 -196 68q-13 8 -35 8q-18 0 -37 -10.5t-82 -56.5z" />
<glyph unicode="&#xd2;" horiz-adv-x="1779" d="M156 618q0 176 81 345.5t213 295.5t310 203.5t362 77.5q132 0 252.5 -48t210.5 -132t143.5 -206t53.5 -261q0 -175 -81 -344.5t-213.5 -295t-310.5 -203t-362 -77.5q-182 0 -332.5 82.5t-238.5 231t-88 331.5zM313 647q0 -224 153 -379t374 -155q149 0 293.5 63 t251.5 166t173 241t66 281q0 233 -152 385t-387 152q-143 0 -285 -64.5t-248.5 -168.5t-172.5 -242.5t-66 -278.5zM864 1823l94 119l351 -238l-92 -115z" />
<glyph unicode="&#xd3;" horiz-adv-x="1779" d="M156 618q0 176 81 345.5t213 295.5t310 203.5t362 77.5q132 0 252.5 -48t210.5 -132t143.5 -206t53.5 -261q0 -175 -81 -344.5t-213.5 -295t-310.5 -203t-362 -77.5q-182 0 -332.5 82.5t-238.5 231t-88 331.5zM313 647q0 -224 153 -379t374 -155q149 0 293.5 63 t251.5 166t173 241t66 281q0 233 -152 385t-387 152q-143 0 -285 -64.5t-248.5 -168.5t-172.5 -242.5t-66 -278.5zM995 1704l439 238l49 -119l-439 -234z" />
<glyph unicode="&#xd4;" horiz-adv-x="1779" d="M156 618q0 176 81 345.5t213 295.5t310 203.5t362 77.5q132 0 252.5 -48t210.5 -132t143.5 -206t53.5 -261q0 -175 -81 -344.5t-213.5 -295t-310.5 -203t-362 -77.5q-182 0 -332.5 82.5t-238.5 231t-88 331.5zM313 647q0 -224 153 -379t374 -155q149 0 293.5 63 t251.5 166t173 241t66 281q0 233 -152 385t-387 152q-143 0 -285 -64.5t-248.5 -168.5t-172.5 -242.5t-66 -278.5zM774 1616l344 258h135l246 -258h-182l-148 151l-208 -151h-187z" />
<glyph unicode="&#xd5;" horiz-adv-x="1779" d="M156 618q0 176 81 345.5t213 295.5t310 203.5t362 77.5q132 0 252.5 -48t210.5 -132t143.5 -206t53.5 -261q0 -175 -81 -344.5t-213.5 -295t-310.5 -203t-362 -77.5q-182 0 -332.5 82.5t-238.5 231t-88 331.5zM313 647q0 -224 153 -379t374 -155q149 0 293.5 63 t251.5 166t173 241t66 281q0 233 -152 385t-387 152q-143 0 -285 -64.5t-248.5 -168.5t-172.5 -242.5t-66 -278.5zM862 1743q47 49 95 76.5t87 27.5q28 0 113 -37.5t103 -37.5q74 0 145 77l43 -94q-81 -113 -188 -113q-55 0 -197 68q-13 8 -35 8q-18 0 -37 -10.5t-82 -56.5z " />
<glyph unicode="&#xd6;" horiz-adv-x="1779" d="M156 618q0 176 81 345.5t213 295.5t310 203.5t362 77.5q132 0 252.5 -48t210.5 -132t143.5 -206t53.5 -261q0 -175 -81 -344.5t-213.5 -295t-310.5 -203t-362 -77.5q-182 0 -332.5 82.5t-238.5 231t-88 331.5zM313 647q0 -224 153 -379t374 -155q149 0 293.5 63 t251.5 166t173 241t66 281q0 233 -152 385t-387 152q-143 0 -285 -64.5t-248.5 -168.5t-172.5 -242.5t-66 -278.5zM907 1616l47 258h152l-47 -258h-152zM1208 1616l47 258h152l-47 -258h-152z" />
<glyph unicode="&#xd7;" horiz-adv-x="1241" d="M266 217l295 295l-295 295l107 106l295 -295l295 295l106 -106l-295 -295l295 -295l-106 -106l-295 295l-295 -295z" />
<glyph unicode="&#xd8;" horiz-adv-x="1777" d="M86 -86l240 254q-176 173 -176 434q0 123 36.5 243t100.5 222.5t153.5 190.5t193 150t222.5 97t238 35q238 0 407 -115l240 256l92 -88l-234 -250q177 -174 177 -438q0 -177 -81 -348.5t-212.5 -299t-307 -206t-354.5 -78.5q-104 0 -213 31t-182 82l-242 -256zM307 633 q0 -114 25 -183.5t100 -166.5l965 1030q-60 41 -146 64.5t-178 23.5q-149 0 -291.5 -67t-245.5 -174.5t-166 -247t-63 -279.5zM530 199q87 -49 154 -67.5t156 -18.5q144 0 286 61.5t250 163t175 243t67 291.5q0 108 -22.5 175.5t-88.5 160.5l-14 21z" />
<glyph unicode="&#xd9;" d="M182 354q0 84 23 215l174 944h151l-174 -944q-18 -99 -18 -184q0 -122 81.5 -197t213.5 -75q172 0 287.5 112.5t158.5 343.5l174 944h152l-174 -944q-55 -297 -220 -446.5t-405 -149.5q-188 0 -306 106t-118 275zM639 1823l94 119l350 -238l-92 -115z" />
<glyph unicode="&#xda;" d="M182 354q0 84 23 215l174 944h151l-174 -944q-18 -99 -18 -184q0 -122 81.5 -197t213.5 -75q172 0 287.5 112.5t158.5 343.5l174 944h152l-174 -944q-55 -297 -220 -446.5t-405 -149.5q-188 0 -306 106t-118 275zM770 1704l438 238l49 -119l-438 -234z" />
<glyph unicode="&#xdb;" d="M182 354q0 84 23 215l174 944h151l-174 -944q-18 -99 -18 -184q0 -122 81.5 -197t213.5 -75q172 0 287.5 112.5t158.5 343.5l174 944h152l-174 -944q-55 -297 -220 -446.5t-405 -149.5q-188 0 -306 106t-118 275zM549 1616l344 258h135l246 -258h-182l-148 151l-209 -151 h-186z" />
<glyph unicode="&#xdc;" d="M182 354q0 84 23 215l174 944h151l-174 -944q-18 -99 -18 -184q0 -122 81.5 -197t213.5 -75q172 0 287.5 112.5t158.5 343.5l174 944h152l-174 -944q-55 -297 -220 -446.5t-405 -149.5q-188 0 -306 106t-118 275zM682 1616l47 258h152l-47 -258h-152zM983 1616l47 258 h152l-47 -258h-152z" />
<glyph unicode="&#xdd;" horiz-adv-x="1212" d="M223 1513h168l273 -847l598 847h165l-714 -1007l-95 -506h-151l94 506zM702 1704l439 238l49 -119l-438 -234z" />
<glyph unicode="&#xde;" horiz-adv-x="1212" d="M94 0l281 1513h151l-55 -301h266q267 0 386.5 -80.5t119.5 -261.5q0 -117 -42.5 -226.5t-117.5 -184.5q-80 -80 -192.5 -114t-298.5 -34h-289l-57 -311h-152zM328 449h280q147 0 232 24.5t141 83.5q47 51 75.5 129t28.5 156q0 130 -96 188q-72 45 -330 45h-215z" />
<glyph unicode="&#xdf;" horiz-adv-x="1134" d="M59 0l183 985q55 286 184 420.5t338 134.5q157 0 255.5 -93.5t98.5 -242.5q0 -271 -235 -407q213 -74 213 -295q0 -141 -69 -263t-185.5 -194t-251.5 -72q-133 0 -216 60t-122 190l-41 -223h-152zM289 416h104q-8 -41 -8 -64q0 -106 62.5 -172.5t162.5 -66.5 q131 0 229.5 108t98.5 250q0 109 -85.5 170t-238.5 61q-43 0 -88 -4l27 138h31q162 0 269.5 100t107.5 240q0 101 -61.5 163t-162.5 62q-139 0 -221.5 -99.5t-122.5 -316.5z" />
<glyph unicode="&#xe0;" horiz-adv-x="1398" d="M119 442q0 186 97 349t260.5 259.5t350.5 96.5q142 0 240 -52t160 -173l37 198h151l-207 -1120h-151l37 197q-125 -126 -228 -175t-245 -49q-226 0 -364 129t-138 340zM276 481q0 -164 104 -266t271 -102q133 0 253.5 75.5t192.5 200.5t72 264q0 154 -101 254.5 t-255 100.5q-105 0 -204 -43.5t-172 -115t-117 -168.5t-44 -200zM573 1450l95 119l350 -238l-92 -114z" />
<glyph unicode="&#xe1;" horiz-adv-x="1398" d="M119 442q0 186 97 349t260.5 259.5t350.5 96.5q142 0 240 -52t160 -173l37 198h151l-207 -1120h-151l37 197q-125 -126 -228 -175t-245 -49q-226 0 -364 129t-138 340zM276 481q0 -164 104 -266t271 -102q133 0 253.5 75.5t192.5 200.5t72 264q0 154 -101 254.5 t-255 100.5q-105 0 -204 -43.5t-172 -115t-117 -168.5t-44 -200zM705 1331l438 238l49 -119l-438 -233z" />
<glyph unicode="&#xe2;" horiz-adv-x="1398" d="M119 442q0 186 97 349t260.5 259.5t350.5 96.5q142 0 240 -52t160 -173l37 198h151l-207 -1120h-151l37 197q-125 -126 -228 -175t-245 -49q-226 0 -364 129t-138 340zM276 481q0 -164 104 -266t271 -102q133 0 253.5 75.5t192.5 200.5t72 264q0 154 -101 254.5 t-255 100.5q-105 0 -204 -43.5t-172 -115t-117 -168.5t-44 -200zM481 1243l344 258h136l245 -258h-182l-147 152l-209 -152h-187z" />
<glyph unicode="&#xe3;" horiz-adv-x="1398" d="M119 442q0 186 97 349t260.5 259.5t350.5 96.5q142 0 240 -52t160 -173l37 198h151l-207 -1120h-151l37 197q-125 -126 -228 -175t-245 -49q-226 0 -364 129t-138 340zM276 481q0 -164 104 -266t271 -102q133 0 253.5 75.5t192.5 200.5t72 264q0 154 -101 254.5 t-255 100.5q-105 0 -204 -43.5t-172 -115t-117 -168.5t-44 -200zM567 1370q47 49 96 77t87 28q28 0 112.5 -38t102.5 -38q73 0 145 78l43 -95q-80 -112 -188 -112q-57 0 -197 67q-15 9 -35 9q-18 0 -36 -10.5t-83 -57.5z" />
<glyph unicode="&#xe4;" horiz-adv-x="1398" d="M119 442q0 186 97 349t260.5 259.5t350.5 96.5q142 0 240 -52t160 -173l37 198h151l-207 -1120h-151l37 197q-125 -126 -228 -175t-245 -49q-226 0 -364 129t-138 340zM276 481q0 -164 104 -266t271 -102q133 0 253.5 75.5t192.5 200.5t72 264q0 154 -101 254.5 t-255 100.5q-105 0 -204 -43.5t-172 -115t-117 -168.5t-44 -200zM614 1243l48 258h151l-47 -258h-152zM915 1243l48 258h151l-47 -258h-152z" />
<glyph unicode="&#xe5;" horiz-adv-x="1398" d="M119 442q0 186 97 349t260.5 259.5t350.5 96.5q142 0 240 -52t160 -173l37 198h151l-207 -1120h-151l37 197q-125 -126 -228 -175t-245 -49q-226 0 -364 129t-138 340zM276 481q0 -164 104 -266t271 -102q133 0 253.5 75.5t192.5 200.5t72 264q0 154 -101 254.5 t-255 100.5q-105 0 -204 -43.5t-172 -115t-117 -168.5t-44 -200zM662 1348q0 101 72.5 176t172.5 75q78 0 126 -49t48 -129q0 -89 -77.5 -162t-172.5 -73q-74 0 -121.5 46t-47.5 116zM748 1370q0 -40 28 -67t72 -27q54 0 101.5 43t47.5 92q0 40 -31 69t-75 29 q-54 0 -98.5 -42.5t-44.5 -96.5z" />
<glyph unicode="&#xe6;" horiz-adv-x="2369" d="M119 449q0 129 56.5 256t150.5 224.5t225.5 157.5t271.5 60q295 0 406 -221l37 194h145l-37 -194q215 221 481 221q214 0 349 -130t135 -335q0 -76 -21 -176h-1013q-2 -20 -2 -45q0 -148 107 -248t265 -100q128 0 248.5 70t183.5 182h158q-74 -161 -255.5 -276.5 t-362.5 -115.5q-263 0 -410 215l-35 -188h-145l35 188q-209 -215 -478 -215q-223 0 -359 131t-136 345zM276 473q0 -158 102 -259t261 -101q105 0 204 44.5t172 117.5t117 173t44 205q0 158 -101 256.5t-264 98.5q-144 0 -268 -75t-195.5 -198.5t-71.5 -261.5zM1337 643h861 q-3 167 -101.5 266t-261.5 99q-165 0 -306.5 -104t-191.5 -261z" />
<glyph unicode="&#xe7;" horiz-adv-x="1325" d="M119 455q0 134 59.5 261.5t157 221.5t230 151.5t270.5 57.5q192 0 324 -98.5t169 -268.5h-170q-41 108 -132.5 168t-215.5 60q-104 0 -202.5 -44t-171.5 -116t-117 -170t-44 -201q0 -160 105.5 -262t269.5 -102q125 0 210.5 43.5t215.5 173.5h170q-140 -192 -284.5 -273 t-317.5 -84l-37 -71q45 10 70 10q75 0 122.5 -42t47.5 -112q0 -15 -4 -39q-18 -98 -94 -165.5t-179 -67.5q-74 0 -115.5 46.5t-47.5 127.5l110 12q4 -37 22 -52t56 -15q50 0 84.5 38t34.5 93q1 38 -21 60t-61 22q-60 0 -105 -39l-57 39l92 159q-201 20 -322.5 150 t-121.5 328z" />
<glyph unicode="&#xe8;" horiz-adv-x="1331" d="M119 451q0 181 96.5 342t257.5 257.5t342 96.5q214 0 349.5 -130.5t135.5 -336.5q0 -65 -18 -170h-1014q-4 -50 -4 -57q0 -142 106.5 -241t260.5 -99q126 0 249 72t189 184h158q-98 -181 -267.5 -288.5t-355.5 -107.5q-209 0 -347 136t-138 342zM299 647h858 q-8 166 -107 263.5t-262 97.5q-160 0 -296.5 -101.5t-192.5 -259.5zM561 1450l94 119l351 -238l-93 -114z" />
<glyph unicode="&#xe9;" horiz-adv-x="1331" d="M119 451q0 181 96.5 342t257.5 257.5t342 96.5q214 0 349.5 -130.5t135.5 -336.5q0 -65 -18 -170h-1014q-4 -50 -4 -57q0 -142 106.5 -241t260.5 -99q126 0 249 72t189 184h158q-98 -181 -267.5 -288.5t-355.5 -107.5q-209 0 -347 136t-138 342zM299 647h858 q-8 166 -107 263.5t-262 97.5q-160 0 -296.5 -101.5t-192.5 -259.5zM692 1331l438 238l50 -119l-439 -233z" />
<glyph unicode="&#xea;" horiz-adv-x="1331" d="M119 451q0 181 96.5 342t257.5 257.5t342 96.5q214 0 349.5 -130.5t135.5 -336.5q0 -65 -18 -170h-1014q-4 -50 -4 -57q0 -142 106.5 -241t260.5 -99q126 0 249 72t189 184h158q-98 -181 -267.5 -288.5t-355.5 -107.5q-209 0 -347 136t-138 342zM299 647h858 q-8 166 -107 263.5t-262 97.5q-160 0 -296.5 -101.5t-192.5 -259.5zM469 1243l344 258h135l246 -258h-182l-148 152l-209 -152h-186z" />
<glyph unicode="&#xeb;" horiz-adv-x="1331" d="M119 451q0 181 96.5 342t257.5 257.5t342 96.5q214 0 349.5 -130.5t135.5 -336.5q0 -65 -18 -170h-1014q-4 -50 -4 -57q0 -142 106.5 -241t260.5 -99q126 0 249 72t189 184h158q-98 -181 -267.5 -288.5t-355.5 -107.5q-209 0 -347 136t-138 342zM299 647h858 q-8 166 -107 263.5t-262 97.5q-160 0 -296.5 -101.5t-192.5 -259.5zM602 1243l47 258h152l-47 -258h-152zM903 1243l47 258h152l-47 -258h-152z" />
<glyph unicode="&#xec;" horiz-adv-x="409" d="M68 0l206 1120h152l-207 -1120h-151zM92 1450l94 119l351 -238l-93 -114z" />
<glyph unicode="&#xed;" horiz-adv-x="409" d="M68 0l206 1120h152l-207 -1120h-151zM242 1331l438 238l49 -119l-438 -233z" />
<glyph unicode="&#xee;" horiz-adv-x="409" d="M10 1243l344 258h135l246 -258h-182l-147 152l-209 -152h-187zM68 0l206 1120h152l-207 -1120h-151z" />
<glyph unicode="&#xef;" horiz-adv-x="409" d="M68 0l206 1120h152l-207 -1120h-151zM143 1243l47 258h152l-47 -258h-152zM444 1243l48 258h151l-47 -258h-152z" />
<glyph unicode="&#xf0;" d="M117 451q0 135 56.5 262.5t149.5 221t219.5 150t260.5 56.5q52 0 89.5 -7t96.5 -28l-151 188l-195 -82l-57 93l176 75l-94 93l112 75q17 -14 25.5 -21.5t14.5 -13t30.5 -29.5t48.5 -48l205 82l59 -93l-190 -75q344 -354 344 -641q0 -150 -55 -286.5t-148.5 -235 t-223 -156.5t-272.5 -58q-227 0 -364 130.5t-137 347.5zM274 469q0 -161 101 -258.5t270 -97.5q139 0 257.5 72.5t187.5 197t69 270.5q0 157 -97.5 256t-252.5 99q-143 0 -266.5 -73t-196 -197.5t-72.5 -268.5z" />
<glyph unicode="&#xf1;" horiz-adv-x="1249" d="M68 0l206 1120h152l-27 -145q178 172 385 172q184 0 293 -101t109 -270q0 -65 -23 -188l-108 -588h-152l109 588q16 91 16 151q0 123 -77.5 196t-207.5 73q-157 0 -264.5 -96.5t-144.5 -295.5l-115 -616h-151zM514 1370q47 49 95.5 77t86.5 28q28 0 112.5 -38t102.5 -38 q74 0 146 78l43 -95q-80 -112 -189 -112q-56 0 -196 67q-15 9 -35 9q-18 0 -36 -10.5t-83 -57.5z" />
<glyph unicode="&#xf2;" d="M117 440q0 142 59 274t156.5 226t228 150.5t268.5 56.5q214 0 347 -129t133 -338q0 -141 -58 -273t-153 -226.5t-220.5 -151t-256.5 -56.5q-223 0 -363.5 130t-140.5 337zM274 467q0 -158 101.5 -256t265.5 -98q140 0 257.5 73.5t185 200.5t67.5 279q0 149 -98.5 245.5 t-249.5 96.5q-141 0 -263 -73.5t-194 -198.5t-72 -269zM575 1450l95 119l350 -238l-92 -114z" />
<glyph unicode="&#xf3;" d="M117 440q0 142 59 274t156.5 226t228 150.5t268.5 56.5q214 0 347 -129t133 -338q0 -141 -58 -273t-153 -226.5t-220.5 -151t-256.5 -56.5q-223 0 -363.5 130t-140.5 337zM274 467q0 -158 101.5 -256t265.5 -98q140 0 257.5 73.5t185 200.5t67.5 279q0 149 -98.5 245.5 t-249.5 96.5q-141 0 -263 -73.5t-194 -198.5t-72 -269zM707 1331l438 238l49 -119l-438 -233z" />
<glyph unicode="&#xf4;" d="M117 440q0 142 59 274t156.5 226t228 150.5t268.5 56.5q214 0 347 -129t133 -338q0 -141 -58 -273t-153 -226.5t-220.5 -151t-256.5 -56.5q-223 0 -363.5 130t-140.5 337zM274 467q0 -158 101.5 -256t265.5 -98q140 0 257.5 73.5t185 200.5t67.5 279q0 149 -98.5 245.5 t-249.5 96.5q-141 0 -263 -73.5t-194 -198.5t-72 -269zM483 1243l344 258h136l245 -258h-182l-147 152l-209 -152h-187z" />
<glyph unicode="&#xf5;" d="M117 440q0 142 59 274t156.5 226t228 150.5t268.5 56.5q214 0 347 -129t133 -338q0 -141 -58 -273t-153 -226.5t-220.5 -151t-256.5 -56.5q-223 0 -363.5 130t-140.5 337zM274 467q0 -158 101.5 -256t265.5 -98q140 0 257.5 73.5t185 200.5t67.5 279q0 149 -98.5 245.5 t-249.5 96.5q-141 0 -263 -73.5t-194 -198.5t-72 -269zM569 1370q47 49 96 77t87 28q28 0 112.5 -38t102.5 -38q73 0 145 78l43 -95q-80 -112 -188 -112q-57 0 -197 67q-15 9 -35 9q-18 0 -36 -10.5t-83 -57.5z" />
<glyph unicode="&#xf6;" d="M117 440q0 142 59 274t156.5 226t228 150.5t268.5 56.5q214 0 347 -129t133 -338q0 -141 -58 -273t-153 -226.5t-220.5 -151t-256.5 -56.5q-223 0 -363.5 130t-140.5 337zM274 467q0 -158 101.5 -256t265.5 -98q140 0 257.5 73.5t185 200.5t67.5 279q0 149 -98.5 245.5 t-249.5 96.5q-141 0 -263 -73.5t-194 -198.5t-72 -269zM616 1243l48 258h151l-47 -258h-152zM918 1243l47 258h151l-47 -258h-151z" />
<glyph unicode="&#xf7;" horiz-adv-x="1241" d="M176 436v152h983v-152h-983zM539 133q0 54 37.5 91.5t91.5 37.5t91.5 -37.5t37.5 -91.5t-37.5 -91.5t-91.5 -37.5t-91.5 37.5t-37.5 91.5zM539 891q0 54 37.5 91.5t91.5 37.5t91.5 -37.5t37.5 -91.5t-37.5 -91.5t-91.5 -37.5t-91.5 37.5t-37.5 91.5z" />
<glyph unicode="&#xf8;" horiz-adv-x="1337" d="M94 4l127 135q-57 85 -78.5 149.5t-21.5 149.5q0 143 62 276t161 226.5t224.5 150t250.5 56.5q170 0 289 -84l143 151l95 -86l-144 -149q57 -60 82 -126.5t25 -156.5q0 -145 -56 -278.5t-150 -231t-223 -155.5t-268 -58q-167 0 -297 84l-129 -135zM279 461 q0 -114 47 -213l680 710q-94 50 -197 50q-100 0 -198 -46.5t-170.5 -121.5t-117 -175.5t-44.5 -203.5zM416 162q81 -33 111 -41t85 -8q230 0 384.5 164.5t154.5 410.5q0 54 -11 92.5t-40 91.5z" />
<glyph unicode="&#xf9;" horiz-adv-x="1245" d="M141 317q0 91 19 199l112 604h152l-113 -604q-12 -54 -12 -137q0 -127 69 -196.5t205 -69.5q158 0 272 103.5t156 328.5l109 575h152l-209 -1120h-152l33 174q-82 -107 -175.5 -154t-226.5 -47q-178 0 -284.5 93.5t-106.5 250.5zM518 1450l94 119l351 -238l-93 -114z" />
<glyph unicode="&#xfa;" horiz-adv-x="1245" d="M141 317q0 91 19 199l112 604h152l-113 -604q-12 -54 -12 -137q0 -127 69 -196.5t205 -69.5q158 0 272 103.5t156 328.5l109 575h152l-209 -1120h-152l33 174q-82 -107 -175.5 -154t-226.5 -47q-178 0 -284.5 93.5t-106.5 250.5zM649 1331l438 238l50 -119l-439 -233z " />
<glyph unicode="&#xfb;" horiz-adv-x="1245" d="M141 317q0 91 19 199l112 604h152l-113 -604q-12 -54 -12 -137q0 -127 69 -196.5t205 -69.5q158 0 272 103.5t156 328.5l109 575h152l-209 -1120h-152l33 174q-82 -107 -175.5 -154t-226.5 -47q-178 0 -284.5 93.5t-106.5 250.5zM426 1243l344 258h135l246 -258h-182 l-148 152l-209 -152h-186z" />
<glyph unicode="&#xfc;" horiz-adv-x="1245" d="M141 317q0 91 19 199l112 604h152l-113 -604q-12 -54 -12 -137q0 -127 69 -196.5t205 -69.5q158 0 272 103.5t156 328.5l109 575h152l-209 -1120h-152l33 174q-82 -107 -175.5 -154t-226.5 -47q-178 0 -284.5 93.5t-106.5 250.5zM559 1243l47 258h152l-47 -258h-152z M860 1243l47 258h152l-47 -258h-152z" />
<glyph unicode="&#xfd;" horiz-adv-x="1097" d="M137 -393l260 430l-233 1083h166l188 -893l545 893h162l-928 -1513h-160zM580 1331l438 238l49 -119l-438 -233z" />
<glyph unicode="&#xfe;" horiz-adv-x="1396" d="M-6 -393l354 1906h152l-109 -585q76 101 205 160t274 59q221 0 356.5 -132.5t135.5 -348.5q0 -133 -59 -260.5t-155 -222t-226.5 -152.5t-266.5 -58q-286 0 -401 220l-109 -586h-151zM301 465q0 -151 104 -251.5t261 -100.5q99 0 196 41t172.5 111t122.5 171t47 213 q0 157 -103.5 258t-264.5 101q-95 0 -190.5 -40.5t-172 -110.5t-124.5 -173.5t-48 -218.5z" />
<glyph unicode="&#xff;" horiz-adv-x="1097" d="M137 -393l260 430l-233 1083h166l188 -893l545 893h162l-928 -1513h-160zM489 1243l48 258h151l-47 -258h-152zM791 1243l47 258h151l-47 -258h-151z" />
<glyph unicode="&#x100;" horiz-adv-x="1515" d="M-39 0l930 1513h170l371 -1513h-166l-125 510h-705l-315 -510h-160zM520 647h588l-164 694zM662 1681l24 127h690l-24 -127h-690z" />
<glyph unicode="&#x101;" horiz-adv-x="1398" d="M119 442q0 186 97 349t260.5 259.5t350.5 96.5q142 0 240 -52t160 -173l37 198h151l-207 -1120h-151l37 197q-125 -126 -228 -175t-245 -49q-226 0 -364 129t-138 340zM276 481q0 -164 104 -266t271 -102q133 0 253.5 75.5t192.5 200.5t72 264q0 154 -101 254.5 t-255 100.5q-105 0 -204 -43.5t-172 -115t-117 -168.5t-44 -200zM510 1309l25 127h690l-25 -127h-690z" />
<glyph unicode="&#x102;" horiz-adv-x="1515" d="M-39 0l930 1513h170l371 -1513h-166l-125 510h-705l-315 -510h-160zM520 647h588l-164 694zM729 1866h131q9 -73 47 -100t119 -27q78 0 137.5 34t79.5 93h109q-35 -118 -125.5 -179t-227.5 -61q-128 0 -196 54.5t-74 185.5z" />
<glyph unicode="&#x103;" horiz-adv-x="1398" d="M119 442q0 186 97 349t260.5 259.5t350.5 96.5q142 0 240 -52t160 -173l37 198h151l-207 -1120h-151l37 197q-125 -126 -228 -175t-245 -49q-226 0 -364 129t-138 340zM276 481q0 -164 104 -266t271 -102q133 0 253.5 75.5t192.5 200.5t72 264q0 154 -101 254.5 t-255 100.5q-105 0 -204 -43.5t-172 -115t-117 -168.5t-44 -200zM567 1493h131q9 -73 47 -100t119 -27q78 0 137.5 34t79.5 93h109q-35 -118 -125 -179t-227 -61q-128 0 -196.5 54.5t-74.5 185.5z" />
<glyph unicode="&#x104;" horiz-adv-x="1515" d="M-39 0l930 1513h170l371 -1513q-94 -46 -151.5 -114t-57.5 -124q0 -48 16.5 -85t56.5 -37q59 0 103 8l-29 -152q-55 -8 -123 -8q-50 0 -86.5 19.5t-56 51.5t-28.5 67t-9 73q0 91 55 164q58 79 144 137l-125 510h-705l-315 -510h-160zM520 647h588l-164 694z" />
<glyph unicode="&#x105;" horiz-adv-x="1398" d="M119 442q0 186 97 349t260.5 259.5t350.5 96.5q142 0 240 -52t160 -173l37 198h151l-207 -1120q-94 -46 -151.5 -114t-57.5 -124q0 -48 17 -85t57 -37q59 0 103 8l-29 -152q-55 -8 -123 -8q-50 0 -86.5 19.5t-56 51.5t-28.5 67t-9 73q0 88 54 161t159 140l37 197 q-125 -126 -228 -175t-245 -49q-226 0 -364 129t-138 340zM276 481q0 -164 104 -266t271 -102q133 0 253.5 75.5t192.5 200.5t72 264q0 154 -101 254.5t-255 100.5q-105 0 -204 -43.5t-172 -115t-117 -168.5t-44 -200z" />
<glyph unicode="&#x106;" horiz-adv-x="1665" d="M156 594q0 126 35 247.5t97 225.5t150.5 192t192 150t225.5 96.5t248 34.5q234 0 404 -116.5t210 -303.5h-168q-66 149 -183 215t-284 66q-148 0 -289 -63t-246.5 -166.5t-170 -245t-64.5 -291.5q0 -227 151.5 -374.5t383.5 -147.5q316 0 575 284h168 q-137 -201 -338.5 -312.5t-429.5 -111.5q-296 0 -481.5 173t-185.5 448zM977 1704l438 238l49 -119l-438 -234z" />
<glyph unicode="&#x107;" horiz-adv-x="1325" d="M119 455q0 134 59.5 261.5t157 221.5t230 151.5t270.5 57.5q192 0 324 -98.5t169 -268.5h-170q-41 108 -132.5 168t-215.5 60q-104 0 -202.5 -44t-171.5 -116t-117 -170t-44 -201q0 -160 105.5 -262t269.5 -102q125 0 210.5 43.5t215.5 173.5h170q-144 -195 -290.5 -276 t-323.5 -81q-229 0 -371.5 133t-142.5 349zM713 1331l438 238l49 -119l-438 -233z" />
<glyph unicode="&#x108;" horiz-adv-x="1665" d="M156 594q0 126 35 247.5t97 225.5t150.5 192t192 150t225.5 96.5t248 34.5q234 0 404 -116.5t210 -303.5h-168q-66 149 -183 215t-284 66q-148 0 -289 -63t-246.5 -166.5t-170 -245t-64.5 -291.5q0 -227 151.5 -374.5t383.5 -147.5q316 0 575 284h168 q-137 -201 -338.5 -312.5t-429.5 -111.5q-296 0 -481.5 173t-185.5 448zM756 1616l344 258h135l246 -258h-183l-147 151l-209 -151h-186z" />
<glyph unicode="&#x109;" horiz-adv-x="1325" d="M119 455q0 134 59.5 261.5t157 221.5t230 151.5t270.5 57.5q192 0 324 -98.5t169 -268.5h-170q-41 108 -132.5 168t-215.5 60q-104 0 -202.5 -44t-171.5 -116t-117 -170t-44 -201q0 -160 105.5 -262t269.5 -102q125 0 210.5 43.5t215.5 173.5h170q-144 -195 -290.5 -276 t-323.5 -81q-229 0 -371.5 133t-142.5 349zM489 1243l345 258h135l245 -258h-182l-147 152l-209 -152h-187z" />
<glyph unicode="&#x10a;" horiz-adv-x="1665" d="M156 594q0 126 35 247.5t97 225.5t150.5 192t192 150t225.5 96.5t248 34.5q234 0 404 -116.5t210 -303.5h-168q-66 149 -183 215t-284 66q-148 0 -289 -63t-246.5 -166.5t-170 -245t-64.5 -291.5q0 -227 151.5 -374.5t383.5 -147.5q316 0 575 284h168 q-137 -201 -338.5 -312.5t-429.5 -111.5q-296 0 -481.5 173t-185.5 448zM1042 1616l48 258h151l-47 -258h-152z" />
<glyph unicode="&#x10b;" horiz-adv-x="1325" d="M119 455q0 134 59.5 261.5t157 221.5t230 151.5t270.5 57.5q192 0 324 -98.5t169 -268.5h-170q-41 108 -132.5 168t-215.5 60q-104 0 -202.5 -44t-171.5 -116t-117 -170t-44 -201q0 -160 105.5 -262t269.5 -102q125 0 210.5 43.5t215.5 173.5h170q-144 -195 -290.5 -276 t-323.5 -81q-229 0 -371.5 133t-142.5 349zM778 1243l47 258h152l-47 -258h-152z" />
<glyph unicode="&#x10c;" horiz-adv-x="1665" d="M156 594q0 126 35 247.5t97 225.5t150.5 192t192 150t225.5 96.5t248 34.5q234 0 404 -116.5t210 -303.5h-168q-66 149 -183 215t-284 66q-148 0 -289 -63t-246.5 -166.5t-170 -245t-64.5 -291.5q0 -227 151.5 -374.5t383.5 -147.5q316 0 575 284h168 q-137 -201 -338.5 -312.5t-429.5 -111.5q-296 0 -481.5 173t-185.5 448zM803 1874h182l148 -152l208 152h187l-344 -258h-135z" />
<glyph unicode="&#x10d;" horiz-adv-x="1325" d="M119 455q0 134 59.5 261.5t157 221.5t230 151.5t270.5 57.5q192 0 324 -98.5t169 -268.5h-170q-41 108 -132.5 168t-215.5 60q-104 0 -202.5 -44t-171.5 -116t-117 -170t-44 -201q0 -160 105.5 -262t269.5 -102q125 0 210.5 43.5t215.5 173.5h170q-144 -195 -290.5 -276 t-323.5 -81q-229 0 -371.5 133t-142.5 349zM539 1501h182l147 -151l209 151h187l-344 -258h-136z" />
<glyph unicode="&#x10e;" horiz-adv-x="1523" d="M94 0l281 1513h356q204 0 332 -27.5t219 -90.5q119 -82 180.5 -203.5t61.5 -273.5q0 -210 -88 -394.5t-250 -314.5q-138 -111 -298.5 -160t-385.5 -49h-408zM270 137h211q237 0 384.5 46t264.5 155q109 101 172.5 250.5t63.5 302.5q0 116 -34 202.5t-108.5 151.5 t-202.5 98t-308 33h-211zM543 1874h182l147 -152l209 152h187l-344 -258h-136z" />
<glyph unicode="&#x10f;" horiz-adv-x="1402" d="M119 444q0 138 58.5 267.5t155.5 225t229.5 153t273.5 57.5q260 0 399 -205l106 571h152l-281 -1513h-151l37 203q-109 -123 -218.5 -176.5t-254.5 -53.5q-220 0 -363 133.5t-143 337.5zM276 483q0 -166 105 -268t274 -102q132 0 254 75.5t196.5 200.5t74.5 262 q0 154 -107.5 255.5t-269.5 101.5q-134 0 -256.5 -73.5t-196.5 -195.5t-74 -256zM1554 1147l172 366h152l-178 -366h-146z" />
<glyph unicode="&#x110;" horiz-adv-x="1617" d="M129 711l25 137h190l125 665h356q205 0 332 -27t219 -91q242 -169 242 -471q0 -215 -87 -399t-251 -316q-138 -111 -298.5 -160t-385.5 -49h-408l131 711h-190zM367 137h211q234 0 382 46t265 155q108 101 171.5 250.5t63.5 302.5q0 116 -34 202.5t-108.5 151.5 t-202.5 98t-308 33h-211l-100 -528h422l-25 -137h-422z" />
<glyph unicode="&#x111;" horiz-adv-x="1402" d="M119 444q0 138 58.5 267.5t155.5 225t229.5 153t273.5 57.5q260 0 399 -205l55 291h-311l25 129h311l26 151h152l-29 -151h129l-22 -129h-129l-230 -1233h-151l37 203q-109 -123 -218.5 -176.5t-254.5 -53.5q-220 0 -363 133.5t-143 337.5zM276 483q0 -166 105 -268 t274 -102q132 0 254 75.5t196.5 200.5t74.5 262q0 152 -108 254.5t-269 102.5q-134 0 -256.5 -73.5t-196.5 -195.5t-74 -256z" />
<glyph unicode="&#x112;" horiz-adv-x="1097" d="M94 0l281 1513h827l-24 -137h-676l-103 -542h654l-25 -138h-653l-105 -559h676l-24 -137h-828zM473 1681l25 127h690l-25 -127h-690z" />
<glyph unicode="&#x113;" horiz-adv-x="1331" d="M119 451q0 181 96.5 342t257.5 257.5t342 96.5q214 0 349.5 -130.5t135.5 -336.5q0 -65 -18 -170h-1014q-4 -50 -4 -57q0 -142 106.5 -241t260.5 -99q126 0 249 72t189 184h158q-98 -181 -267.5 -288.5t-355.5 -107.5q-209 0 -347 136t-138 342zM299 647h858 q-8 166 -107 263.5t-262 97.5q-160 0 -296.5 -101.5t-192.5 -259.5zM498 1309l24 127h690l-24 -127h-690z" />
<glyph unicode="&#x114;" horiz-adv-x="1097" d="M94 0l281 1513h827l-24 -137h-676l-103 -542h654l-25 -138h-653l-105 -559h676l-24 -137h-828zM543 1866h131q9 -73 47 -100t119 -27q78 0 137.5 34t79.5 93h108q-35 -118 -125 -179t-227 -61q-128 0 -196 54.5t-74 185.5z" />
<glyph unicode="&#x115;" horiz-adv-x="1331" d="M119 451q0 181 96.5 342t257.5 257.5t342 96.5q214 0 349.5 -130.5t135.5 -336.5q0 -65 -18 -170h-1014q-4 -50 -4 -57q0 -142 106.5 -241t260.5 -99q126 0 249 72t189 184h158q-98 -181 -267.5 -288.5t-355.5 -107.5q-209 0 -347 136t-138 342zM299 647h858 q-8 166 -107 263.5t-262 97.5q-160 0 -296.5 -101.5t-192.5 -259.5zM555 1493h131q9 -73 47 -100t119 -27q78 0 137.5 34t79.5 93h109q-35 -118 -125.5 -179t-227.5 -61q-128 0 -196 54.5t-74 185.5z" />
<glyph unicode="&#x116;" horiz-adv-x="1097" d="M94 0l281 1513h827l-24 -137h-676l-103 -542h654l-25 -138h-653l-105 -559h676l-24 -137h-828zM733 1616l47 258h152l-47 -258h-152z" />
<glyph unicode="&#x117;" horiz-adv-x="1331" d="M119 451q0 181 96.5 342t257.5 257.5t342 96.5q214 0 349.5 -130.5t135.5 -336.5q0 -65 -18 -170h-1014q-4 -50 -4 -57q0 -142 106.5 -241t260.5 -99q126 0 249 72t189 184h158q-98 -181 -267.5 -288.5t-355.5 -107.5q-209 0 -347 136t-138 342zM299 647h858 q-8 166 -107 263.5t-262 97.5q-160 0 -296.5 -101.5t-192.5 -259.5zM758 1243l47 258h151l-47 -258h-151z" />
<glyph unicode="&#x118;" horiz-adv-x="1097" d="M94 0l281 1513h827l-24 -137h-676l-103 -542h654l-25 -138h-653l-105 -559h676l-24 -137q-94 -46 -151.5 -114t-57.5 -124q0 -48 16.5 -85t56.5 -37q59 0 103 8l-27 -152q-57 -8 -123 -8q-50 0 -87 19.5t-56.5 51.5t-29 67t-9.5 73q0 88 54 161t159 140h-676z" />
<glyph unicode="&#x119;" horiz-adv-x="1331" d="M119 451q0 181 96.5 342t257.5 257.5t342 96.5q214 0 349.5 -130.5t135.5 -336.5q0 -65 -18 -170h-1014q-4 -50 -4 -57q0 -142 106.5 -241t260.5 -99q126 0 249 72t189 184h158q-109 -202 -301 -308q-154 -90 -209 -133q-107 -86 -107 -166q0 -48 17 -85t57 -37 q58 0 102 8l-28 -152q-55 -8 -123 -8q-50 0 -86.5 19.5t-56 51.5t-28.5 67t-9 73q0 152 174 274h-25q-209 0 -347 136t-138 342zM299 647h858q-8 166 -107 263.5t-262 97.5q-160 0 -296.5 -101.5t-192.5 -259.5z" />
<glyph unicode="&#x11a;" horiz-adv-x="1097" d="M94 0l281 1513h827l-24 -137h-676l-103 -542h654l-25 -138h-653l-105 -559h676l-24 -137h-828zM494 1874h182l147 -152l209 152h187l-345 -258h-135z" />
<glyph unicode="&#x11b;" horiz-adv-x="1331" d="M119 451q0 181 96.5 342t257.5 257.5t342 96.5q214 0 349.5 -130.5t135.5 -336.5q0 -65 -18 -170h-1014q-4 -50 -4 -57q0 -142 106.5 -241t260.5 -99q126 0 249 72t189 184h158q-98 -181 -267.5 -288.5t-355.5 -107.5q-209 0 -347 136t-138 342zM299 647h858 q-8 166 -107 263.5t-262 97.5q-160 0 -296.5 -101.5t-192.5 -259.5zM518 1501h182l148 -151l209 151h186l-344 -258h-135z" />
<glyph unicode="&#x11c;" horiz-adv-x="1785" d="M158 614q0 180 79 350.5t209 296.5t306.5 202.5t363.5 76.5q247 0 421.5 -117.5t217.5 -312.5h-172q-47 134 -175 212.5t-298 78.5q-157 0 -304 -62t-254.5 -165t-172 -243.5t-64.5 -291.5q0 -237 157 -381.5t398 -144.5q215 0 405 122.5t288 325.5h-848l24 137h1030 q-37 -148 -127 -281.5t-211 -231t-273 -155t-306 -57.5q-202 0 -360 81t-246 227.5t-88 332.5zM768 1616l344 258h135l246 -258h-182l-148 151l-209 -151h-186z" />
<glyph unicode="&#x11d;" horiz-adv-x="1378" d="M61 -35h148q68 -159 143 -212.5t219 -53.5q198 0 324.5 115t167.5 338l14 75q-167 -254 -473 -254q-214 0 -350.5 133.5t-136.5 342.5q0 135 58 264t153 224t222.5 152.5t260.5 57.5q137 0 224 -46t171 -179l37 198h152l-172 -919q-34 -179 -72 -270.5t-113 -170.5 q-91 -97 -218.5 -148.5t-276.5 -51.5q-203 0 -324.5 95.5t-157.5 309.5zM274 483q0 -160 92.5 -265t262.5 -105q133 0 253.5 74.5t194.5 203t74 275.5q0 148 -103 245t-260 97q-127 0 -245.5 -70t-193.5 -192.5t-75 -262.5zM465 1243l344 258h135l246 -258h-182l-148 152 l-209 -152h-186z" />
<glyph unicode="&#x11e;" horiz-adv-x="1785" d="M158 614q0 180 79 350.5t209 296.5t306.5 202.5t363.5 76.5q247 0 421.5 -117.5t217.5 -312.5h-172q-47 134 -175 212.5t-298 78.5q-157 0 -304 -62t-254.5 -165t-172 -243.5t-64.5 -291.5q0 -237 157 -381.5t398 -144.5q215 0 405 122.5t288 325.5h-848l24 137h1030 q-37 -148 -127 -281.5t-211 -231t-273 -155t-306 -57.5q-202 0 -360 81t-246 227.5t-88 332.5zM864 1866h131q9 -73 47 -100t119 -27q78 0 137.5 34t79.5 93h109q-35 -118 -125 -179t-227 -61q-128 0 -196.5 54.5t-74.5 185.5z" />
<glyph unicode="&#x11f;" horiz-adv-x="1378" d="M61 -35h148q68 -159 143 -212.5t219 -53.5q198 0 324.5 115t167.5 338l14 75q-167 -254 -473 -254q-214 0 -350.5 133.5t-136.5 342.5q0 135 58 264t153 224t222.5 152.5t260.5 57.5q137 0 224 -46t171 -179l37 198h152l-172 -919q-34 -179 -72 -270.5t-113 -170.5 q-91 -97 -218.5 -148.5t-276.5 -51.5q-203 0 -324.5 95.5t-157.5 309.5zM274 483q0 -160 92.5 -265t262.5 -105q133 0 253.5 74.5t194.5 203t74 275.5q0 148 -103 245t-260 97q-127 0 -245.5 -70t-193.5 -192.5t-75 -262.5zM551 1493h131q9 -73 47 -100t119 -27 q78 0 137.5 34t79.5 93h109q-35 -118 -125.5 -179t-227.5 -61q-128 0 -196 54.5t-74 185.5z" />
<glyph unicode="&#x120;" horiz-adv-x="1785" d="M158 614q0 180 79 350.5t209 296.5t306.5 202.5t363.5 76.5q247 0 421.5 -117.5t217.5 -312.5h-172q-47 134 -175 212.5t-298 78.5q-157 0 -304 -62t-254.5 -165t-172 -243.5t-64.5 -291.5q0 -237 157 -381.5t398 -144.5q215 0 405 122.5t288 325.5h-848l24 137h1030 q-37 -148 -127 -281.5t-211 -231t-273 -155t-306 -57.5q-202 0 -360 81t-246 227.5t-88 332.5zM1055 1616l47 258h151l-47 -258h-151z" />
<glyph unicode="&#x121;" horiz-adv-x="1378" d="M61 -35h148q68 -159 143 -212.5t219 -53.5q198 0 324.5 115t167.5 338l14 75q-167 -254 -473 -254q-214 0 -350.5 133.5t-136.5 342.5q0 135 58 264t153 224t222.5 152.5t260.5 57.5q137 0 224 -46t171 -179l37 198h152l-172 -919q-34 -179 -72 -270.5t-113 -170.5 q-91 -97 -218.5 -148.5t-276.5 -51.5q-203 0 -324.5 95.5t-157.5 309.5zM274 483q0 -160 92.5 -265t262.5 -105q133 0 253.5 74.5t194.5 203t74 275.5q0 148 -103 245t-260 97q-127 0 -245.5 -70t-193.5 -192.5t-75 -262.5zM754 1243l47 258h151l-47 -258h-151z" />
<glyph unicode="&#x122;" horiz-adv-x="1785" d="M158 614q0 180 79 350.5t209 296.5t306.5 202.5t363.5 76.5q247 0 421.5 -117.5t217.5 -312.5h-172q-47 134 -175 212.5t-298 78.5q-157 0 -304 -62t-254.5 -165t-172 -243.5t-64.5 -291.5q0 -237 157 -381.5t398 -144.5q215 0 405 122.5t288 325.5h-848l24 137h1030 q-37 -148 -127 -281.5t-211 -231t-273 -155t-306 -57.5q-202 0 -360 81t-246 227.5t-88 332.5zM606 -475l172 366h152l-178 -366h-146z" />
<glyph unicode="&#x123;" horiz-adv-x="1378" d="M61 -35h148q68 -159 143 -212.5t219 -53.5q198 0 324.5 115t167.5 338l14 75q-167 -254 -473 -254q-214 0 -350.5 133.5t-136.5 342.5q0 135 58 264t153 224t222.5 152.5t260.5 57.5q137 0 224 -46t171 -179l37 198h152l-172 -919q-34 -179 -72 -270.5t-113 -170.5 q-91 -97 -218.5 -148.5t-276.5 -51.5q-203 0 -324.5 95.5t-157.5 309.5zM274 483q0 -160 92.5 -265t262.5 -105q133 0 253.5 74.5t194.5 203t74 275.5q0 148 -103 245t-260 97q-127 0 -245.5 -70t-193.5 -192.5t-75 -262.5zM702 1255l179 367h145l-172 -367h-152z" />
<glyph unicode="&#x124;" horiz-adv-x="1398" d="M94 0l281 1513h151l-123 -665h785l123 665h151l-280 -1513h-152l131 711h-784l-131 -711h-152zM575 1616l345 258h135l245 -258h-182l-147 151l-209 -151h-187z" />
<glyph unicode="&#x125;" horiz-adv-x="1249" d="M68 0l280 1513h152l-101 -538q75 83 172.5 127.5t206.5 44.5q193 0 300.5 -99t107.5 -278q0 -49 -21 -168l-110 -602h-152l111 602q14 91 14 148q0 114 -80 186t-205 72q-156 0 -264.5 -101.5t-144.5 -292.5l-115 -614h-151zM502 1616l344 258h135l246 -258h-183 l-147 151l-209 -151h-186z" />
<glyph unicode="&#x126;" horiz-adv-x="1398" d="M94 0l215 1157h-131l25 131h131l41 225h151l-41 -225h785l41 225h151l-41 -225h138l-25 -131h-137l-215 -1157h-152l131 711h-784l-131 -711h-152zM403 848h785l57 309h-784z" />
<glyph unicode="&#x127;" horiz-adv-x="1249" d="M66 0l233 1260h-109l25 131h111l22 122h152l-23 -122h203l-25 -131h-202l-56 -285q72 83 172.5 127.5t216.5 44.5q122 0 215 -45.5t140 -128.5q73 -131 26 -371l-110 -602h-152l111 602q36 188 -23 283q-34 57 -100 90t-148 33q-86 0 -166 -37t-139 -103 q-42 -45 -66 -103t-42 -151l-115 -614h-151z" />
<glyph unicode="&#x128;" horiz-adv-x="462" d="M94 0l281 1513h151l-280 -1513h-152zM195 1743q47 49 95 76.5t87 27.5q28 0 112.5 -37.5t102.5 -37.5q74 0 145 77l43 -94q-81 -113 -188 -113q-55 0 -197 68q-13 8 -35 8q-18 0 -36 -10.5t-82 -56.5z" />
<glyph unicode="&#x129;" horiz-adv-x="409" d="M68 0l206 1120h152l-207 -1120h-151zM96 1370q47 49 96 77t87 28q28 0 112.5 -38t102.5 -38q73 0 145 78l43 -95q-80 -112 -188 -112q-57 0 -197 67q-15 9 -35 9q-18 0 -36 -10.5t-83 -57.5z" />
<glyph unicode="&#x12a;" horiz-adv-x="462" d="M94 0l281 1513h151l-280 -1513h-152zM135 1681l25 127h690l-25 -127h-690z" />
<glyph unicode="&#x12b;" horiz-adv-x="409" d="M39 1309l24 127h691l-25 -127h-690zM68 0l206 1120h152l-207 -1120h-151z" />
<glyph unicode="&#x12c;" horiz-adv-x="462" d="M94 0l281 1513h151l-280 -1513h-152zM205 1866h131q9 -73 47 -100t119 -27q78 0 137.5 34t79.5 93h108q-35 -118 -125 -179t-227 -61q-128 0 -196 54.5t-74 185.5z" />
<glyph unicode="&#x12d;" horiz-adv-x="409" d="M68 0l206 1120h152l-207 -1120h-151zM96 1493h131q9 -73 47 -100t119 -27q78 0 137.5 34t79.5 93h109q-35 -118 -125 -179t-227 -61q-128 0 -196.5 54.5t-74.5 185.5z" />
<glyph unicode="&#x12e;" horiz-adv-x="462" d="M-119 -301q0 127 123 235q37 32 90 66l281 1513h151l-280 -1513q-94 -46 -151.5 -114t-57.5 -124q0 -48 17 -85t57 -37q58 0 102 8l-29 -152q-55 -8 -123 -8q-50 0 -86.5 19.5t-56 51.5t-28.5 67t-9 73z" />
<glyph unicode="&#x12f;" horiz-adv-x="409" d="M-145 -301q0 88 54 161t159 140l206 1120h152l-207 -1120q-94 -46 -151.5 -114t-57.5 -124q0 -48 17 -85t57 -37q58 0 102 8l-28 -152q-55 -8 -123 -8q-50 0 -86.5 19.5t-56 51.5t-28.5 67t-9 73zM299 1243l47 258h152l-47 -258h-152z" />
<glyph unicode="&#x130;" horiz-adv-x="462" d="M94 0l281 1513h151l-280 -1513h-152zM395 1616l47 258h152l-47 -258h-152z" />
<glyph unicode="&#x131;" horiz-adv-x="409" d="M68 0l206 1120h152l-207 -1120h-151z" />
<glyph unicode="&#x134;" horiz-adv-x="987" d="M23 299q0 36 4 59h149q13 -132 57 -189.5t152 -57.5q127 0 205 88t115 274l194 1040h152l-195 -1040q-46 -247 -171.5 -374.5t-322.5 -127.5q-157 0 -248 84t-91 244zM633 1616l344 258h135l246 -258h-182l-148 151l-209 -151h-186z" />
<glyph unicode="&#x135;" horiz-adv-x="415" d="M-227 -393l26 145q130 7 193.5 79t97.5 247l193 1042h151l-192 -1042q-71 -450 -469 -471zM18 1243l344 258h136l245 -258h-182l-147 152l-209 -152h-187z" />
<glyph unicode="&#x136;" horiz-adv-x="1210" d="M94 0l281 1513h151l-161 -870l862 870h190l-735 -737l455 -776h-191l-383 655l-241 -241l-76 -414h-152zM373 -475l172 366h151l-178 -366h-145z" />
<glyph unicode="&#x137;" horiz-adv-x="1028" d="M68 0l280 1513h152l-199 -1073l647 680h187l-541 -563l362 -557h-188l-289 449l-217 -218l-43 -231h-151zM270 -475l172 366h152l-178 -366h-146z" />
<glyph unicode="&#x139;" horiz-adv-x="946" d="M94 0l281 1513h151l-256 -1376h627l-25 -137h-778zM338 1704l438 238l49 -119l-438 -234z" />
<glyph unicode="&#x13a;" horiz-adv-x="409" d="M68 0l280 1513h152l-281 -1513h-151zM311 1704l439 238l49 -119l-439 -234z" />
<glyph unicode="&#x13b;" horiz-adv-x="946" d="M94 0l281 1513h151l-256 -1376h627l-25 -137h-778zM260 -475l172 366h152l-178 -366h-146z" />
<glyph unicode="&#x13c;" horiz-adv-x="409" d="M-80 -475l172 366h152l-178 -366h-146zM68 0l280 1513h152l-281 -1513h-151z" />
<glyph unicode="&#x13d;" horiz-adv-x="946" d="M94 0l281 1513h151l-256 -1376h627l-25 -137h-778zM588 1147l172 366h151l-178 -366h-145z" />
<glyph unicode="&#x13e;" horiz-adv-x="409" d="M68 0l280 1513h152l-281 -1513h-151zM561 1147l172 366h152l-178 -366h-146z" />
<glyph unicode="&#x13f;" horiz-adv-x="946" d="M94 0l281 1513h151l-256 -1376h627l-25 -137h-778zM688 655l47 258h152l-47 -258h-152z" />
<glyph unicode="&#x140;" horiz-adv-x="561" d="M68 0l280 1513h152l-281 -1513h-151zM469 655l47 258h152l-47 -258h-152z" />
<glyph unicode="&#x141;" horiz-adv-x="1058" d="M82 463l33 172l221 166l133 712h152l-119 -641l370 271l-30 -172l-373 -271l-104 -563h626l-24 -137h-779l117 629z" />
<glyph unicode="&#x142;" horiz-adv-x="614" d="M131 610l27 152l184 108l119 643h151l-106 -587l190 112l-28 -149l-191 -113l-145 -776h-152l135 721z" />
<glyph unicode="&#x143;" horiz-adv-x="1515" d="M94 0l281 1513h205l614 -1255l233 1255h152l-281 -1513h-151l-655 1331l-246 -1331h-152zM856 1704l438 238l49 -119l-438 -234z" />
<glyph unicode="&#x144;" horiz-adv-x="1249" d="M68 0l206 1120h152l-27 -145q178 172 385 172q184 0 293 -101t109 -270q0 -65 -23 -188l-108 -588h-152l109 588q16 91 16 151q0 123 -77.5 196t-207.5 73q-157 0 -264.5 -96.5t-144.5 -295.5l-115 -616h-151zM651 1331l439 238l49 -119l-439 -233z" />
<glyph unicode="&#x145;" horiz-adv-x="1515" d="M94 0l281 1513h205l614 -1255l233 1255h152l-281 -1513h-151l-655 1331l-246 -1331h-152zM473 -475l172 366h152l-179 -366h-145z" />
<glyph unicode="&#x146;" horiz-adv-x="1249" d="M68 0l206 1120h152l-27 -145q178 172 385 172q184 0 293 -101t109 -270q0 -65 -23 -188l-108 -588h-152l109 588q16 91 16 151q0 123 -77.5 196t-207.5 73q-157 0 -264.5 -96.5t-144.5 -295.5l-115 -616h-151zM338 -475l172 366h152l-179 -366h-145z" />
<glyph unicode="&#x147;" horiz-adv-x="1515" d="M94 0l281 1513h205l614 -1255l233 1255h152l-281 -1513h-151l-655 1331l-246 -1331h-152zM682 1874h182l148 -152l209 152h186l-344 -258h-135z" />
<glyph unicode="&#x148;" horiz-adv-x="1249" d="M68 0l206 1120h152l-27 -145q178 172 385 172q184 0 293 -101t109 -270q0 -65 -23 -188l-108 -588h-152l109 588q16 91 16 151q0 123 -77.5 196t-207.5 73q-157 0 -264.5 -96.5t-144.5 -295.5l-115 -616h-151zM477 1501h182l148 -151l209 151h186l-344 -258h-135z" />
<glyph unicode="&#x14a;" horiz-adv-x="1515" d="M94 0l281 1513h205l614 -1255l233 1255h152l-285 -1525q-46 -247 -171 -374.5t-322 -127.5q-157 0 -248.5 84t-91.5 244q0 36 4 59h149q13 -132 57 -190t152 -58q113 0 201.5 96.5t112.5 227.5l10 53l-655 1329l-246 -1331h-152z" />
<glyph unicode="&#x14b;" horiz-adv-x="1249" d="M68 0l206 1120h152l-27 -145q178 172 385 172q184 0 293 -101t109 -270q0 -65 -23 -188l-94 -510q-71 -450 -469 -471l27 145q130 7 193.5 79t97.5 247l94 510q16 91 16 151q0 123 -77.5 196t-207.5 73q-157 0 -264.5 -96.5t-144.5 -295.5l-115 -616h-151z" />
<glyph unicode="&#x14c;" horiz-adv-x="1779" d="M156 618q0 176 81 345.5t213 295.5t310 203.5t362 77.5q132 0 252.5 -48t210.5 -132t143.5 -206t53.5 -261q0 -175 -81 -344.5t-213.5 -295t-310.5 -203t-362 -77.5q-182 0 -332.5 82.5t-238.5 231t-88 331.5zM313 647q0 -224 153 -379t374 -155q149 0 293.5 63 t251.5 166t173 241t66 281q0 233 -152 385t-387 152q-143 0 -285 -64.5t-248.5 -168.5t-172.5 -242.5t-66 -278.5zM803 1681l24 127h691l-25 -127h-690z" />
<glyph unicode="&#x14d;" d="M117 440q0 142 59 274t156.5 226t228 150.5t268.5 56.5q214 0 347 -129t133 -338q0 -141 -58 -273t-153 -226.5t-220.5 -151t-256.5 -56.5q-223 0 -363.5 130t-140.5 337zM274 467q0 -158 101.5 -256t265.5 -98q140 0 257.5 73.5t185 200.5t67.5 279q0 149 -98.5 245.5 t-249.5 96.5q-141 0 -263 -73.5t-194 -198.5t-72 -269zM512 1309l25 127h690l-25 -127h-690z" />
<glyph unicode="&#x14e;" horiz-adv-x="1779" d="M156 618q0 176 81 345.5t213 295.5t310 203.5t362 77.5q132 0 252.5 -48t210.5 -132t143.5 -206t53.5 -261q0 -175 -81 -344.5t-213.5 -295t-310.5 -203t-362 -77.5q-182 0 -332.5 82.5t-238.5 231t-88 331.5zM313 647q0 -224 153 -379t374 -155q149 0 293.5 63 t251.5 166t173 241t66 281q0 233 -152 385t-387 152q-143 0 -285 -64.5t-248.5 -168.5t-172.5 -242.5t-66 -278.5zM870 1866h131q9 -73 47 -100t119 -27q78 0 137.5 34t79.5 93h109q-35 -118 -125 -179t-227 -61q-128 0 -196.5 54.5t-74.5 185.5z" />
<glyph unicode="&#x14f;" d="M117 440q0 142 59 274t156.5 226t228 150.5t268.5 56.5q214 0 347 -129t133 -338q0 -141 -58 -273t-153 -226.5t-220.5 -151t-256.5 -56.5q-223 0 -363.5 130t-140.5 337zM274 467q0 -158 101.5 -256t265.5 -98q140 0 257.5 73.5t185 200.5t67.5 279q0 149 -98.5 245.5 t-249.5 96.5q-141 0 -263 -73.5t-194 -198.5t-72 -269zM569 1493h131q9 -73 47 -100t119 -27q78 0 137.5 34t79.5 93h109q-35 -118 -125 -179t-227 -61q-128 0 -196.5 54.5t-74.5 185.5z" />
<glyph unicode="&#x150;" horiz-adv-x="1779" d="M156 618q0 176 81 345.5t213 295.5t310 203.5t362 77.5q132 0 252.5 -48t210.5 -132t143.5 -206t53.5 -261q0 -175 -81 -344.5t-213.5 -295t-310.5 -203t-362 -77.5q-182 0 -332.5 82.5t-238.5 231t-88 331.5zM313 647q0 -224 153 -379t374 -155q149 0 293.5 63 t251.5 166t173 241t66 281q0 233 -152 385t-387 152q-143 0 -285 -64.5t-248.5 -168.5t-172.5 -242.5t-66 -278.5zM883 1692l393 250l63 -103l-397 -250zM1282 1692l395 250l62 -103l-398 -250z" />
<glyph unicode="&#x151;" d="M117 440q0 142 59 274t156.5 226t228 150.5t268.5 56.5q214 0 347 -129t133 -338q0 -141 -58 -273t-153 -226.5t-220.5 -151t-256.5 -56.5q-223 0 -363.5 130t-140.5 337zM274 467q0 -158 101.5 -256t265.5 -98q140 0 257.5 73.5t185 200.5t67.5 279q0 149 -98.5 245.5 t-249.5 96.5q-141 0 -263 -73.5t-194 -198.5t-72 -269zM590 1298l393 250l64 -102l-398 -250zM989 1298l395 250l62 -102l-397 -250z" />
<glyph unicode="&#x152;" horiz-adv-x="2445" d="M156 614q0 183 77.5 354t206 296t305 200.5t365.5 75.5q211 0 359.5 -85t216.5 -243l57 301h807l-27 -137h-653l-101 -542h631l-24 -138h-631l-105 -559h654l-25 -137h-807l58 309q-263 -336 -676 -336q-312 0 -500 175.5t-188 465.5zM313 641q0 -147 64.5 -266.5 t189.5 -190.5t291 -71q146 0 285.5 62.5t244 166.5t168.5 249t64 302q0 227 -149 367.5t-390 140.5q-152 0 -294 -63.5t-245.5 -167.5t-166 -243.5t-62.5 -285.5z" />
<glyph unicode="&#x153;" horiz-adv-x="2328" d="M119 444q0 145 61 277.5t159.5 224.5t223.5 146.5t252 54.5q161 0 262 -65t187 -234q70 115 226 207t331 92q208 0 343.5 -127t135.5 -326q0 -62 -27 -186h-999q-4 -54 -4 -66q0 -133 108.5 -231t268.5 -98q130 0 240 65t188 189h153q-73 -160 -243 -277t-363 -117 q-107 0 -197 31t-162 102t-104 177q-87 -104 -125.5 -141.5t-91.5 -69.5q-162 -99 -324 -99q-220 0 -359.5 131t-139.5 340zM276 471q0 -157 100 -257.5t255 -100.5q133 0 253 75.5t191.5 201t71.5 265.5q0 157 -98 255t-256 98q-136 0 -255.5 -73.5t-190.5 -197.5t-71 -266 zM1300 645h859v6v19q0 145 -103.5 241.5t-257.5 96.5q-163 0 -291.5 -94t-206.5 -269z" />
<glyph unicode="&#x154;" horiz-adv-x="1243" d="M94 0l281 1513h375q308 0 437.5 -90.5t129.5 -289.5q0 -233 -149.5 -390.5t-389.5 -177.5l320 -565h-189l-383 686q167 0 254.5 10.5t155.5 38.5q98 41 160.5 145.5t62.5 227.5q0 145 -102.5 206.5t-341.5 61.5h-213l-256 -1376h-152zM737 1704l439 238l49 -119 l-439 -234z" />
<glyph unicode="&#x155;" horiz-adv-x="616" d="M68 0l206 1120h152l-29 -159q62 93 143 136t210 50l-29 -150q-323 -35 -381 -344l-121 -653h-151zM309 1331l439 238l49 -119l-439 -233z" />
<glyph unicode="&#x156;" horiz-adv-x="1243" d="M94 0l281 1513h375q308 0 437.5 -90.5t129.5 -289.5q0 -233 -149.5 -390.5t-389.5 -177.5l320 -565h-189l-383 686q167 0 254.5 10.5t155.5 38.5q98 41 160.5 145.5t62.5 227.5q0 145 -102.5 206.5t-341.5 61.5h-213l-256 -1376h-152zM354 -475l172 366h152l-178 -366 h-146z" />
<glyph unicode="&#x157;" horiz-adv-x="616" d="M-80 -475l172 366h152l-178 -366h-146zM68 0l206 1120h152l-29 -159q62 93 143 136t210 50l-29 -150q-323 -35 -381 -344l-121 -653h-151z" />
<glyph unicode="&#x158;" horiz-adv-x="1243" d="M94 0l281 1513h375q308 0 437.5 -90.5t129.5 -289.5q0 -233 -149.5 -390.5t-389.5 -177.5l320 -565h-189l-383 686q167 0 254.5 10.5t155.5 38.5q98 41 160.5 145.5t62.5 227.5q0 145 -102.5 206.5t-341.5 61.5h-213l-256 -1376h-152zM563 1874h182l148 -152l209 152h186 l-344 -258h-135z" />
<glyph unicode="&#x159;" horiz-adv-x="616" d="M68 0l206 1120h152l-29 -159q62 93 143 136t210 50l-29 -150q-323 -35 -381 -344l-121 -653h-151zM135 1501h182l148 -151l209 151h186l-344 -258h-135z" />
<glyph unicode="&#x15a;" horiz-adv-x="1019" d="M53 338q0 20 4 86h162q0 -163 64.5 -237t195.5 -74q148 0 255.5 107t107.5 255q0 94 -61 148.5t-224 105.5q-104 32 -169 66.5t-98 77t-43.5 85t-10.5 107.5q0 88 39.5 174.5t105.5 152.5t160.5 107t197.5 41q160 0 257.5 -91t97.5 -241q0 -13 -7 -78h-157q0 149 -58 210 t-159 61q-133 0 -226.5 -97.5t-93.5 -216.5q0 -31 13.5 -69.5t31.5 -56.5q22 -24 60 -41.5t147 -53.5q127 -42 191 -76.5t98 -78.5q65 -83 65 -207q0 -102 -45 -199.5t-119.5 -170t-176.5 -117t-209 -44.5q-175 0 -285.5 102t-110.5 263zM612 1704l439 238l49 -119 l-438 -234z" />
<glyph unicode="&#x15b;" horiz-adv-x="794" d="M27 240q0 41 6 90h149q0 -126 41.5 -171.5t128.5 -45.5q94 0 163 68.5t69 160.5q0 64 -33.5 97t-147.5 83q-92 40 -127.5 60.5t-58.5 48.5q-23 26 -38 67.5t-15 79.5q0 97 54.5 183t143.5 136t187 50q112 0 186 -69t74 -173q0 -38 -2 -61h-154q0 85 -32 124.5t-101 39.5 q-76 0 -137 -58.5t-61 -130.5q0 -79 77 -121q47 -24 195 -90q77 -35 112 -88.5t35 -132.5q0 -113 -58.5 -209t-153.5 -150.5t-203 -54.5q-134 0 -216.5 78t-82.5 189zM426 1331l438 238l49 -119l-438 -233z" />
<glyph unicode="&#x15c;" horiz-adv-x="1019" d="M53 338q0 20 4 86h162q0 -163 64.5 -237t195.5 -74q148 0 255.5 107t107.5 255q0 94 -61 148.5t-224 105.5q-104 32 -169 66.5t-98 77t-43.5 85t-10.5 107.5q0 88 39.5 174.5t105.5 152.5t160.5 107t197.5 41q160 0 257.5 -91t97.5 -241q0 -13 -7 -78h-157q0 149 -58 210 t-159 61q-133 0 -226.5 -97.5t-93.5 -216.5q0 -31 13.5 -69.5t31.5 -56.5q22 -24 60 -41.5t147 -53.5q127 -42 191 -76.5t98 -78.5q65 -83 65 -207q0 -102 -45 -199.5t-119.5 -170t-176.5 -117t-209 -44.5q-175 0 -285.5 102t-110.5 263zM391 1616l344 258h135l246 -258 h-182l-148 151l-208 -151h-187z" />
<glyph unicode="&#x15d;" horiz-adv-x="794" d="M27 240q0 41 6 90h149q0 -126 41.5 -171.5t128.5 -45.5q94 0 163 68.5t69 160.5q0 64 -33.5 97t-147.5 83q-92 40 -127.5 60.5t-58.5 48.5q-23 26 -38 67.5t-15 79.5q0 97 54.5 183t143.5 136t187 50q112 0 186 -69t74 -173q0 -38 -2 -61h-154q0 85 -32 124.5t-101 39.5 q-76 0 -137 -58.5t-61 -130.5q0 -79 77 -121q47 -24 195 -90q77 -35 112 -88.5t35 -132.5q0 -113 -58.5 -209t-153.5 -150.5t-203 -54.5q-134 0 -216.5 78t-82.5 189zM203 1243l344 258h135l246 -258h-183l-147 152l-209 -152h-186z" />
<glyph unicode="&#x15e;" horiz-adv-x="1019" d="M53 338q0 20 4 86h162q0 -163 64.5 -237t195.5 -74q148 0 255.5 107t107.5 255q0 94 -61 148.5t-224 105.5q-104 32 -169 66.5t-98 77t-43.5 85t-10.5 107.5q0 88 39.5 174.5t105.5 152.5t160.5 107t197.5 41q160 0 257.5 -91t97.5 -241q0 -13 -7 -78h-157q0 149 -58 210 t-159 61q-133 0 -226.5 -97.5t-93.5 -216.5q0 -31 13.5 -69.5t31.5 -56.5q22 -24 60 -41.5t147 -53.5q127 -42 191 -76.5t98 -78.5q65 -83 65 -207q0 -134 -74 -255.5t-199 -197t-265 -78.5l-37 -71q45 10 70 10q75 0 122.5 -42t47.5 -112q0 -9 -5 -39q-18 -98 -93.5 -165.5 t-178.5 -67.5q-74 0 -116 46.5t-48 127.5l111 12q4 -37 22 -52t56 -15q50 0 84 38t34 93q1 38 -20.5 60t-60.5 22q-60 0 -105 -39l-57 39l94 159q-148 20 -238 118.5t-90 242.5z" />
<glyph unicode="&#x15f;" horiz-adv-x="794" d="M27 240q0 41 6 90h149q0 -126 41.5 -171.5t128.5 -45.5q94 0 163 68.5t69 160.5q0 64 -33.5 97t-147.5 83q-92 40 -127.5 60.5t-58.5 48.5q-23 26 -38 67.5t-15 79.5q0 97 54.5 183t143.5 136t187 50q112 0 186 -69t74 -173q0 -38 -2 -61h-154q0 85 -32 124.5t-101 39.5 q-76 0 -137 -58.5t-61 -130.5q0 -79 77 -121q47 -24 195 -90q77 -35 112 -88.5t35 -132.5q0 -165 -117 -285t-276 -129l-37 -71q45 10 70 10q75 0 122.5 -42t47.5 -112q0 -15 -4 -39q-18 -98 -94 -165.5t-179 -67.5q-74 0 -115.5 46.5t-47.5 127.5l110 12q4 -37 22 -52 t56 -15q50 0 84.5 38t34.5 93q1 38 -21 60t-61 22q-60 0 -105 -39l-57 39l94 159q-111 17 -176 91t-65 172z" />
<glyph unicode="&#x160;" horiz-adv-x="1019" d="M53 338q0 20 4 86h162q0 -163 64.5 -237t195.5 -74q148 0 255.5 107t107.5 255q0 94 -61 148.5t-224 105.5q-104 32 -169 66.5t-98 77t-43.5 85t-10.5 107.5q0 88 39.5 174.5t105.5 152.5t160.5 107t197.5 41q160 0 257.5 -91t97.5 -241q0 -13 -7 -78h-157q0 149 -58 210 t-159 61q-133 0 -226.5 -97.5t-93.5 -216.5q0 -31 13.5 -69.5t31.5 -56.5q22 -24 60 -41.5t147 -53.5q127 -42 191 -76.5t98 -78.5q65 -83 65 -207q0 -102 -45 -199.5t-119.5 -170t-176.5 -117t-209 -44.5q-175 0 -285.5 102t-110.5 263zM438 1874h183l147 -152l209 152h186 l-344 -258h-135z" />
<glyph unicode="&#x161;" horiz-adv-x="794" d="M27 240q0 41 6 90h149q0 -126 41.5 -171.5t128.5 -45.5q94 0 163 68.5t69 160.5q0 64 -33.5 97t-147.5 83q-92 40 -127.5 60.5t-58.5 48.5q-23 26 -38 67.5t-15 79.5q0 97 54.5 183t143.5 136t187 50q112 0 186 -69t74 -173q0 -38 -2 -61h-154q0 85 -32 124.5t-101 39.5 q-76 0 -137 -58.5t-61 -130.5q0 -79 77 -121q47 -24 195 -90q77 -35 112 -88.5t35 -132.5q0 -113 -58.5 -209t-153.5 -150.5t-203 -54.5q-134 0 -216.5 78t-82.5 189zM252 1501h182l148 -151l209 151h186l-344 -258h-135z" />
<glyph unicode="&#x162;" horiz-adv-x="872" d="M162 -340l110 12q4 -37 22 -52t56 -15q50 0 84.5 38t34.5 93q1 38 -21 60t-61 22q-59 0 -104 -39l-58 39l107 182h-33l256 1376h-346l24 137h844l-24 -137h-346l-256 -1376h-39l-50 -98q45 10 70 10q75 0 122.5 -42t47.5 -112q0 -15 -4 -39q-18 -98 -93.5 -165.5 t-178.5 -67.5q-74 0 -116 46.5t-48 127.5z" />
<glyph unicode="&#x163;" horiz-adv-x="694" d="M80 -340l110 12q4 -37 22 -52t56 -15q50 0 84.5 38t34.5 93q1 38 -21 60t-61 22q-59 0 -104 -39l-58 39l107 182h-57l182 983h-230l25 137h229l74 393h152l-74 -393h264l-24 -137h-265l-182 -983h-14l-49 -98q44 10 69 10q75 0 122.5 -42t47.5 -112q0 -15 -4 -39 q-18 -98 -93.5 -165.5t-178.5 -67.5q-74 0 -116 46.5t-48 127.5z" />
<glyph unicode="&#x164;" horiz-adv-x="872" d="M209 1376l24 137h844l-24 -137h-346l-256 -1376h-152l256 1376h-346zM360 1874h183l147 -152l209 152h186l-344 -258h-135z" />
<glyph unicode="&#x165;" horiz-adv-x="694" d="M145 983l25 137h229l74 393h152l-74 -393h264l-24 -137h-265l-182 -983h-151l182 983h-230zM629 1186l172 366h151l-178 -366h-145z" />
<glyph unicode="&#x168;" d="M182 354q0 84 23 215l174 944h151l-174 -944q-18 -99 -18 -184q0 -122 81.5 -197t213.5 -75q172 0 287.5 112.5t158.5 343.5l174 944h152l-174 -944q-55 -297 -220 -446.5t-405 -149.5q-188 0 -306 106t-118 275zM637 1743q47 49 95 76.5t87 27.5q28 0 112.5 -37.5 t102.5 -37.5q75 0 146 77l43 -94q-81 -113 -189 -113q-54 0 -196 68q-13 8 -35 8q-18 0 -37 -10.5t-82 -56.5z" />
<glyph unicode="&#x169;" horiz-adv-x="1245" d="M141 317q0 91 19 199l112 604h152l-113 -604q-12 -54 -12 -137q0 -127 69 -196.5t205 -69.5q158 0 272 103.5t156 328.5l109 575h152l-209 -1120h-152l33 174q-82 -107 -175.5 -154t-226.5 -47q-178 0 -284.5 93.5t-106.5 250.5zM512 1370q47 49 95.5 77t86.5 28 q28 0 112.5 -38t102.5 -38q74 0 146 78l43 -95q-80 -112 -189 -112q-56 0 -196 67q-15 9 -35 9q-18 0 -36 -10.5t-83 -57.5z" />
<glyph unicode="&#x16a;" d="M182 354q0 84 23 215l174 944h151l-174 -944q-18 -99 -18 -184q0 -122 81.5 -197t213.5 -75q172 0 287.5 112.5t158.5 343.5l174 944h152l-174 -944q-55 -297 -220 -446.5t-405 -149.5q-188 0 -306 106t-118 275zM578 1681l24 127h690l-24 -127h-690z" />
<glyph unicode="&#x16b;" horiz-adv-x="1245" d="M141 317q0 91 19 199l112 604h152l-113 -604q-12 -54 -12 -137q0 -127 69 -196.5t205 -69.5q158 0 272 103.5t156 328.5l109 575h152l-209 -1120h-152l33 174q-82 -107 -175.5 -154t-226.5 -47q-178 0 -284.5 93.5t-106.5 250.5zM455 1309l24 127h690l-24 -127h-690z" />
<glyph unicode="&#x16c;" d="M182 354q0 84 23 215l174 944h151l-174 -944q-18 -99 -18 -184q0 -122 81.5 -197t213.5 -75q172 0 287.5 112.5t158.5 343.5l174 944h152l-174 -944q-55 -297 -220 -446.5t-405 -149.5q-188 0 -306 106t-118 275zM645 1866h131q9 -73 47 -100t119 -27q78 0 137.5 34 t79.5 93h109q-35 -118 -125.5 -179t-227.5 -61q-128 0 -196 54.5t-74 185.5z" />
<glyph unicode="&#x16d;" horiz-adv-x="1245" d="M141 317q0 91 19 199l112 604h152l-113 -604q-12 -54 -12 -137q0 -127 69 -196.5t205 -69.5q158 0 272 103.5t156 328.5l109 575h152l-209 -1120h-152l33 174q-82 -107 -175.5 -154t-226.5 -47q-178 0 -284.5 93.5t-106.5 250.5zM512 1493h131q9 -73 47 -100t119 -27 q78 0 137.5 34t79.5 93h109q-35 -118 -125.5 -179t-227.5 -61q-128 0 -196 54.5t-74 185.5z" />
<glyph unicode="&#x16e;" d="M182 354q0 84 23 215l174 944h151l-174 -944q-18 -99 -18 -184q0 -122 81.5 -197t213.5 -75q172 0 287.5 112.5t158.5 343.5l174 944h152l-174 -944q-55 -297 -220 -446.5t-405 -149.5q-188 0 -306 106t-118 275zM727 1726q0 101 73 176.5t173 75.5q79 0 127.5 -49 t48.5 -129q0 -89 -77.5 -162t-172.5 -73q-74 0 -123 45.5t-49 115.5zM813 1749q0 -40 29 -67t73 -27q54 0 101 43t47 92q0 40 -31 69t-74 29q-56 0 -100.5 -42.5t-44.5 -96.5z" />
<glyph unicode="&#x16f;" horiz-adv-x="1245" d="M141 317q0 91 19 199l112 604h152l-113 -604q-12 -54 -12 -137q0 -127 69 -196.5t205 -69.5q158 0 272 103.5t156 328.5l109 575h152l-209 -1120h-152l33 174q-82 -107 -175.5 -154t-226.5 -47q-178 0 -284.5 93.5t-106.5 250.5zM606 1348q0 101 73 176t173 75 q78 0 126 -49t48 -129q0 -89 -77.5 -162t-172.5 -73q-74 0 -122 46t-48 116zM692 1370q0 -40 28.5 -67t72.5 -27q54 0 101.5 43t47.5 92q0 40 -31 69t-75 29q-54 0 -99 -42.5t-45 -96.5z" />
<glyph unicode="&#x170;" d="M182 354q0 84 23 215l174 944h151l-174 -944q-18 -99 -18 -184q0 -122 81.5 -197t213.5 -75q172 0 287.5 112.5t158.5 343.5l174 944h152l-174 -944q-55 -297 -220 -446.5t-405 -149.5q-188 0 -306 106t-118 275zM657 1692l394 250l63 -103l-397 -250zM1057 1692l395 250 l61 -103l-397 -250z" />
<glyph unicode="&#x171;" horiz-adv-x="1245" d="M141 317q0 91 19 199l112 604h152l-113 -604q-12 -54 -12 -137q0 -127 69 -196.5t205 -69.5q158 0 272 103.5t156 328.5l109 575h152l-209 -1120h-152l33 174q-82 -107 -175.5 -154t-226.5 -47q-178 0 -284.5 93.5t-106.5 250.5zM532 1298l394 250l63 -102l-397 -250z M932 1298l395 250l62 -102l-398 -250z" />
<glyph unicode="&#x172;" d="M182 354q0 84 23 215l174 944h151l-174 -944q-18 -99 -18 -184q0 -122 81.5 -197t213.5 -75q172 0 287.5 112.5t158.5 343.5l174 944h152l-174 -944q-77 -412 -369 -544q-109 -48 -181.5 -114.5t-72.5 -148.5q0 -47 18 -84.5t58 -37.5q55 0 102 8l-28 -152 q-55 -8 -123 -8q-50 0 -87 19.5t-56.5 51.5t-29 67t-9.5 73q0 152 174 274h-21q-188 0 -306 106t-118 275z" />
<glyph unicode="&#x173;" horiz-adv-x="1245" d="M141 317q0 91 19 199l112 604h152l-113 -604q-12 -54 -12 -137q0 -127 69 -196.5t205 -69.5q158 0 272 103.5t156 328.5l109 575h152l-209 -1120q-94 -46 -151.5 -114t-57.5 -124q0 -47 18 -84.5t58 -37.5q55 0 102 8l-29 -152q-55 -8 -123 -8q-50 0 -87 19.5t-56.5 51.5 t-29 67t-9.5 73q0 87 54.5 160.5t160.5 140.5q-1 0 7 43.5t16 86.5l8 44q-82 -107 -175.5 -154t-226.5 -47q-178 0 -284.5 93.5t-106.5 250.5z" />
<glyph unicode="&#x174;" horiz-adv-x="1966" d="M240 1513h155l129 -1316l606 1316h144l119 -1316l616 1316h156l-715 -1513h-195l-106 1241l-561 -1241h-197zM860 1616l344 258h135l246 -258h-182l-148 151l-208 -151h-187z" />
<glyph unicode="&#x175;" horiz-adv-x="1701" d="M160 1120h151l183 -938l413 801h125l115 -801l539 938h147l-641 -1120h-162l-106 743l-379 -743h-164zM655 1243l344 258h136l245 -258h-182l-147 152l-209 -152h-187z" />
<glyph unicode="&#x176;" horiz-adv-x="1212" d="M223 1513h168l273 -847l598 847h165l-714 -1007l-95 -506h-151l94 506zM481 1616l344 258h136l245 -258h-182l-147 151l-209 -151h-187z" />
<glyph unicode="&#x177;" horiz-adv-x="1097" d="M137 -393l260 430l-233 1083h166l188 -893l545 893h162l-928 -1513h-160zM356 1243l344 258h136l245 -258h-182l-147 152l-209 -152h-187z" />
<glyph unicode="&#x178;" horiz-adv-x="1212" d="M223 1513h168l273 -847l598 847h165l-714 -1007l-95 -506h-151l94 506zM612 1616l47 258h152l-47 -258h-152zM913 1616l48 258h151l-47 -258h-152z" />
<glyph unicode="&#x179;" horiz-adv-x="983" d="M-27 0l25 137l975 1239h-721l24 137h891l-24 -137l-973 -1239h764l-25 -137h-936zM600 1704l438 238l49 -119l-438 -234z" />
<glyph unicode="&#x17a;" horiz-adv-x="870" d="M-41 0l25 137l776 846h-598l24 137h770l-22 -129l-772 -854h651l-25 -137h-829zM455 1331l438 238l49 -119l-438 -233z" />
<glyph unicode="&#x17b;" horiz-adv-x="983" d="M-27 0l25 137l975 1239h-721l24 137h891l-24 -137l-973 -1239h764l-25 -137h-936zM666 1616l47 258h151l-47 -258h-151z" />
<glyph unicode="&#x17c;" horiz-adv-x="870" d="M-41 0l25 137l776 846h-598l24 137h770l-22 -129l-772 -854h651l-25 -137h-829zM520 1243l47 258h152l-47 -258h-152z" />
<glyph unicode="&#x17d;" horiz-adv-x="983" d="M-27 0l25 137l975 1239h-721l24 137h891l-24 -137l-973 -1239h764l-25 -137h-936zM426 1874h182l148 -152l209 152h186l-344 -258h-135z" />
<glyph unicode="&#x17e;" horiz-adv-x="870" d="M-41 0l25 137l776 846h-598l24 137h770l-22 -129l-772 -854h651l-25 -137h-829zM281 1501h182l147 -151l209 151h187l-344 -258h-136z" />
<glyph unicode="&#x17f;" horiz-adv-x="643" d="M145 0l183 983h-174l24 137h174q23 112 58 176t100 115q130 102 309 102h12h23l-25 -137h-22h-8q-131 0 -200.5 -60.5t-94.5 -195.5l-207 -1120h-152z" />
<glyph unicode="&#x192;" horiz-adv-x="1134" d="M-104 -299l51 131l41 -4q10 -2 49 -2q146 0 225.5 75t159.5 287l326 871h-232l51 137h228l18 47q87 224 206.5 328t274.5 104q20 0 47 -6l-47 -135q-23 4 -39 4h-4q-92 2 -155.5 -61t-137.5 -234l-20 -47h229l-49 -137h-229l-328 -883q-65 -175 -109 -250.5t-116 -132.5 q-135 -106 -330 -106q-43 0 -110 14z" />
<glyph unicode="&#x2c6;" horiz-adv-x="1028" d="M319 1243l345 258h135l245 -258h-182l-147 152l-209 -152h-187z" />
<glyph unicode="&#x2da;" horiz-adv-x="679" d="M326 1348q0 101 72.5 176t172.5 75q78 0 126 -49t48 -129q0 -89 -77 -162t-172 -73q-74 0 -122 46t-48 116zM412 1370q0 -40 28 -67t72 -27q54 0 102 43t48 92q0 40 -31.5 69t-75.5 29q-54 0 -98.5 -42.5t-44.5 -96.5z" />
<glyph unicode="&#x2dc;" horiz-adv-x="899" d="M342 1370q47 49 95.5 77t86.5 28q28 0 112.5 -38t102.5 -38q74 0 146 78l43 -95q-80 -112 -189 -112q-56 0 -196 67q-15 9 -35 9q-18 0 -36 -10.5t-83 -57.5z" />
<glyph unicode="&#x2000;" horiz-adv-x="989" />
<glyph unicode="&#x2001;" horiz-adv-x="1978" />
<glyph unicode="&#x2002;" horiz-adv-x="989" />
<glyph unicode="&#x2003;" horiz-adv-x="1978" />
<glyph unicode="&#x2004;" horiz-adv-x="659" />
<glyph unicode="&#x2005;" horiz-adv-x="494" />
<glyph unicode="&#x2006;" horiz-adv-x="329" />
<glyph unicode="&#x2007;" horiz-adv-x="329" />
<glyph unicode="&#x2008;" horiz-adv-x="247" />
<glyph unicode="&#x2009;" horiz-adv-x="395" />
<glyph unicode="&#x200a;" horiz-adv-x="109" />
<glyph unicode="&#x2010;" horiz-adv-x="679" d="M102 477l25 129h557l-25 -129h-557z" />
<glyph unicode="&#x2011;" horiz-adv-x="679" d="M102 477l25 129h557l-25 -129h-557z" />
<glyph unicode="&#x2012;" horiz-adv-x="679" d="M102 477l25 129h557l-25 -129h-557z" />
<glyph unicode="&#x2013;" horiz-adv-x="1024" d="M39 477l24 129h1027l-25 -129h-1026z" />
<glyph unicode="&#x2014;" horiz-adv-x="2048" d="M39 477l24 129h2051l-25 -129h-2050z" />
<glyph unicode="&#x2018;" horiz-adv-x="718" d="M420 1513h151l107 -393h-152z" />
<glyph unicode="&#x2019;" horiz-adv-x="718" d="M332 1120l254 393h151l-254 -393h-151z" />
<glyph unicode="&#x201a;" horiz-adv-x="724" d="M96 -137l254 395h150l-254 -395h-150z" />
<glyph unicode="&#x201c;" horiz-adv-x="1028" d="M416 1513h151l107 -393h-152zM719 1513h151l107 -393h-152z" />
<glyph unicode="&#x201d;" horiz-adv-x="991" d="M324 1120l254 393h151l-254 -393h-151zM618 1120l254 393h152l-254 -393h-152z" />
<glyph unicode="&#x201e;" horiz-adv-x="1028" d="M96 -135l254 393h152l-254 -393h-152zM395 -135l254 393h152l-254 -393h-152z" />
<glyph unicode="&#x2026;" horiz-adv-x="2048" d="M205 0l47 258h151l-47 -258h-151zM887 0l47 258h151l-47 -258h-151zM1569 0l47 258h151l-47 -258h-151z" />
<glyph unicode="&#x202f;" horiz-adv-x="395" />
<glyph unicode="&#x2039;" horiz-adv-x="514" d="M135 614l305 408l109 -66l-254 -342l127 -344l-133 -67z" />
<glyph unicode="&#x203a;" horiz-adv-x="514" d="M72 270l254 344l-127 342l133 66l153 -408l-305 -411z" />
<glyph unicode="&#x205f;" horiz-adv-x="494" />
<glyph unicode="&#x20a1;" horiz-adv-x="1665" d="M156 594q0 175 66 339t178.5 288.5t267 208t325.5 104.5l27 149h127l-29 -143q229 -5 394.5 -120.5t205.5 -299.5h-168q-123 278 -456 281l-240 -1288q312 3 569 284h168q-135 -200 -335 -311.5t-427 -112.5l-26 -143h-127l29 152q-249 34 -399 200t-150 412zM313 635 q0 -196 115 -335.5t303 -176.5l236 1268q-175 -30 -325 -139.5t-239.5 -273.5t-89.5 -343z" />
<glyph unicode="&#x20a4;" horiz-adv-x="1134" d="M57 0l23 137h282q62 57 99 142t37 172q0 62 -33 124h-387l26 138h250l-69 133h-158l27 137h104l2 2q0 113 51 217.5t133.5 177.5t188.5 116.5t213 43.5q190 0 311 -110t121 -265q0 -7 -4 -57h-144q0 132 -84 212.5t-225 80.5q-164 0 -282 -123t-123 -295h637l-27 -137 h-575l106 -133h447l-27 -138h-340q15 -51 18 -126q0 -76 -26 -148t-88 -164h116q210 0 319 111t109 301h148q0 -257 -161.5 -403t-430.5 -146h-584z" />
<glyph unicode="&#x20a6;" horiz-adv-x="1515" d="M94 0l107 573h-76l27 140h75l43 239h-75l26 140h76l78 421h205l206 -421h564l77 421h152l-78 -421h76l-27 -140h-75l-43 -239h75l-26 -140h-76l-107 -573h-151l-283 573h-512l-106 -573h-152zM377 713h420l-119 239h-256zM446 1092h164l-118 239zM854 952l117 -239h307 l45 239h-469zM1040 573l154 -315l59 315h-213z" />
<glyph unicode="&#x20a9;" horiz-adv-x="1966" d="M66 573l26 140h227l-24 239h-160l27 140h121l-43 421h155l41 -421h500l194 421h144l39 -421h497l199 421h156l-199 -421h121l-27 -140h-159l-115 -239h231l-26 -140h-271l-270 -573h-195l-49 573h-358l-260 -573h-197l-57 573h-268zM451 952l22 -239h289l110 239h-421z M487 573l37 -376l174 376h-211zM909 713h285l-20 239h-156zM1081 1092h80l-12 149zM1325 952l21 -239h288l113 239h-422zM1358 573l35 -376l176 376h-211z" />
<glyph unicode="&#x20ab;" horiz-adv-x="1376" d="M43 -139l25 139h1120l-27 -139h-1118zM188 604q0 157 84 295t225.5 220.5t301.5 82.5q220 0 340 -174l47 248h-266l22 108h264l23 129h129l-25 -129h109l-19 -108h-110l-195 -1049h-129l33 172q-94 -104 -187.5 -149t-216.5 -45q-186 0 -308 113t-122 286zM324 637 q0 -139 89 -226t232 -87q112 0 216 64t167.5 170.5t63.5 221.5q0 129 -92.5 216t-229.5 87q-114 0 -217.5 -62.5t-166 -166t-62.5 -217.5z" />
<glyph unicode="&#x20ac;" horiz-adv-x="1134" d="M-127 557l72 121h139q8 62 29 141h-193l72 121h153q62 165 114.5 256.5t125.5 161.5q188 182 446 182q143 0 236 -52.5t178 -201.5l-88 -137q-69 145 -143 200.5t-197 55.5q-182 0 -298.5 -101.5t-221.5 -363.5h719l-72 -121h-682q-18 -69 -26 -141h620l-72 -121h-561 v-55q0 -191 87.5 -293.5t250.5 -102.5q117 0 194 37.5t228 159.5l-29 -176q-177 -154 -405 -154q-250 0 -364.5 139.5t-114.5 444.5h-197z" />
<glyph unicode="&#x20b1;" horiz-adv-x="1212" d="M78 317l20 113h76l201 1083h420q267 0 386 -80.5t119 -261.5q0 -117 -42 -226.5t-117 -184.5q-80 -80 -193 -114t-299 -34h-291l-32 -182h299l-21 -113h-299l-59 -317h-152l60 317h-76zM385 750h281q147 0 231.5 24.5t140.5 83.5q47 51 76 129t29 156q0 130 -96 188 q-72 45 -330 45h-215z" />
<glyph unicode="&#x2122;" horiz-adv-x="2095" d="M438 1407l19 106h563l-19 -106h-221l-141 -756h-123l141 756h-219zM999 651l160 862h170l215 -692l469 692h172l-160 -862h-122l129 697l-471 -697h-99l-211 697l-129 -697h-123z" />
<glyph unicode="&#x25fc;" horiz-adv-x="1116" d="M0 0v1116h1116v-1116h-1116z" />
</font>
</defs>
</svg>
